<?xml version="1.0" encoding="utf-8"?>
<!-- Generator: Adobe Illustrator 22.1.0, SVG Export Plug-In . SVG Version: 6.00 Build 0)  -->
<svg version="1.1" id="Capa_1" xmlns="http://www.w3.org/2000/svg" xmlns:xlink="http://www.w3.org/1999/xlink" x="0px" y="0px"
	 viewBox="0 0 24.4 24.4" style="enable-background:new 0 0 24.4 24.4;" xml:space="preserve">
<style type="text/css">
	.st0{fill:#FFFFFF;}
</style>
<title>Recurso 1</title>
<g id="Capa_2_1_">
	<g id="Capa_1-2">
		<path class="st0" d="M22.6,24.4c-0.5,0-0.9-0.2-1.3-0.5L0.5,3.1c-0.7-0.7-0.7-1.8,0-2.5s1.8-0.7,2.5,0l20.8,20.8
			c0.7,0.7,0.7,1.9,0,2.6C23.5,24.2,23,24.4,22.6,24.4z"/>
		<path class="st0" d="M1.8,24.4c-1,0-1.8-0.8-1.8-1.8c0-0.5,0.2-0.9,0.5-1.3L21.3,0.5c0.7-0.7,1.8-0.7,2.5,0l0,0
			c0.7,0.7,0.7,1.8,0,2.5L3.1,23.9C2.7,24.2,2.3,24.4,1.8,24.4z"/>
	</g>
</g>
</svg>
