<svg id="Capa_1" data-name="Capa 1" xmlns="http://www.w3.org/2000/svg" width="982" height="624.25" viewBox="0 0 982 624.25">
  <title>logonuevo</title>
  <g>
    <g>
      <path d="M394.73,391c0,67.55-55.31,122.86-122.86,122.86-47.49,0-89.59-26.43-110.63-69a23.91,23.91,0,0,1,11.25-32.3,24.29,24.29,0,0,1,32.31,10.76c12.73,25.95,38.19,42.1,67.07,42.1,40.62,0,73.42-32.8,74.4-72.94V365.56c-21,15.67-46.5,25.46-74.4,25.46A122.87,122.87,0,1,1,394.73,268.15ZM346.27,268.15c0-41.12-33.78-74.4-74.4-74.4a74.36,74.36,0,0,0-74.41,74.4c0,40.63,33.28,74.41,74.41,74.41C312.49,342.56,346.27,308.78,346.27,268.15Z" transform="translate(-149 -47.87)"/>
      <path d="M620.9,169.76V293.12a99.24,99.24,0,0,1-99.37,98.39c-54.34,0-98.39-44.06-98.88-98.39V169.76a24.23,24.23,0,0,1,48.46,0V292.14c0,27.9,22.51,50.91,50.42,50.91a50.87,50.87,0,0,0,50.91-50.91V169.76a24.23,24.23,0,0,1,48.46,0ZM455.93,89a24.47,24.47,0,0,1-6.85-17.13,25.36,25.36,0,0,1,6.85-17.13,25.34,25.34,0,0,1,17.13-6.86,24.46,24.46,0,0,1,17.14,6.86,23.72,23.72,0,0,1,7.34,17.13A22.93,22.93,0,0,1,490.2,89a23,23,0,0,1-17.14,7.34A23.73,23.73,0,0,1,455.93,89Zm96.93,0A24.44,24.44,0,0,1,546,71.86a25.33,25.33,0,0,1,6.86-17.13A25.33,25.33,0,0,1,570,47.87a24.46,24.46,0,0,1,17.13,6.86,23.72,23.72,0,0,1,7.34,17.13A22.93,22.93,0,0,1,587.12,89,23,23,0,0,1,570,96.33,23.72,23.72,0,0,1,552.86,89Z" transform="translate(-149 -47.87)"/>
      <path d="M658.6,90a25,25,0,0,1-7.34-17.13,24.23,24.23,0,0,1,41.61-17.13A24.23,24.23,0,0,1,658.6,90ZM651.26,367V169.76a24.23,24.23,0,0,1,48.46,0V367a24.23,24.23,0,1,1-48.46,0Z" transform="translate(-149 -47.87)"/>
    </g>
    <g>
      <path d="M620.51,672.13c-16,0-29.1-13.27-29.1-29.59V544.15a69.3,69.3,0,1,0-138.59,0v98.39a29.28,29.28,0,0,1-29.59,29.59c-16,0-29.09-13.27-29.09-29.59V544.15a128,128,0,0,1,256,0v98.39A29.28,29.28,0,0,1,620.51,672.13ZM522.12,464.64a79.6,79.6,0,0,1,79.51,79.51v98.39c0,10.86,8.29,19.37,18.88,19.37a19.17,19.17,0,0,0,19.37-19.37V544.15a117.76,117.76,0,0,0-235.52,0v98.39c0,10.86,8.29,19.37,18.87,19.37a19.16,19.16,0,0,0,19.37-19.37V544.15A79.6,79.6,0,0,1,522.12,464.64Z" transform="translate(-149 -47.87)"/>
      <path d="M799.15,672.13h-2.41a128,128,0,0,1,0-256c31.88,0,63.61,12,87,32.81,18.67,16.62,40.93,46.61,40.93,95.17,0,16-13.27,29.1-29.58,29.1H733.85a69.77,69.77,0,0,0,62.89,40.2c13.17,0,31-1.75,52.06-15.34a24.45,24.45,0,0,1,20-2.91,31.6,31.6,0,0,1,19.63,16.17c6.59,13.72,1.14,29.31-13.53,38.87C842.78,671.67,817.67,672.13,799.15,672.13Zm-2.41-245.74a117.76,117.76,0,0,0,0,235.52h1.17c17.33.05,41.06,0,71.38-20.2,8.51-5.55,14.86-15.66,10-25.84a21.46,21.46,0,0,0-13.13-10.8,14.18,14.18,0,0,0-11.78,1.61c-23.59,15.23-44.18,17-57.62,17a80.09,80.09,0,0,1-75.31-53.85L719.05,563H895.13c10.86,0,19.37-8.29,19.37-18.88C914.5,467.67,853.82,426.39,796.74,426.39Zm77.84,98.4H719l2.43-6.82a80.18,80.18,0,0,1,75.3-53.33c27.59,0,64,14,75.87,53.57ZM733.9,514.57H860.48c-12.12-29.16-41.28-39.72-63.74-39.72A69.94,69.94,0,0,0,733.9,514.57Z" transform="translate(-149 -47.87)"/>
      <path d="M1027.79,672.13a30.33,30.33,0,0,1-28.29-19.51L926.09,456.85a29.24,29.24,0,0,1,.74-23,28.43,28.43,0,0,1,16.56-15,28.8,28.8,0,0,1,22.4.67,29.72,29.72,0,0,1,15.38,16.52l46.6,123.85,46.14-123.8c6-15.54,22.64-23.06,37.95-17.18a28.24,28.24,0,0,1,16.4,14.93,29.21,29.21,0,0,1,.74,23l-73.41,195.78C1050.91,664.34,1039.76,672.13,1027.79,672.13ZM953.85,427.19a19.41,19.41,0,0,0-7,1.31,18.35,18.35,0,0,0-10.8,9.69,19.09,19.09,0,0,0-.46,15l73.44,195.84a19.8,19.8,0,0,0,18.22,12.85A20.31,20.31,0,0,0,1046.06,649l73.4-195.74a19.09,19.09,0,0,0-.47-15,18.21,18.21,0,0,0-10.63-9.63,19,19,0,0,0-24.89,11.2l-55.65,149.3-56.2-149.33a19.52,19.52,0,0,0-10.07-10.86A18.46,18.46,0,0,0,953.85,427.19Z" transform="translate(-149 -47.87)"/>
    </g>
  </g>
</svg>
