<svg xmlns="http://www.w3.org/2000/svg" viewBox="0 0 1246.81 544.83"><title>hed+</title><g id="Capa_2" data-name="Capa 2"><g id="Capa_1-2" data-name="Capa 1"><path d="M61.92,165.87c14-7.24,30.63-10.89,49.49-10.89a115.46,115.46,0,0,1,50.82,11.79,95.3,95.3,0,0,1,12.27,7.16c2.37,1.78,4.75,3.7,7.11,5.78,23.38,20.75,39,52.31,46.85,94.23.31,1.9.93,6.19.93,6.19V407.55c0,10.28,8.09,18.64,18,18.64a17.66,17.66,0,0,0,12.74-5.47,18.9,18.9,0,0,0,5.28-13.17v-246h34.31V412.25c-.87,15.64-8.39,27.9-19.54,37.18a51.32,51.32,0,0,1-33,12c-28.89,0-52.4-24.18-52.4-53.88V285.15a131.49,131.49,0,0,0-5.25-38.27,98.61,98.61,0,0,0-15.68-31.38,76.84,76.84,0,0,0-24.8-21.21c-9.66-5.19-20.78-7.84-33-7.84-14.1,0-26.39,2.8-36.52,8.31a72.27,72.27,0,0,0-25.19,22.72,99.73,99.73,0,0,0-14.54,33.9,156.73,156.73,0,0,0-3.69,42.09c0,15,2.09,28.31,6.16,39.63a83.83,83.83,0,0,0,17,28.74,72.43,72.43,0,0,0,25.2,17.78,80.91,80.91,0,0,0,31.63,6.09c12.58,0,24-2.58,33.77-7.63a71.25,71.25,0,0,0,24.73-20.92A90.85,90.85,0,0,0,185.8,337l1-2.45v50.67q-1.56,1.71-3.15,3.23a99.65,99.65,0,0,1-21.77,15.73,116.75,116.75,0,0,1-24.34,9.62,95.11,95.11,0,0,1-24.71,3.39c-20.08,0-37.41-3.41-51.52-10.14A97.18,97.18,0,0,1,26.21,379.2c-9.14-11.7-15.88-25.73-20-41.69a202.67,202.67,0,0,1-6.19-51A183.44,183.44,0,0,1,6.68,237a124.27,124.27,0,0,1,20.44-42.07,102,102,0,0,1,34.8-29m292,9.32c-15.48,13.53-23.33,31.12-23.33,52.27,0,16.64,4.12,29.79,12.26,39.08a78.18,78.18,0,0,0,30,21A185.86,185.86,0,0,0,411,298.27a366.37,366.37,0,0,1,37.21,8.37c11.13,3.16,20.49,7.56,27.82,13.09,6.91,5.22,10.28,13.08,10.28,24a36.15,36.15,0,0,1-3.47,15.57,40.36,40.36,0,0,1-10.26,13.29,50.69,50.69,0,0,1-17.48,9.49c-7.14,2.4-15.8,3.6-25.75,3.6-20.48,0-36.35-4.13-47.15-12.28S363.88,351.05,359.69,331l-.52-2.48H324.81l.17,3.26a96,96,0,0,0,7.76,33.42,84.65,84.65,0,0,0,19,27.26,86.49,86.49,0,0,0,29.41,18.24c11.39,4.33,24.62,6.53,39.32,6.53a169,169,0,0,0,40.37-4.54A99.22,99.22,0,0,0,493,398.84a68.51,68.51,0,0,0,21.59-23.32c5.25-9.34,7.9-20.18,7.9-32.22,0-16.32-4.11-29.31-12.24-38.61A85.66,85.66,0,0,0,480.33,283a188.6,188.6,0,0,0-38.14-12.15c-13.32-2.79-25.85-6-37.25-9.54-11.16-3.48-20.55-8-27.9-13.59-6.89-5.21-10.25-12.62-10.25-22.63,0-11.64,4.23-20.75,12.93-27.86s21.86-10.81,38.85-10.81,31.47,3.69,42.64,11c10.84,7.07,17.15,19.67,20,37.25,4.33,27.25,16,44.56,41.91,53.11a144.29,144.29,0,0,1,3-34.68c-5.14-5-7.79-9.95-10.2-19.14-7.2-27.52-14-48.7-31-60.85C468,161.08,445.83,155,419.05,155c-27.84,0-49.75,6.79-65.11,20.21m243.37-9.83a106.41,106.41,0,0,0-36,28.49,131.75,131.75,0,0,0-22.57,42,106.54,106.54,0,0,0-4,14.43c-2,9.15-2.45,12.41-2.45,12.41a119.62,119.62,0,0,0-1.43,20.95s-.06,2.59-.06,3.35a187,187,0,0,0,6.68,50.8,117.54,117.54,0,0,0,20.72,41.39,98.1,98.1,0,0,0,35.81,27.85c14.41,6.72,31.73,10.13,51.49,10.13,15.57,0,29.5-2.1,41.34-6.26a94.91,94.91,0,0,0,31-17.71,102.43,102.43,0,0,0,21.77-26.59,154.74,154.74,0,0,0,13.86-32.77l1.18-4h-38l-.58,2.35c-4.17,17-12.63,30.33-25.1,39.53s-27.84,13.94-45.53,13.94c-12.91,0-24.43-2.49-34.26-7.42a70.79,70.79,0,0,1-24.52-19.77,87.29,87.29,0,0,1-14.71-29.45,123.66,123.66,0,0,1-4.43-23.56,138.11,138.11,0,0,1-.6-35.17,114.77,114.77,0,0,1,7.75-32.84,91.83,91.83,0,0,1,15.66-26.31,73,73,0,0,1,23.4-18c9.06-4.45,19.73-6.72,31.71-6.72s22.74,2.19,32,6.51a66.75,66.75,0,0,1,23.09,17.47,76,76,0,0,1,14,26.16,105.09,105.09,0,0,1,4,18.91c.22,2,.3,5.68-1.79,8.05-1.53,1.7-4.08,2.57-7.64,2.57H575.48a117.63,117.63,0,0,0-1.14,29.61H724.51c19.29,0,30.19-1.23,30.19-26.75,0-29.25-9.66-56.36-28-78.43-19.6-23.61-46.9-35.57-81.16-35.57-17.9,0-34.14,3.49-48.25,10.38m482.82,0a104.77,104.77,0,0,0-36.21,28A115.82,115.82,0,0,0,1022.46,235a183.65,183.65,0,0,0-6.92,51L1015,407.55c0,10.28-8.08,18.64-18,18.64s-18-8.36-18-18.66l-.25-46v-113a247.87,247.87,0,0,0-1.67-29.2c-1.15-9.68-4.88-19.22-11.08-28.35-9.07-13.27-20.42-22.73-33.74-28.08a114.45,114.45,0,0,0-42.89-8c-17.39,0-32.54,3.94-45,11.72a176.17,176.17,0,0,0-30.21,24.14v-29.3H779.8V410.63h34.31V276.7c0-8.37.31-16.17.91-23.18a87.09,87.09,0,0,1,5-21.76,66.32,66.32,0,0,1,9-17,67.17,67.17,0,0,1,14.13-14.36,72.28,72.28,0,0,1,18.67-10.11,65.63,65.63,0,0,1,22.85-3.81c21.47,0,37,5.18,46,15.39S944.4,228,944.4,249V407.55c0,29.7,23.53,53.88,52.43,53.88,28.68,0,52.05-23.81,52.38-53.21V292.44c0-38.91,10.09-67.78,29.9-86a72.18,72.18,0,0,1,15.79-11.73c10-5.5,22.18-8.3,36.27-8.3s26.3,2.8,36.26,8.3a71.11,71.11,0,0,1,24.52,22A98.55,98.55,0,0,1,1206,248.62c.45,1.79,1.9,8.84,1.9,8.84a167.22,167.22,0,0,1,2.69,28.62,150.2,150.2,0,0,1-4.59,37.23,101.21,101.21,0,0,1-14.1,31.86,70,70,0,0,1-24.51,22.24c-9.94,5.51-22.15,8.3-36.26,8.3s-26.29-2.79-36.27-8.3a70.18,70.18,0,0,1-24.48-22.24c-5.94-8.74-9.83-18.7-12.88-29.62v65.28a101.32,101.32,0,0,0,26.21,17c14.24,6.24,30.19,9.4,47.42,9.4s33.21-3.16,47.44-9.4A103.59,103.59,0,0,0,1215.33,381a122,122,0,0,0,23.35-41.36c5.39-15.89,8.13-33.89,8.13-53.52a183.81,183.81,0,0,0-6.91-51,116.18,116.18,0,0,0-21.46-41.65,104.9,104.9,0,0,0-36.22-28c-14.43-6.9-31.59-10.38-51-10.38s-36.6,3.48-51,10.38M194.84,66.81V182.28c13.48,14.57,26,34.88,34.55,63.14V66.81Zm70.59,27.48h34.31V66.81H265.43Zm514.37,0H978.71V66.81H779.8Zm-435.73,0V52.85h36.09V94.29h19.27V1.47H380.16V36.85H344.07V1.47H324.81V94.29ZM483.82,85.2q13.68-12.95,13.69-37.33,0-24.84-13.69-37.32Q473.58,0,454.18,0T424.52,10.55Q410.78,23,410.77,47.87q0,24.39,13.75,37.33,10.25,10.56,29.66,10.56T483.82,85.2M472,71.44q-6.62,8.3-17.82,8.29t-17.93-8.29q-6.69-8.26-6.69-23.57t6.69-23.56Q442.92,16,454.18,16T472,24.34q6.6,8.31,6.6,23.53T472,71.44M539.63,41.9,520.37,1.47H497.51l32.12,58V94.29H549V59.48l31.05-58h-22Zm142.1,52.39V86.82H627.46V49.94h47.82V42.46H627.46V9h53V1.47H618.69V94.29Zm6.79-28.1a31.14,31.14,0,0,0,2.47,13,25.48,25.48,0,0,0,6.88,9.22,29,29,0,0,0,10.48,5.57,45.31,45.31,0,0,0,13.14,1.83q15.79,0,24.52-7t8.72-19.58a24,24,0,0,0-2.22-10.93,20.46,20.46,0,0,0-5.86-7.13,30.07,30.07,0,0,0-8.41-4.43,101.64,101.64,0,0,0-9.79-2.85c-3.37-.79-6.68-1.56-9.92-2.27a50.09,50.09,0,0,1-8.91-2.79,21.41,21.41,0,0,1-6.81-4.35,12.37,12.37,0,0,1-3.57-7.07A15.88,15.88,0,0,1,703.3,13.9a19.37,19.37,0,0,1,7.15-4.75,29.18,29.18,0,0,1,11-1.84,31.1,31.1,0,0,1,8.35,1.14A21.53,21.53,0,0,1,737,12a16.75,16.75,0,0,1,5,6.2,20.28,20.28,0,0,1,1.85,9h8.2a29.23,29.23,0,0,0-1.89-10.49A24.39,24.39,0,0,0,744.49,8a26.88,26.88,0,0,0-9.55-5.86A38.34,38.34,0,0,0,721.49,0,40.62,40.62,0,0,0,708.1,2a28.3,28.3,0,0,0-9.66,5.43,22.25,22.25,0,0,0-5.81,7.83,22,22,0,0,0-2,9.1,22.81,22.81,0,0,0,2.39,11.05,21.52,21.52,0,0,0,6.26,7.14A32.19,32.19,0,0,0,708.17,47q5,1.62,10.23,2.84t10.25,2.45a38.55,38.55,0,0,1,8.83,3.36A18.78,18.78,0,0,1,743.74,61a14.47,14.47,0,0,1,2.39,8.61,19.62,19.62,0,0,1-1.33,7.2,16.17,16.17,0,0,1-4.1,6,19.81,19.81,0,0,1-7.2,4.1A32.16,32.16,0,0,1,723,88.42a38.19,38.19,0,0,1-9.75-1.19,22.51,22.51,0,0,1-8-3.84,20.92,20.92,0,0,1-5.7-6.89,27.16,27.16,0,0,1-2.72-10.31Z"/><path d="M32.79,517.26v8.58a.62.62,0,0,1-.66.66H23.82a.61.61,0,0,0-.65.65v9a.63.63,0,0,1-.66.66H12.62a.62.62,0,0,1-.66-.66v-9a.62.62,0,0,0-.66-.65H2.92a.62.62,0,0,1-.66-.66v-8.58a.63.63,0,0,1,.66-.66H11.3A.62.62,0,0,0,12,516v-9a.62.62,0,0,1,.66-.66h9.89a.62.62,0,0,1,.66.66v9a.61.61,0,0,0,.65.65h8.31A.62.62,0,0,1,32.79,517.26Z"/><path d="M76.93,527.75l9.17,1.19c.52.06.46.59.39.92-1.58,8.57-10,15-20,15C52.8,544.83,43.37,534,43.37,521s9.43-23.6,23.08-23.6c10,0,18.33,6.39,20,15,.07.34.13.86-.39.93l-9.17,1.18a.72.72,0,0,1-.92-.39,10.29,10.29,0,0,0-10-6.79c-5.68,0-11.41,4.35-11.41,13.71S60.31,534.94,66,534.94a10.29,10.29,0,0,0,10-6.79A.73.73,0,0,1,76.93,527.75Z"/><path d="M93.84,544v-45.7a.62.62,0,0,1,.66-.66h20.11c9.43,0,17.08,7,17.08,16.56a15.89,15.89,0,0,1-8,14.11.64.64,0,0,0-.19.92l7.84,14.64c.27.46,0,.79-.46.79H120.15a.79.79,0,0,1-.79-.46l-6.66-13a.79.79,0,0,0-.79-.46h-6.2a.62.62,0,0,0-.66.65V544a.62.62,0,0,1-.66.66H94.5A.62.62,0,0,1,93.84,544Zm19.45-23.15c4,0,7.19-2.76,7.19-6.65,0-4.09-3.36-6.66-7.19-6.66h-7.58a.62.62,0,0,0-.66.65v12a.62.62,0,0,0,.66.65Z"/><path d="M169.23,535.4V544a.62.62,0,0,1-.66.66H139.63A.62.62,0,0,1,139,544v-45.7a.62.62,0,0,1,.66-.66h28.28a.62.62,0,0,1,.66.66v8.58a.62.62,0,0,1-.66.66H150.83a.61.61,0,0,0-.65.65v7.72a.62.62,0,0,0,.65.66h12.33a.63.63,0,0,1,.67.66v8.57a.63.63,0,0,1-.67.66H150.83a.62.62,0,0,0-.65.66v7a.62.62,0,0,0,.65.66h17.74A.62.62,0,0,1,169.23,535.4Z"/><path d="M195.7,497.61h4.48a.81.81,0,0,1,.79.46l20.9,45.77c.2.46,0,.79-.46.79H212a.79.79,0,0,1-.79-.46l-3-6.27a.74.74,0,0,0-.73-.46H188.31a.81.81,0,0,0-.79.46l-3,6.27a.7.7,0,0,1-.72.46H174.4c-.46,0-.66-.33-.46-.79l21-45.77A.83.83,0,0,1,195.7,497.61Zm-2.77,29.94h9.95c.46,0,.66-.33.46-.79l-4.94-11.14a.48.48,0,0,0-.92,0l-5,11.14C192.27,527.22,192.46,527.55,192.93,527.55Z"/><path d="M253.81,498.27v8.58a.62.62,0,0,1-.66.66H241.88a.62.62,0,0,0-.66.65V544a.62.62,0,0,1-.66.66h-9.89A.62.62,0,0,1,230,544V508.16a.62.62,0,0,0-.66-.65H218a.62.62,0,0,1-.66-.66v-8.58a.62.62,0,0,1,.66-.66h35.14A.62.62,0,0,1,253.81,498.27Z"/><path d="M271,544.63h-9.89a.62.62,0,0,1-.66-.66v-45.7a.62.62,0,0,1,.66-.66H271a.63.63,0,0,1,.66.66V544A.62.62,0,0,1,271,544.63Z"/><path d="M304,544.63h-4.62a.85.85,0,0,1-.79-.53l-20.9-45.69a.53.53,0,0,1,.53-.8h9.89c.33,0,.53.14.72.53l12.4,28.62c.26.53.66.53.93,0l12.39-28.62c.2-.39.4-.53.73-.53h9.89a.53.53,0,0,1,.52.8l-21,45.76A.72.72,0,0,1,304,544.63Z"/><path d="M340.25,544.63h-9.89a.62.62,0,0,1-.66-.66v-45.7a.63.63,0,0,1,.66-.66h9.89a.63.63,0,0,1,.67.66V544A.63.63,0,0,1,340.25,544.63Z"/><path d="M368.29,544.63H351.47a.62.62,0,0,1-.65-.66v-45.7a.62.62,0,0,1,.65-.66h16.82c13.58,0,24.46,10.09,24.46,23.55S381.87,544.63,368.29,544.63Zm.66-37.12h-6.27a.62.62,0,0,0-.66.65v26a.62.62,0,0,0,.66.66H369c6,0,12.59-5.14,12.59-13.64S375,507.51,369,507.51Z"/><path d="M414.6,497.61h4.49a.81.81,0,0,1,.79.46l20.9,45.77c.2.46,0,.79-.46.79h-9.43a.79.79,0,0,1-.79-.46l-3-6.27a.72.72,0,0,0-.72-.46H407.22a.81.81,0,0,0-.79.46l-3,6.27a.71.71,0,0,1-.72.46H393.3c-.46,0-.65-.33-.46-.79l21-45.77A.81.81,0,0,1,414.6,497.61Zm-2.77,29.94h10c.46,0,.66-.33.46-.79l-4.94-11.14a.48.48,0,0,0-.93,0l-5,11.14C411.18,527.22,411.37,527.55,411.83,527.55Z"/><path d="M464.29,544.63H447.47a.62.62,0,0,1-.66-.66v-45.7a.63.63,0,0,1,.66-.66h16.82c13.58,0,24.46,10.09,24.46,23.55S477.87,544.63,464.29,544.63Zm.65-37.12h-6.26a.62.62,0,0,0-.66.65v26a.62.62,0,0,0,.66.66h6.26c6,0,12.6-5.14,12.6-13.64S470.94,507.51,464.94,507.51Z"/><path d="M530.52,517.26v8.58a.62.62,0,0,1-.66.66h-8.31a.62.62,0,0,0-.66.65v9a.62.62,0,0,1-.66.66h-9.89a.62.62,0,0,1-.66-.66v-9a.62.62,0,0,0-.66-.65h-8.38a.62.62,0,0,1-.65-.66v-8.58a.62.62,0,0,1,.65-.66H509a.62.62,0,0,0,.66-.65v-9a.62.62,0,0,1,.66-.66h9.89a.62.62,0,0,1,.66.66v9a.62.62,0,0,0,.66.65h8.31A.63.63,0,0,1,530.52,517.26Z"/><path d="M558.56,544.63H541.75a.62.62,0,0,1-.66-.66v-45.7a.62.62,0,0,1,.66-.66h16.81c13.59,0,24.47,10.09,24.47,23.55S572.15,544.63,558.56,544.63Zm.66-37.12H553a.62.62,0,0,0-.66.65v26a.62.62,0,0,0,.66.66h6.26c6,0,12.6-5.14,12.6-13.64S565.22,507.51,559.22,507.51Z"/><path d="M598.88,544.63H589a.62.62,0,0,1-.66-.66v-45.7a.62.62,0,0,1,.66-.66h9.89a.63.63,0,0,1,.66.66V544A.62.62,0,0,1,598.88,544.63Z"/><path d="M606.8,530.32c0-.46-.06-.86.73-1l9.16-1.18c.53-.07.93-.07.93.46,0,4.68,4.28,6.33,8.11,6.33s6.26-1.46,6.26-4c0-3.63-5.6-4.16-13.19-6.73-7.18-2.44-10.81-6.53-10.81-13.58,0-8.84,7.32-13.19,16.16-13.19s16.61,4.41,16.61,13.71c0,.4-.26.6-.66.66L630.93,513c-.46.06-.72-.14-.72-.66,0-3.5-3-5-6.4-5-2.17,0-4.61.92-4.61,3.56s3,3.62,8.57,5.21c12.4,3.49,15.43,9,15.43,15.49,0,8.24-7.05,13.26-17.34,13.26C616.63,544.83,606.8,541.4,606.8,530.32Z"/><path d="M680.08,535.4V544a.62.62,0,0,1-.66.66H650.47a.62.62,0,0,1-.66-.66v-45.7a.63.63,0,0,1,.66-.66h28.29a.62.62,0,0,1,.66.66v8.58a.62.62,0,0,1-.66.66H661.68a.62.62,0,0,0-.66.65v7.72a.62.62,0,0,0,.66.66H674a.62.62,0,0,1,.66.66v8.57a.62.62,0,0,1-.66.66H661.68a.63.63,0,0,0-.66.66v7a.62.62,0,0,0,.66.66h17.74A.62.62,0,0,1,680.08,535.4Z"/><path d="M725.87,544.63h-6.33a.93.93,0,0,1-.79-.4l-20-24.46c-.39-.53-.79-.26-.79.33V544a.62.62,0,0,1-.66.66h-9.89a.62.62,0,0,1-.66-.66v-45.7a.62.62,0,0,1,.66-.66h6.33a1,1,0,0,1,.79.4l20,24.47c.39.52.79.26.79-.34V498.27a.62.62,0,0,1,.66-.66h9.89a.63.63,0,0,1,.66.66V544A.62.62,0,0,1,725.87,544.63Zm-24.53-55.12a4.67,4.67,0,0,0-4.09,2.7.55.55,0,0,1-.66.33L693,491.48a.46.46,0,0,1-.39-.59c.66-2.44,2.5-9.63,8.77-9.63,5,0,6.59,4.42,9.95,4.42a3.93,3.93,0,0,0,4.1-2.64.51.51,0,0,1,.65-.39l3.57,1.05a.59.59,0,0,1,.46.8c-.66,2.56-2.31,9.42-8.78,9.42C706,493.92,704.7,489.51,701.34,489.51Z"/><path d="M780.56,521.09c0,13.59-10.09,23.74-23.67,23.74s-23.74-10.15-23.74-23.74,10.15-23.67,23.74-23.67S780.56,507.51,780.56,521.09Zm-36.2,0c0,9.37,6.2,13.85,12.53,13.85s12.46-4.48,12.46-13.85-6.13-13.78-12.46-13.78S744.36,511.73,744.36,521.09Z"/><path d="M823,517.26v8.58a.62.62,0,0,1-.66.66H814a.62.62,0,0,0-.66.65v9a.62.62,0,0,1-.66.66h-9.89a.62.62,0,0,1-.66-.66v-9a.62.62,0,0,0-.66-.65h-8.37a.62.62,0,0,1-.66-.66v-8.58a.62.62,0,0,1,.66-.66h8.37a.62.62,0,0,0,.66-.65v-9a.62.62,0,0,1,.66-.66h9.89a.62.62,0,0,1,.66.66v9a.62.62,0,0,0,.66.65h8.31A.62.62,0,0,1,823,517.26Z"/><path d="M843.46,544.63h-9.9a.62.62,0,0,1-.66-.66v-45.7a.63.63,0,0,1,.66-.66h9.9a.62.62,0,0,1,.65.66V544A.62.62,0,0,1,843.46,544.63Z"/><path d="M891.86,544.63h-6.33a.93.93,0,0,1-.79-.4l-20-24.46c-.4-.53-.8-.26-.8.33V544a.62.62,0,0,1-.66.66h-9.89a.62.62,0,0,1-.66-.66v-45.7a.62.62,0,0,1,.66-.66h6.33a1,1,0,0,1,.8.4l20,24.47c.4.52.79.26.79-.34V498.27a.63.63,0,0,1,.66-.66h9.89a.62.62,0,0,1,.66.66V544A.62.62,0,0,1,891.86,544.63Z"/><path d="M941.61,544.63h-6.33a.93.93,0,0,1-.79-.4l-20-24.46c-.4-.53-.8-.26-.8.33V544a.62.62,0,0,1-.66.66H903.1a.62.62,0,0,1-.66-.66v-45.7a.62.62,0,0,1,.66-.66h6.33a1,1,0,0,1,.8.4l20,24.47c.4.52.79.26.79-.34V498.27a.63.63,0,0,1,.66-.66h9.89a.62.62,0,0,1,.66.66V544A.62.62,0,0,1,941.61,544.63Z"/><path d="M996.3,521.09c0,13.59-10.09,23.74-23.67,23.74s-23.75-10.15-23.75-23.74,10.16-23.67,23.75-23.67S996.3,507.51,996.3,521.09Zm-36.21,0c0,9.37,6.21,13.85,12.54,13.85s12.46-4.48,12.46-13.85-6.13-13.78-12.46-13.78S960.09,511.73,960.09,521.09Z"/><path d="M1022.7,544.63h-4.62a.87.87,0,0,1-.79-.53l-20.9-45.69a.53.53,0,0,1,.53-.8h9.89c.33,0,.53.14.73.53l12.39,28.62c.27.53.66.53.92,0l12.4-28.62c.2-.39.4-.53.72-.53h9.89a.54.54,0,0,1,.54.8l-21,45.76A.7.7,0,0,1,1022.7,544.63Z"/><path d="M1057.74,497.61h4.48a.81.81,0,0,1,.79.46l20.91,45.77c.19.46,0,.79-.46.79H1074a.8.8,0,0,1-.79-.46l-3-6.27a.72.72,0,0,0-.72-.46h-19.19a.81.81,0,0,0-.79.46l-3,6.27a.7.7,0,0,1-.72.46h-9.43c-.46,0-.66-.33-.46-.79l21-45.77A.81.81,0,0,1,1057.74,497.61ZM1055,527.55h10c.46,0,.65-.33.46-.79l-5-11.14a.48.48,0,0,0-.92,0l-5,11.14C1054.31,527.22,1054.51,527.55,1055,527.55Z"/><path d="M1118.23,527.75l9.17,1.19c.52.06.46.59.39.92-1.59,8.57-10,15-20,15-13.65,0-23.09-10.81-23.09-23.81s9.44-23.6,23.09-23.6c10,0,18.33,6.39,20,15,.07.34.13.86-.39.93l-9.17,1.18a.71.71,0,0,1-.92-.39,10.29,10.29,0,0,0-10-6.79c-5.67,0-11.41,4.35-11.41,13.71s5.74,13.92,11.41,13.92a10.29,10.29,0,0,0,10-6.79A.73.73,0,0,1,1118.23,527.75Z"/><path d="M1147,544.63h-9.89a.62.62,0,0,1-.65-.66v-45.7a.62.62,0,0,1,.65-.66H1147a.63.63,0,0,1,.67.66V544A.63.63,0,0,1,1147,544.63Z"/><path d="M1201,521.09c0,13.59-10.09,23.74-23.67,23.74s-23.74-10.15-23.74-23.74,10.16-23.67,23.74-23.67S1201,507.51,1201,521.09Zm-36.2,0c0,9.37,6.2,13.85,12.53,13.85s12.46-4.48,12.46-13.85-6.13-13.78-12.46-13.78S1164.82,511.73,1164.82,521.09Zm15.56-38.58h8.38c.52,0,.72.4.39.79l-6.66,9.1a.78.78,0,0,1-.79.4h-6.46c-.46,0-.79-.33-.53-.79l4.88-9A.8.8,0,0,1,1180.38,482.51Z"/><path d="M1246.15,544.63h-6.33a.93.93,0,0,1-.79-.4l-20-24.46c-.39-.53-.79-.26-.79.33V544a.62.62,0,0,1-.66.66h-9.89a.62.62,0,0,1-.66-.66v-45.7a.63.63,0,0,1,.66-.66H1214a.93.93,0,0,1,.79.4l20,24.47c.4.52.79.26.79-.34V498.27a.62.62,0,0,1,.66-.66h9.89a.62.62,0,0,1,.66.66V544A.62.62,0,0,1,1246.15,544.63Z"/></g></g></svg>
