<svg xmlns="http://www.w3.org/2000/svg" viewBox="0 0 1377 757.8"><title>Recurso 2</title><g id="Capa_2" data-name="Capa 2"><g id="Capa_3" data-name="Capa 3"><path d="M68.39,183.19c15.43-8,33.83-12,54.66-12a127.63,127.63,0,0,1,56.12,13,106,106,0,0,1,13.55,7.91c2.62,2,5.25,4.09,7.85,6.39,25.83,22.91,43.11,57.77,51.75,104.06.34,2.1,1,6.84,1,6.84V450.1c0,11.36,8.93,20.59,19.9,20.59a19.51,19.51,0,0,0,14.07-6,20.88,20.88,0,0,0,5.84-14.55V178.41H331V455.3c-.95,17.27-9.26,30.81-21.57,41.06a56.69,56.69,0,0,1-36.4,13.25c-31.91,0-57.88-26.7-57.88-59.51V314.92a145.23,145.23,0,0,0-5.8-42.26A109,109,0,0,0,192.07,238a84.94,84.94,0,0,0-27.39-23.42c-10.67-5.74-23-8.66-36.46-8.66-15.57,0-29.14,3.09-40.33,9.17a79.78,79.78,0,0,0-27.82,25.1A110,110,0,0,0,44,277.62a172.85,172.85,0,0,0-4.07,46.49c0,16.57,2.3,31.27,6.8,43.77a92.47,92.47,0,0,0,18.72,31.74,79.9,79.9,0,0,0,27.83,19.64A89.39,89.39,0,0,0,128.22,426c13.9,0,26.45-2.85,37.3-8.44a78.76,78.76,0,0,0,27.31-23.09,100.18,100.18,0,0,0,12.37-22.27l1.09-2.7v56q-1.72,1.89-3.48,3.56a109.65,109.65,0,0,1-24,17.37A129.67,129.67,0,0,1,151.9,457a105.43,105.43,0,0,1-27.3,3.74c-22.18,0-41.32-3.77-56.9-11.2A107.27,107.27,0,0,1,29,418.8c-10.09-12.93-17.54-28.42-22.11-46.05A223.8,223.8,0,0,1,0,316.47a202.76,202.76,0,0,1,7.37-54.78A137.21,137.21,0,0,1,30,215.23a112.65,112.65,0,0,1,38.43-32M390.9,193.48c-17.1,14.94-25.77,34.37-25.77,57.73,0,18.38,4.56,32.9,13.54,43.16a86.4,86.4,0,0,0,33.14,23.18,205.5,205.5,0,0,0,42.12,11.86A409.69,409.69,0,0,1,495,338.65c12.3,3.49,22.64,8.36,30.73,14.47,7.63,5.76,11.35,14.44,11.35,26.54a40.09,40.09,0,0,1-3.83,17.19,44.65,44.65,0,0,1-11.34,14.68A55.77,55.77,0,0,1,502.63,422c-7.89,2.65-17.45,4-28.44,4-22.62,0-40.14-4.57-52.07-13.56s-20.25-24.73-24.87-46.92l-.57-2.73h-38l.19,3.6a106.14,106.14,0,0,0,8.58,36.91,93,93,0,0,0,21,30.1,95.52,95.52,0,0,0,32.48,20.15c12.57,4.78,27.19,7.21,43.42,7.21a187,187,0,0,0,44.59-5c13.62-3.36,25.58-8.49,35.53-15.26a75.57,75.57,0,0,0,23.84-25.75c5.8-10.31,8.73-22.29,8.73-35.58,0-18-4.55-32.37-13.53-42.64a94.34,94.34,0,0,0-33-23.92,207.5,207.5,0,0,0-42.12-13.43c-14.71-3.08-28.54-6.63-41.13-10.53-12.33-3.84-22.71-8.89-30.82-15-7.61-5.75-11.32-13.94-11.32-25,0-12.86,4.68-22.92,14.28-30.78s24.14-11.93,42.91-11.93c18.92,0,34.75,4.08,47.09,12.15,12,7.81,18.94,21.72,22,41.13,4.78,30.11,17.65,49.22,46.29,58.66a159,159,0,0,1,3.31-38.3c-5.68-5.55-8.6-11-11.26-21.14-8-30.39-15.45-53.78-34.26-67.2-18.64-13.33-43.09-20.06-72.67-20.06-30.75,0-54.95,7.51-71.91,22.32m268.78-10.85a117.21,117.21,0,0,0-39.74,31.47A145.32,145.32,0,0,0,595,260.51a116.66,116.66,0,0,0-4.37,15.94c-2.27,10.11-2.7,13.7-2.7,13.7a133.28,133.28,0,0,0-1.59,23.14s-.06,2.86-.06,3.7a206.52,206.52,0,0,0,7.38,56.1c4.94,17.45,12.64,32.84,22.88,45.72a108.3,108.3,0,0,0,39.55,30.75c15.92,7.42,35,11.19,56.86,11.19,17.21,0,32.59-2.32,45.67-6.91a104.86,104.86,0,0,0,34.25-19.56,113,113,0,0,0,24-29.37,171.12,171.12,0,0,0,15.32-36.19l1.29-4.39H791.62l-.64,2.6c-4.62,18.82-14,33.5-27.73,43.66S732.5,426,713,426c-14.25,0-27-2.76-37.83-8.21A78.32,78.32,0,0,1,648,396a96.53,96.53,0,0,1-16.23-32.53,136.57,136.57,0,0,1-4.9-26,152.72,152.72,0,0,1-.67-38.84,127,127,0,0,1,8.57-36.27,101.39,101.39,0,0,1,17.3-29.06A80.56,80.56,0,0,1,678,213.34c10-4.92,21.79-7.42,35-7.42s25.12,2.42,35.33,7.19a73.55,73.55,0,0,1,25.5,19.3,84.12,84.12,0,0,1,15.44,28.88,115.61,115.61,0,0,1,4.42,20.89c.24,2.19.33,6.28-2,8.89-1.69,1.88-4.51,2.84-8.44,2.84H635.56a130.3,130.3,0,0,0-1.25,32.7H800.16c21.3,0,33.34-1.36,33.34-29.54,0-32.31-10.66-62.25-30.9-86.62C781,184.38,750.8,171.16,713,171.16c-19.77,0-37.7,3.86-53.28,11.47m533.24,0a115.81,115.81,0,0,0-40,30.95c-10.61,12.91-18.58,28.39-23.7,46a202.82,202.82,0,0,0-7.64,56.35L1121,450.1c0,11.36-8.92,20.59-19.9,20.59s-19.9-9.23-19.9-20.61l-.28-50.78V274.52a275.17,275.17,0,0,0-1.84-32.25c-1.26-10.69-5.39-21.22-12.23-31.3-10-14.66-22.56-25.11-37.27-31a126.43,126.43,0,0,0-47.37-8.79c-19.2,0-35.93,4.35-49.71,13a193.73,193.73,0,0,0-33.38,26.66V178.41H861.22V453.5h37.89V305.59c0-9.24.35-17.86,1-25.6a95.81,95.81,0,0,1,5.54-24,73.21,73.21,0,0,1,9.9-18.81,74.37,74.37,0,0,1,15.6-15.86,80.08,80.08,0,0,1,20.62-11.17,72.63,72.63,0,0,1,25.24-4.2c23.71,0,40.82,5.72,50.81,17S1043,251.84,1043,275V450.1c0,32.81,26,59.51,57.91,59.51,31.67,0,57.48-26.29,57.85-58.77V323c0-43,11.14-74.86,33-94.93a80.29,80.29,0,0,1,17.44-13c11-6.07,24.49-9.16,40.06-9.16s29,3.09,40,9.16a78.69,78.69,0,0,1,27.08,24.33A108.79,108.79,0,0,1,1332,274.58c.5,2,2.09,9.76,2.09,9.76a184.33,184.33,0,0,1,3,31.61,165.71,165.71,0,0,1-5.07,41.11,112,112,0,0,1-15.57,35.2,77.44,77.44,0,0,1-27.07,24.56c-11,6.08-24.46,9.17-40,9.17s-29-3.09-40.06-9.17a77.6,77.6,0,0,1-27-24.56c-6.56-9.65-10.85-20.66-14.22-32.72v72.1a111.48,111.48,0,0,0,28.94,18.73c15.72,6.89,33.35,10.38,52.38,10.38s36.67-3.49,52.38-10.38a114.33,114.33,0,0,0,40.56-29.63c11.1-12.69,19.79-28.06,25.79-45.68s9-37.43,9-59.11a203,203,0,0,0-7.64-56.38c-5.12-17.61-13.09-33.09-23.69-46a116,116,0,0,0-40-30.95c-15.94-7.62-34.9-11.46-56.38-11.46s-40.43,3.84-56.37,11.46M215.18,73.78V201.31c14.89,16.1,28.68,38.53,38.16,69.73V73.78Zm78,30.35H331V73.79H293.15Zm568.07,0h219.69V73.79H861.22Zm-481.22,0V58.37h39.85v45.76h21.28V1.62H419.85V40.7H380V1.62H358.72V104.13Zm154.34-10q15.12-14.31,15.11-41.23,0-27.43-15.11-41.22Q523,0,501.6,0T468.85,11.65q-15.18,13.77-15.19,41.22,0,26.94,15.19,41.23,11.31,11.66,32.75,11.66T534.34,94.1M521.29,78.9Q514,88.07,501.6,88.06T481.8,78.9q-7.4-9.14-7.38-26t7.38-26q7.38-9.15,19.8-9.15t19.69,9.19q7.28,9.18,7.28,26t-7.28,26M596,46.27,574.7,1.62H549.45l35.48,64.07v38.44h21.41V65.69l34.3-64.07H616.35Zm156.95,57.86V95.89H693V55.16h52.81V46.9H693v-37h58.51V1.62h-68.2V104.13Zm7.5-31a34.31,34.31,0,0,0,2.73,14.31,28,28,0,0,0,7.59,10.17,32,32,0,0,0,11.57,6.16,50.35,50.35,0,0,0,14.52,2q17.45,0,27.07-7.68t9.63-21.62a26.52,26.52,0,0,0-2.44-12.07,22.63,22.63,0,0,0-6.48-7.88,33.21,33.21,0,0,0-9.28-4.89,111.93,111.93,0,0,0-10.82-3.14c-3.72-.88-7.38-1.73-11-2.51a54.89,54.89,0,0,1-9.84-3.08,24,24,0,0,1-7.53-4.81,13.64,13.64,0,0,1-3.93-7.81,17.48,17.48,0,0,1,4.47-14.92,21.55,21.55,0,0,1,7.9-5.25,32.42,32.42,0,0,1,12.2-2A34.17,34.17,0,0,1,806,9.33a23.7,23.7,0,0,1,8,3.92,18.48,18.48,0,0,1,5.5,6.84,22.39,22.39,0,0,1,2,9.91h9.06a32.25,32.25,0,0,0-2.08-11.59,27,27,0,0,0-6.29-9.57,29.8,29.8,0,0,0-10.54-6.48A42.67,42.67,0,0,0,796.83,0,45,45,0,0,0,782,2.23a31.39,31.39,0,0,0-10.66,6A24.78,24.78,0,0,0,765,16.88a24.24,24.24,0,0,0-2.17,10,25.26,25.26,0,0,0,2.65,12.21A23.84,23.84,0,0,0,772.34,47a35.08,35.08,0,0,0,9.77,4.89q5.5,1.82,11.3,3.14t11.32,2.71a43.1,43.1,0,0,1,9.76,3.71,20.64,20.64,0,0,1,6.91,5.91A16,16,0,0,1,824,76.88a21.5,21.5,0,0,1-1.47,8A17.62,17.62,0,0,1,818,91.45,21.76,21.76,0,0,1,810.09,96a35.7,35.7,0,0,1-11.58,1.67,42.24,42.24,0,0,1-10.76-1.32,24.87,24.87,0,0,1-8.84-4.25,23,23,0,0,1-6.29-7.6,30,30,0,0,1-3-11.39Z"/><polygon points="592.21 472.8 399.52 472.8 388.03 514.61 424.68 514.61 357.87 757.8 403.25 757.8 470.07 514.61 580.72 514.61 592.21 472.8"/><polygon points="533.88 527.8 470.69 757.8 513.92 757.8 577.12 527.8 533.88 527.8"/><path d="M1039.39,472.83l-165.93,0L833.82,609,830,473.55l.06-.75H781l.06,1.48-66.22,241H613.27l23.37-85h58.21L706,589.49h-58.2L668.31,515H729l11.58-42.16H633.43l-78.3,285h192l39.2-142.68L793,757.38l0,.42h45.43l67-244H1011c7.14,0,11.66,1.12,15,3a15.89,15.89,0,0,1,8,11c.69,4.15-.45,9.73-2.55,17.39L988.79,696.42c-4.15,15.11-16,24.13-31.72,24.13h-19l54-192.75H945.29l-63.19,230h74.79c22.28,0,39.31-6.22,52.05-19,13.43-13.48,24-34.43,31.43-62.26l38-140.89a109.42,109.42,0,0,0,3.68-21.37A66.41,66.41,0,0,1,1039.39,472.83Z"/><path d="M1158.35,472.8l-91.21,244h-29.57a103.75,103.75,0,0,1-18.08,25.5,65.49,65.49,0,0,1-24.29,15.5h99.94l17-48.71h44.54l-9.08,48.71h42l50.41-285Zm3.85,204.29h-37.82L1183.56,508h10Z"/></g></g></svg>
