<?xml version="1.0" encoding="utf-8"?>
<!-- Generator: Adobe Illustrator 22.0.1, SVG Export Plug-In . SVG Version: 6.00 Build 0)  -->
<svg version="1.1" id="Capa_1" xmlns="http://www.w3.org/2000/svg" xmlns:xlink="http://www.w3.org/1999/xlink" x="0px" y="0px"
	 viewBox="0 0 120.6 121.1" style="enable-background:new 0 0 120.6 121.1;" xml:space="preserve">
<style type="text/css">
	.st0{fill:#222222;}
</style>
<g id="ihEpww.tif">
	<g>
		<g>
			<path class="st0" d="M60,0.9C67,0.7,74.1,1,81.1,1.1c6,0.1,11.9,0.6,17.5,2.7c11.3,4.4,17.7,12.9,19.9,24.6c0.7,3.5,0.9,7,1,10.5
				c0.4,11.2,0.4,22.4,0.2,33.6c-0.1,6.2,0,12.4-0.9,18.6c-1.6,10.6-6.6,19-16.2,24.3c-4.3,2.4-9,3.6-13.9,4.1
				c-4.8,0.5-9.5,0.4-14.3,0.6c-8.5,0.3-17,0.2-25.5,0.1c-6.5-0.1-13,0.1-19.5-0.9c-10.6-1.6-19-6.6-24.2-16.1
				c-2.4-4.4-3.6-9.1-4.1-14C0.5,84.4,0.6,79.7,0.4,75c-0.3-8.5-0.2-17-0.1-25.5c0.1-6.5,0-13,0.9-19.5C3.3,14.6,14,3.9,29.5,1.8
				c3.4-0.5,6.7-0.7,10.1-0.7C46.4,0.9,53.2,0.7,60,0.9z M59.9,12.1L59.9,12.1C54.5,12,49,12,43.6,12c-3.9,0-7.7,0.1-11.6,0.6
				c-6,0.7-11.3,2.8-15.2,7.6c-3.5,4.2-4.6,9.3-5,14.5c-0.5,6.5-0.3,13-0.5,19.5c-0.1,7.6,0.1,15.1,0.2,22.7c0,3.9,0.1,7.7,0.6,11.6
				c0.7,6,2.8,11.3,7.6,15.2c4.2,3.4,9.3,4.5,14.6,5c6.4,0.5,12.8,0.3,19.1,0.5c7.6,0.2,15.1-0.1,22.7-0.1c4,0,7.9-0.1,11.8-0.6
				c6-0.7,11.3-2.8,15.2-7.6c3.5-4.2,4.6-9.3,5-14.5c0.5-7.1,0.4-14.2,0.5-21.4c0.1-6.7-0.1-13.4-0.2-20.1c-0.1-5.2,0-10.4-1.1-15.4
				c-1.8-8.5-6.9-13.9-15.4-16.1c-3.6-0.9-7.3-1.1-11-1.2C74,12.1,67,12.1,59.9,12.1z"/>
			<path class="st0" d="M90.8,60.6c-0.3,17.1-13.6,30.7-30.9,30.7c-17.3-0.1-30.7-13.8-30.7-30.8C29.3,43.2,43,29.8,60,29.8
				C77.1,29.8,90.6,43.4,90.8,60.6z M60.1,40.9C49,41.1,40.4,49.4,40.4,60.6c0,11.1,8.6,19.6,19.6,19.6c11.1,0,19.6-8.6,19.6-19.6
				S71.2,41.3,60.1,40.9z"/>
			<path class="st0" d="M91.9,36.1c-4,0-7.4-3.2-7.4-7.2c-0.1-4.1,3.2-7.4,7.3-7.5c3.9-0.1,7.3,3.3,7.4,7.3
				C99.2,32.7,95.8,36.1,91.9,36.1z"/>
		</g>
	</g>
</g>
</svg>
