<?xml version="1.0" encoding="utf-8"?>
<!-- Generator: Adobe Illustrator 22.1.0, SVG Export Plug-In . SVG Version: 6.00 Build 0)  -->
<svg version="1.1" id="Capa_1" xmlns="http://www.w3.org/2000/svg" xmlns:xlink="http://www.w3.org/1999/xlink" x="0px" y="0px"
	 viewBox="0 0 236.2 254" style="enable-background:new 0 0 236.2 254;" xml:space="preserve">
<style type="text/css">
	.st0{fill:#FFFFFF;}
</style>
<title>Recurso 1</title>
<g id="Capa_2_1_">
	<g id="Capa_1-2">
		<path class="st0" d="M0,0v254h236.2V0H0z M226.8,244.7H9.3V9.3h217.5V244.7z"/>
		<path class="st0" d="M118.1,18.6C99.8,18.6,85,33.5,85,51.8s14.8,33.1,33.1,33.1s33.1-14.8,33.1-33.1l0,0
			C151.2,33.5,136.4,18.6,118.1,18.6z M118.1,76c-13.4,0-24.2-10.8-24.2-24.2s10.8-24.2,24.2-24.2s24.2,10.8,24.2,24.2l0,0
			C142.3,65.2,131.5,76,118.1,76L118.1,76z"/>
		<path class="st0" d="M164.8,85L164.8,85c-2.6-0.1-4.7-2.2-4.6-4.8V18.7h24.3c8.1,0,14.2,1.7,18.2,5.2s6,8.9,6,16.4v39.9
			c0.1,2.6-2,4.8-4.6,4.8l0,0c-2.6-0.1-4.7-2.2-4.6-4.8V39c0-4.2-1.4-7.3-4.1-9.2c-2.7-1.9-6.3-2.9-10.8-2.9h-15.2v53.3
			C169.5,82.8,167.4,84.9,164.8,85L164.8,85z"/>
		<path class="st0" d="M118.1,169.1c-18.3,0-33.1,14.8-33.1,33.1s14.8,33.1,33.1,33.1s33.1-14.8,33.1-33.1
			C151.3,183.9,136.4,169.1,118.1,169.1L118.1,169.1z M118.1,226.4c-13.4,0-24.2-10.8-24.2-24.2s10.8-24.2,24.2-24.2
			s24.2,10.8,24.2,24.2l0,0C142.3,215.6,131.5,226.4,118.1,226.4z"/>
		<path class="st0" d="M95.2,169.1H31.5c-2.3,0-4.1,1.8-4.1,4.1s1.8,4.1,4.1,4.1h16.2v53.3c-0.1,2.6,2,4.8,4.6,4.8l0,0
			c2.6-0.1,4.7-2.2,4.6-4.8v-53.3h28c0.5-0.6,1.1-1.2,1.7-1.8C89.2,173,92.1,170.8,95.2,169.1z"/>
		<path class="st0" d="M207.4,209.6c-0.7-2-1.9-3.9-3.5-5.4c-1.4-1.3-3-2.4-4.7-3.4c-1.8-1-3.7-1.8-5.7-2.5c-4.9-1.8-7.8-2.1-10.7-4
			s-5-5.4-5-8.2c0-5.2,2.8-8.2,9.4-8.2h17.1c2.3-0.2,4-2.2,3.9-4.5c-0.1-2.1-1.8-3.7-3.9-3.9h-17.7c-5.7,0-8.3,1.3-11.8,3.9
			s-5.3,6.6-5.3,11.9c0,8.6,3.1,14.8,13.4,18.6c0.3,0.1,5.4,2,6.9,2.7c1.6,0.7,3.1,1.5,4.5,2.5c1.5,0.9,5.5,4.1,5.5,8.1
			c0,3.5-2.4,5.8-5.1,7.6s-6.4,2.7-10.8,2.7h-31.6c-2.8,3.3-6.1,6.2-9.9,8.3h41.8c1.7,0,3,0,3.9-0.1c2.2-0.1,4.5-0.5,6.6-1.2
			c2.3-0.8,4.6-1.8,6.6-3.2c2.2-1.5,4-3.5,5.3-5.9c1.4-2.6,2.1-5.5,2-8.5C208.6,214.5,208.2,212,207.4,209.6z"/>
		<path class="st0" d="M85,76H51.8c-0.6,0-1.1,0-1.7-0.1C36.7,75,26.6,63.4,27.6,50.1s12.5-23.4,25.9-22.5c2.4,0.2,4.7,0.7,7,1.5
			c2.3,0.9,4.9-0.3,5.8-2.6s-0.3-4.9-2.6-5.8c-4.2-1.6-8.7-2.4-13.2-2.2C33.7,19.3,19,34.1,18.6,51c-0.4,18.3,14,33.5,32.3,33.9
			c0.3,0,0.5,0,0.8,0H96C91.8,82.7,88.1,79.6,85,76z"/>
		<path class="st0" d="M151.5,160.1H94.1v-50.7c-0.1-4.2,1.6-8.3,4.9-11.1c2.1-1.8,4.6-3.1,7.4-3.6c3.3-0.6,6.6-0.9,10-0.8h14.1
			c2.5,0,4.5,2,4.5,4.5l0,0c0,2.5-2,4.5-4.5,4.5l0,0h-15.4c-7.5,0-11.3,2.9-11.3,8.6V123h19.4c2.3,0,4.1,1.8,4.1,4.1l0,0
			c0,2.3-1.8,4.1-4.1,4.1l0,0h-19.4v20.1h47.7V160.1z"/>
		<path class="st0" d="M51.8,151.2c-0.6,0-1.1,0-1.7-0.1c-13.4-0.9-23.4-12.5-22.5-25.9s12.5-23.4,25.9-22.5c2.4,0.2,4.7,0.7,7,1.5
			c2.3,0.9,4.9-0.3,5.8-2.6c0.9-2.3-0.3-4.9-2.6-5.8c-4.2-1.6-8.7-2.4-13.2-2.2c-16.8,0.6-31.4,15.5-31.8,32.3
			c-0.4,18.3,14,33.5,32.3,33.9c0.3,0,0.5,0,0.8,0H85v-8.9L51.8,151.2z"/>
		<path class="st0" d="M186.1,93.9c-13.3-0.9-24.9,9.1-25.9,22.4c0,0.6-0.1,1.1-0.1,1.7l0,0v42.1h8.9v-41.6
			c-0.1-8.4,6.6-15.4,15-15.7c8.4-0.2,15.4,6.5,15.6,15c0.2,8.1-6,14.9-14.1,15.5c-1.9,0.2-3.8,0-5.6-0.6c-2-0.6-4.2,0.2-5.3,2l0,0
			c-1.2,2.1-0.5,4.9,1.6,6.1c0.3,0.2,0.6,0.3,0.9,0.4c12.8,3.9,26.3-3.4,30.2-16.1c0.9-2.8,1.2-5.8,1-8.7
			C207.6,104.3,198.1,94.8,186.1,93.9z"/>
	</g>
</g>
</svg>
