<?xml version="1.0" encoding="utf-8"?>
<!-- Generator: Adobe Illustrator 22.0.1, SVG Export Plug-In . SVG Version: 6.00 Build 0)  -->
<svg version="1.1" id="Capa_1" xmlns="http://www.w3.org/2000/svg" xmlns:xlink="http://www.w3.org/1999/xlink" x="0px" y="0px"
	 viewBox="0 0 120.6 121.1" style="enable-background:new 0 0 120.6 121.1;" xml:space="preserve">
<style type="text/css">
	.st0{fill:#222222;}
</style>
<g id="_x33_2Vhzf.tif">
	<g>
		<g>
			<path class="st0" d="M0.8,76.1c0-10.5,0-21,0-31.6c0.6-3.7,0.9-7.5,1.6-11.3c1.6-7.5,6.9-12.3,14.5-13c9-0.8,18.1-1.4,27.1-1.4
				c19.6,0,39.1-0.5,58.7,1.3c7.7,0.7,13.1,5,14.9,12.4c0.8,3.5,1.3,7,1.5,10.6c0.7,10.2,0.4,20.4,0.2,30.7c-0.1,5-0.6,10-2,14.9
				c-1.8,6.4-6,10.4-12.6,11.4c-8.1,1.2-16.3,1.4-24.5,1.6c-10.3,0.2-20.7,0.1-31,0.1c-10.8,0-21.6-0.4-32.4-1.5
				C9.3,99.6,4,94.9,2.4,87.3C1.6,83.6,1.4,79.8,0.8,76.1z M45,59c0,5.6,0,11.1,0,16.7c0,2.5,0.1,2.6,2.3,1.5
				c11-5.7,21.9-11.3,32.8-17c0.4-0.2,1.1-0.3,1.2-0.9c0-0.6-0.7-0.7-1.1-1C69.1,52.4,58,46.6,46.9,40.8C45.3,40,45,40.1,45,42
				C45,47.7,45,53.3,45,59z"/>
		</g>
	</g>
</g>
</svg>
