<?xml version="1.0" encoding="utf-8"?>
<!-- Generator: Adobe Illustrator 22.0.1, SVG Export Plug-In . SVG Version: 6.00 Build 0)  -->
<svg version="1.1" id="Capa_1" xmlns="http://www.w3.org/2000/svg" xmlns:xlink="http://www.w3.org/1999/xlink" x="0px" y="0px"
	 viewBox="0 0 120.6 121.1" style="enable-background:new 0 0 120.6 121.1;" xml:space="preserve">
<style type="text/css">
	.st0{fill:#222222;}
	.st1{display:none;}
	.st2{display:inline;}
</style>
<g id="Yqt3Bv.tif">
	<g>
		<g>
			<path class="st0" d="M0.8,103c0-28.3,0-56.5,0-84.8c0-0.2,0.1-0.3,0.1-0.5c1.2-5.9,4.4-10.5,9.3-13.8c2.4-1.6,5.1-2.5,7.9-3.1
				c28.3,0,56.5,0,84.8,0c0.7,0.2,1.4,0.3,2.1,0.5c4.9,1.4,8.8,4.2,11.7,8.3c2.3,3.2,3.7,6.8,3.7,10.8c0,26.8,0,53.7,0,80.5
				c0,0.7,0,1.3-0.1,2c-0.6,4.2-2.4,7.8-5.2,10.8c-4,4.3-8.8,6.8-14.7,6.8c-6.6,0-13.2,0-19.9,0c-1.5,0-1.5,0-1.5-1.5
				c0-14.1,0-28.3,0-42.4c0-1.5,0-1.5,1.5-1.5c5.7,0,11.3,0,17,0c1.3,0,1.4,0,1.4-1.4c0-5.5,0-11.1,0-16.6c0-1.6,0-1.6-1.6-1.6
				c-5.7,0-11.3,0-17,0c-1.2,0-1.3-0.1-1.3-1.3c0-2.2,0-4.3,0-6.5c0-0.9,0.1-1.7,0.4-2.5c0.6-2.1,2.2-3.3,4.4-3.3
				c4.6,0,9.2,0,13.8,0c1.2,0,1.3-0.1,1.3-1.3c0-5.7,0-11.3,0-17c0-1.2-0.1-1.3-1.3-1.3c-4.8,0-9.5,0-14.3,0c-3.1,0-6.2,0.5-8.9,2.1
				c-8.5,4.6-12.7,12-13.6,21.4c-0.3,2.7-0.1,5.5-0.1,8.2c0,1.5,0,1.5-1.5,1.5c-3.9,0-7.8,0-11.7,0c-1.3,0-1.3,0.1-1.3,1.3
				c0,5.7,0,11.4,0,17.1c0,1.2,0.1,1.2,1.3,1.2c3.9,0,7.9,0,11.8,0c1.4,0,1.4,0,1.4,1.4c0,14.2,0,28.3,0,42.5c0,1.5,0,1.5-1.5,1.5
				c-12.6,0-25.3,0-37.9,0c-2.5,0-4.9-0.3-7.2-1.2c-3.7-1.5-6.8-3.8-9.2-7C2.7,109.5,1.4,106.4,0.8,103z"/>
		</g>
	</g>
</g>
<g id="ihEpww.tif" class="st1">
	<g class="st2">
		<g>
			<path d="M60.9,0.5C67.9,0.3,75,0.6,82,0.7c6,0.2,11.9,0.6,17.5,2.8c11.4,4.4,17.7,12.9,20,24.7c0.7,3.5,0.9,7,1,10.5
				c0.4,11.2,0.4,22.5,0.2,33.7c-0.1,6.2,0,12.5-0.9,18.6c-1.6,10.6-6.6,19.1-16.2,24.4c-4.3,2.4-9.1,3.6-14,4.1
				c-4.8,0.5-9.6,0.4-14.4,0.6c-8.5,0.3-17.1,0.2-25.6,0.1c-6.5-0.1-13.1,0.1-19.6-0.9c-10.6-1.6-19-6.6-24.3-16.2
				c-2.4-4.3-3.6-9.1-4.1-14C1.1,84.3,1.2,79.6,1,74.8c-0.2-8.5-0.2-17.1,0-25.6c0.1-6.5,0-13,0.9-19.4C4,14.3,14.7,3.6,30.2,1.5
				C33.6,1,37,0.8,40.4,0.8C47.2,0.6,54,0.3,60.9,0.5z M60.8,11.8L60.8,11.8c-5.4-0.1-10.9-0.1-16.3-0.1c-3.9,0-7.8,0.1-11.6,0.6
				c-6,0.7-11.3,2.8-15.3,7.6c-3.5,4.2-4.6,9.3-5,14.6C12,41,12.2,47.6,12,54.1c-0.1,7.6,0.1,15.2,0.2,22.7c0,3.9,0.1,7.8,0.6,11.6
				c0.7,6,2.8,11.3,7.6,15.2c4.3,3.5,9.3,4.5,14.6,5c6.4,0.5,12.8,0.3,19.2,0.5c7.6,0.2,15.2-0.1,22.7-0.1c4,0,7.9-0.1,11.9-0.6
				c6-0.7,11.3-2.8,15.3-7.6c3.5-4.2,4.6-9.3,5-14.6c0.5-7.1,0.4-14.3,0.5-21.4c0.1-6.7-0.1-13.4-0.2-20.1c-0.1-5.2,0-10.4-1.1-15.5
				c-1.8-8.5-6.9-13.9-15.4-16.2c-3.6-0.9-7.3-1.1-11-1.2C74.9,11.7,67.8,11.8,60.8,11.8z"/>
			<path d="M91.7,60.4c-0.3,17.2-13.6,30.8-31,30.8S29.9,77.4,30,60.3C30.1,43,43.8,29.6,60.8,29.6C78,29.6,91.5,43.1,91.7,60.4z
				 M60.9,40.6c-11.2,0.3-19.8,8.6-19.8,19.8c0,11.1,8.6,19.7,19.7,19.7s19.7-8.6,19.7-19.7C80.5,49.4,72,41,60.9,40.6z"/>
			<path d="M92.8,35.9c-4.1,0-7.4-3.2-7.4-7.2c-0.1-4.1,3.2-7.4,7.3-7.5c3.9-0.1,7.3,3.3,7.4,7.3C100.1,32.4,96.8,35.9,92.8,35.9z"
				/>
		</g>
	</g>
</g>
<g id="_x33_2Vhzf.tif" class="st1">
	<g class="st2">
		<g>
			<path d="M0.8,76.7c0-10.6,0-21.3,0-31.9c0.6-3.8,0.9-7.6,1.7-11.4C4,25.8,9.4,21,17.1,20.2c9.1-0.8,18.2-1.4,27.4-1.4
				c19.8,0,39.5-0.5,59.3,1.4c7.8,0.7,13.3,5.1,15,12.5c0.8,3.5,1.3,7.1,1.5,10.7c0.7,10.3,0.4,20.7,0.2,31
				c-0.1,5.1-0.6,10.2-2,15.1c-1.8,6.4-6,10.5-12.7,11.5c-8.2,1.2-16.5,1.5-24.7,1.6c-10.4,0.2-20.9,0.1-31.3,0.1
				c-10.9,0-21.8-0.4-32.7-1.5C9.3,100.4,4,95.6,2.4,88C1.6,84.3,1.4,80.4,0.8,76.7z M45.5,59.4c0,5.6,0,11.2,0,16.8
				c0,2.5,0.1,2.6,2.3,1.5c11-5.7,22.1-11.4,33.1-17.2c0.5-0.2,1.1-0.3,1.2-1c0-0.6-0.7-0.7-1.1-1C69.8,52.6,58.6,46.8,47.4,41
				c-1.7-0.9-1.9-0.7-1.9,1.2C45.5,48,45.5,53.7,45.5,59.4z"/>
		</g>
	</g>
</g>
</svg>
