<?xml version="1.0" encoding="utf-8"?>
<!-- Generator: Adobe Illustrator 22.1.0, SVG Export Plug-In . SVG Version: 6.00 Build 0)  -->
<svg version="1.1" id="Layer_1" xmlns="http://www.w3.org/2000/svg" xmlns:xlink="http://www.w3.org/1999/xlink" x="0px" y="0px"
	 viewBox="0 0 490 110.2" style="enable-background:new 0 0 490 110.2;" xml:space="preserve">
<g>
	<polygon points="0,0 0,108.8 31.7,108.8 31.7,83.7 45.6,83.7 45.6,25.4 31.7,25.4 31.7,50 19.4,50 19.4,0 	"/>
	<polygon points="78.6,0 78.6,50 66.3,50 66.3,25.4 52.4,25.4 52.4,83.7 66.3,83.7 66.3,108.8 98,108.8 98,0 	"/>
	<polygon points="157.2,10.7 143.2,42.2 139.7,42.2 125.4,10.7 125.4,48.7 121.9,48.7 121.9,2.6 125.4,2.6 141.5,38.1 157.2,2.6
		160.7,2.6 160.7,48.7 157.2,48.7 	"/>
	<g>
		<path d="M189.3,49.1c-9.3,0-15.8-6.3-15.8-15.4V2.6h3.5v30.7c0,7.6,4.9,12.7,12.3,12.7c7.5,0,12.3-5.1,12.3-12.7V2.6h3.5v31.2
			C205.1,42.7,198.6,49.1,189.3,49.1"/>
		<path d="M229.5,49.1c-6.8,0-11.1-1.9-15.4-6.1l2.5-2.5c4.1,4.1,7.6,5.4,13.1,5.4c7.3,0,11.9-3.5,11.9-9.5c0-2.8-0.8-5-2.5-6.5
			c-1.7-1.4-2.8-2-6.7-2.5l-5.4-0.8c-3.5-0.5-6.2-1.6-8.2-3.4c-2.4-2-3.6-4.9-3.6-8.5c0-7.8,5.4-12.6,14.3-12.6
			c5.7,0,9.3,1.6,13.3,5l-2.3,2.3c-2.7-2.6-5.8-4.3-11.2-4.3c-6.7,0-10.7,3.6-10.7,9.5c0,2.7,0.8,4.7,2.4,6c1.6,1.4,4.3,2.4,6.9,2.9
			l5,0.8c4.3,0.6,6.4,1.4,8.2,3c2.5,2.1,4,5.3,4,9C245.1,44.2,239.2,49.1,229.5,49.1"/>
	</g>
	<polygon points="255.2,2.6 283.2,2.6 283.2,5.7 258.7,5.7 258.7,23.9 279.6,23.9 279.6,27 258.7,27 258.7,45.6 283.2,45.6
		283.2,48.7 255.2,48.7 	"/>
	<g>
		<path d="M315.9,8.9c-2.3-2.3-5.4-3.6-8.7-3.6c-3.3,0-6.4,1.2-8.7,3.6c-3.3,3.3-3.6,6.9-3.6,16.8s0.3,13.5,3.6,16.8
			c2.3,2.3,5.4,3.6,8.7,3.6c3.3,0,6.4-1.2,8.7-3.6c3.3-3.3,3.6-6.9,3.6-16.8S319.3,12.2,315.9,8.9 M318.7,44.4
			c-3,3-7.1,4.7-11.5,4.7s-8.5-1.7-11.5-4.7c-4.2-4.2-4.3-8.4-4.3-18.7c0-10.4,0.1-14.5,4.3-18.7c3-3,7.1-4.7,11.5-4.7
			S315.7,4,318.7,7c4.2,4.2,4.3,8.3,4.3,18.7C323,36,322.9,40.2,318.7,44.4"/>
	</g>
	<polygon points="123.7,63.7 123.7,109.8 151.7,109.8 151.7,106.7 127.2,106.7 127.2,63.7 	"/>
	<path d="M172.3,68.3l9.7,27.1h-19.3L172.3,68.3z M170.8,63.7l-17,46.1h3.8l4-11.2h21.5l4,11.2h3.8l-17-46.1H170.8z"/>
	<polygon points="208.8,63.7 208.8,66.8 222.5,66.8 222.5,109.8 226,109.8 226,66.8 239.8,66.8 239.8,63.7 	"/>
	<polygon points="248.1,63.7 248.1,109.8 276.1,109.8 276.1,106.7 251.6,106.7 251.6,88.1 272.5,88.1 272.5,85 251.6,85 251.6,66.8
		276.1,66.8 276.1,63.7 	"/>
	<g>
		<path d="M303.2,66.8h-13.6v18.7h13.6c6,0,10.2-2.9,10.2-9.3C313.3,69.7,309.1,66.8,303.2,66.8 M302.3,88.5h-12.7v21.2h-3.5V63.6
			h17.6c7.5,0,13.2,4.4,13.2,12.4c0,6.9-4.1,11.3-10.6,12.4l11.1,21.3h-4.1L302.3,88.5z"/>
	</g>
	<polygon points="322.7,63.7 322.7,66.8 336.4,66.8 336.4,109.8 339.9,109.8 339.9,66.8 353.7,66.8 353.7,63.7 	"/>
	<g>
		<path d="M377.2,110.2c-9.3,0-15.8-6.4-15.8-15.3V63.7h3.5v30.7c0,7.7,4.9,12.7,12.3,12.7c7.5,0,12.3-5,12.3-12.7V63.7h3.5v31.2
			C393,103.8,386.4,110.2,377.2,110.2"/>
	</g>
	<polygon points="405.8,63.7 405.8,109.8 433.8,109.8 433.8,106.7 409.3,106.7 409.3,63.7 	"/>
	<rect x="442.1" y="63.7" width="3.5" height="46.1"/>
	<path d="M471.5,68.3l9.7,27.1h-19.3L471.5,68.3z M469.9,63.7l-17,46.1h3.8l4-11.2h21.5l4,11.2h3.8l-17-46.1H469.9z"/>
</g>
</svg>
