<?xml version="1.0" encoding="utf-8"?>
<!-- Generator: Adobe Illustrator 22.1.0, SVG Export Plug-In . SVG Version: 6.00 Build 0)  -->
<svg version="1.1" id="Layer_1" xmlns="http://www.w3.org/2000/svg" xmlns:xlink="http://www.w3.org/1999/xlink" x="0px" y="0px"
	 viewBox="0 0 500.2 160" style="enable-background:new 0 0 500.2 160;" xml:space="preserve">
<style type="text/css">
	.st0{fill:#FFFFFF;}
</style>
<g>
	<g>
		<path class="st0" d="M72.3,26.2c0,0-2.4-0.3-7-0.3c-4.6-0.1-7,0.3-7,0.3l0,0l-0.2-3.4l3.2-0.3L60.2,5.4h-4.7V0.7l0,0
			c0,0,0.8-0.7,9.8-0.7c9,0,9.8,0.7,9.8,0.7l0,0v4.7h-4.7l-1.1,17.1l3.2,0.3L72.3,26.2L72.3,26.2z"/>
		<path class="st0" d="M56.5,26.7c0,0-2.3,0.6-6.5,2.3c-4.3,1.8-6.3,3.1-6.3,3.1l0,0L42.2,29l2.8-1.5l-7.4-15.4L33.2,14l-1.7-4.4
			l0,0c0,0,0.6-1,8.9-4.5C48.6,1.7,49.6,2,49.6,2l0,0l1.7,4.4L47,8.1l5.5,16.3l3-1L56.5,26.7L56.5,26.7z"/>
		<path class="st0" d="M42.1,33.3c0,0-1.9,1.5-5.1,4.7c-3.2,3.3-4.7,5.3-4.7,5.3l0,0l-2.5-2.3l2.1-2.5L19.2,27.3l-3.3,3.4l-3.2-3.3
			l0,0c0,0,0.1-1.1,6.5-7.6c6.3-6.5,7.4-6.6,7.4-6.6l0,0l3.2,3.3l-3.3,3.4l11.1,12.9l2.5-2.1L42.1,33.3L42.1,33.3z"/>
		<path class="st0" d="M31.4,45c0,0-1.3,2.1-3,6.4C26.6,55.6,26,58,26,58l0,0L22.8,57l1-3.1L7.9,48.3l-1.8,4.4L1.8,51l0,0
			c0,0-0.3-1,3.2-9.6c3.5-8.5,4.4-9,4.4-9l0,0l4.3,1.8l-1.7,4.4l15,7.6l1.5-2.9L31.4,45L31.4,45z"/>
		<path class="st0" d="M25.7,59.9c0,0-0.3,2.4-0.4,7.1c0,4.7,0.4,7.1,0.4,7.1l0,0l-3.3,0.2l-0.3-3.2L5.3,72.2V77H0.7l0,0
			c0,0-0.7-0.8-0.7-10c0-9.2,0.7-10.1,0.7-10.1l0,0h4.6v4.8l16.8,1.1l0.3-3.2L25.7,59.9L25.7,59.9z"/>
		<path class="st0" d="M26.1,75.9c0,0,0.6,2.3,2.3,6.5c1.7,4.4,3,6.5,3,6.5l0,0l-3,1.5l-1.5-2.8l-15,7.6l1.7,4.4l-4.3,1.9l0,0
			c0,0-0.9-0.6-4.4-9c-3.5-8.5-3.2-9.5-3.2-9.5l0,0l4.3-1.8l1.8,4.4l15.9-5.5l-1-3.1L26.1,75.9L26.1,75.9z"/>
		<path class="st0" d="M32.4,90.5c0,0,1.4,1.9,4.6,5.3c3.2,3.3,5.2,4.7,5.2,4.7l0,0l-2.2,2.7l-2.5-2.1L26.5,114l3.3,3.4l-3.2,3.3
			l0,0c0,0-1.1-0.1-7.4-6.6c-6.4-6.5-6.5-7.6-6.5-7.6l0,0l3.2-3.3l3.3,3.4l12.6-11.3l-2.1-2.5L32.4,90.5L32.4,90.5z"/>
		<path class="st0" d="M43.8,101.8c0,0,2,1.2,6.2,3c4.3,1.9,6.6,2.4,6.6,2.4l0,0l-1.1,3.2l-3-1l-5.4,16.2l4.3,1.9l-1.8,4.4l0,0
			c0,0-1,0.3-9.3-3.2c-8.3-3.5-8.8-4.4-8.8-4.4l0,0l1.7-4.4l4.3,1.9l7.4-15.4l-2.8-1.5L43.8,101.8L43.8,101.8z"/>
		<path class="st0" d="M58.5,107.6c0,0,2.3,0.3,6.9,0.4c4.6,0.1,7-0.4,7-0.4l0,0l0.3,3.5l-3.2,0.2l1.1,17.1h4.7v4.8l0,0
			c0,0-0.9,0.6-9.9,0.6c-9,0-9.8-0.6-9.8-0.6l0,0v-4.8h4.7l1.1-17.1l-3.2-0.2L58.5,107.6L58.5,107.6z"/>
		<path class="st0" d="M74.3,107.3c0,0,2.3-0.6,6.6-2.3c4.3-1.8,6.2-3.1,6.2-3.1l0,0l1.6,3.1l-2.8,1.5l7.4,15.4l4.3-1.9l1.7,4.4l0,0
			c0,0-0.5,1-8.9,4.5c-8.3,3.5-9.3,3.1-9.3,3.1l0,0l-1.7-4.4l4.3-1.8l-5.4-16.3l-3.1,1L74.3,107.3L74.3,107.3z"/>
		<path class="st0" d="M88.8,100.7c0,0,1.9-1.5,5.1-4.7c3.2-3.3,4.7-5.3,4.7-5.3l0,0l2.5,2.3l-2.1,2.5l12.6,11.3l3.3-3.4l3.2,3.3
			l0,0c0,0-0.1,1.1-6.5,7.6c-6.3,6.5-7.4,6.6-7.4,6.6l0,0l-3.2-3.3l3.3-3.4l-11.1-12.9l-2.5,2.1L88.8,100.7L88.8,100.7z"/>
		<path class="st0" d="M99.7,89c0,0,1.2-2.1,3-6.4c1.8-4.2,2.3-6.6,2.3-6.6l0,0l3.2,1.1l-1,3.1l15.9,5.5l1.8-4.4l4.2,1.8l0,0
			c0,0,0.3,1-3.1,9.5c-3.5,8.6-4.4,9-4.4,9l0,0l-4.3-1.8l1.8-4.4l-15-7.6l-1.5,2.9L99.7,89L99.7,89z"/>
		<path class="st0" d="M105.4,74c0,0,0.3-2.4,0.4-7.1c0-4.7-0.4-7.1-0.4-7.1l0,0l3.3-0.2l0.3,3.2l16.8-1.1v-4.8h4.6l0,0
			c0,0,0.7,0.8,0.7,10c0,9.2-0.7,10-0.7,10l0,0h-4.6v-4.8L109.1,71l-0.3,3.2L105.4,74L105.4,74z"/>
		<path class="st0" d="M105,57.8c0,0-0.6-2.3-2.3-6.6c-1.7-4.4-3-6.5-3-6.5l0,0l3-1.5l1.4,2.9l15.1-7.6l-1.8-4.4l4.3-1.9l0,0
			c0,0,1,0.6,4.3,9c3.5,8.5,3.2,9.5,3.2,9.5l0,0l-4.3,1.8l-1.8-4.4l-15.9,5.6l0.9,3.1L105,57.8L105,57.8z"/>
		<path class="st0" d="M98.5,43.1c0,0-1.4-1.9-4.6-5.3c-3.2-3.3-5.1-4.7-5.1-4.7l0,0l2.1-2.7l2.4,2.1l11.1-12.9l-3.3-3.4l3.2-3.3
			l0,0c0,0,1.1,0.1,7.4,6.6c6.4,6.5,6.5,7.6,6.5,7.6l0,0l-3.2,3.3l-3.3-3.4L99,38.3l2.1,2.5L98.5,43.1L98.5,43.1z"/>
		<path class="st0" d="M87,32c0,0-2.1-1.2-6.2-3.1c-4.2-1.9-6.6-2.3-6.6-2.3l0,0l1-3.2l3.1,1l5.4-16.2l-4.3-1.9l1.7-4.4l0,0
			c0,0,1-0.3,9.3,3.2c8.4,3.5,8.9,4.4,8.9,4.4l0,0l-1.7,4.4L93.2,12l-7.4,15.4l2.8,1.5L87,32L87,32z"/>
		<path class="st0" d="M47.6,49.7c0,0-1,1-2.5,3.5c-1.6,2.3-2.1,3.7-2.1,3.7l0,0l-1.8-1l1-1.7l-8.9-5.2l-1.6,2.4l-2.4-1.6l0,0
			c0,0,0-0.6,3-5.3c3.1-4.7,3.7-4.8,3.7-4.8l0,0l2.3,1.6l-1.6,2.4l8.1,6.4l1.3-1.5L47.6,49.7L47.6,49.7z"/>
		<path class="st0" d="M42.4,58c0,0-0.5,1.4-1,4.2c-0.6,2.8-0.6,4.3-0.6,4.3l0,0l-2.1-0.2l0.2-1.9l-10.1-1.4l-0.5,2.9l-2.8-0.6l0,0
			c0,0-0.3-0.6,0.7-6.1c1.1-5.5,1.6-5.9,1.6-5.9l0,0l2.8,0.5L30,56.7l10,2.7l0.5-1.9L42.4,58L42.4,58z"/>
		<path class="st0" d="M40.9,67.7c0,0,0.1,1.5,0.6,4.3c0.5,2.8,1,4.2,1,4.2l0,0l-2,0.6L40,74.9l-9.9,2.7l0.6,2.8l-2.8,0.6l0,0
			c0,0-0.5-0.4-1.6-5.8c-1.1-5.6-0.8-6.1-0.8-6.1l0,0l2.8-0.6l0.5,2.9L39,70l-0.2-2L40.9,67.7L40.9,67.7z"/>
		<path class="st0" d="M43,77.3c0,0,0.6,1.3,2.1,3.6c1.6,2.3,2.6,3.5,2.6,3.5l0,0l-1.7,1.3l-1.2-1.5l-8.1,6.4l1.6,2.4L36,94.6l0,0
			c0,0-0.6-0.2-3.7-4.8s-3-5.3-3-5.3l0,0l2.4-1.6l1.6,2.4l8.9-5.2l-0.9-1.8L43,77.3L43,77.3z"/>
		<path class="st0" d="M48.5,85.2c0,0,1.1,1,3.4,2.6c2.3,1.6,3.6,2.2,3.6,2.2l0,0l-0.9,1.9l-1.7-1l-5.1,9.1l2.4,1.6l-1.6,2.4l0,0
			c0,0-0.6,0.1-5.2-3.1c-4.6-3.1-4.8-3.8-4.8-3.8l0,0l1.6-2.3l2.4,1.6l6.2-8.3l-1.5-1.3L48.5,85.2L48.5,85.2z"/>
		<path class="st0" d="M56.7,90.5c0,0,1.3,0.5,4.1,1.1c2.7,0.6,4.2,0.6,4.2,0.6l0,0l-0.2,2.1l-2-0.2l-1.3,10.4l2.8,0.6l-0.6,2.8l0,0
			c0,0-0.6,0.3-5.9-0.8c-5.5-1-5.9-1.6-5.9-1.6l0,0l0.6-2.8l2.8,0.6L57.9,93l-1.8-0.6L56.7,90.5L56.7,90.5z"/>
		<path class="st0" d="M66.2,92.2c0,0,1.4-0.1,4.2-0.6c2.8-0.6,4.1-1.1,4.1-1.1l0,0l0.6,2L73.1,93l2.7,10.2l2.8-0.6l0.6,2.7l0,0
			c0,0-0.5,0.6-5.9,1.6c-5.4,1.1-5.9,0.8-5.9,0.8l0,0l-0.6-2.8l2.8-0.6L68.3,94l-1.9,0.2L66.2,92.2L66.2,92.2z"/>
		<path class="st0" d="M75.6,90.1c0,0,1.3-0.6,3.6-2.2c2.4-1.6,3.4-2.7,3.4-2.7l0,0l1.3,1.7l-1.5,1.2l6.2,8.3l2.4-1.6l1.6,2.3l0,0
			c0,0-0.2,0.6-4.7,3.8c-4.6,3.1-5.2,3.1-5.2,3.1l0,0l-1.6-2.4l2.4-1.6l-5.1-9l-1.7,1L75.6,90.1L75.6,90.1z"/>
		<path class="st0" d="M83.5,84.4c0,0,1-1.1,2.5-3.5c1.6-2.3,2.1-3.6,2.1-3.6l0,0l1.8,1L89,80.1l8.9,5.2l1.6-2.4l2.4,1.5l0,0
			c0,0,0,0.7-3,5.3c-3.1,4.7-3.7,4.9-3.7,4.9l0,0L92.9,93l1.6-2.4l-8.1-6.4L85,85.7L83.5,84.4L83.5,84.4z"/>
		<path class="st0" d="M88.7,76.2c0,0,0.5-1.5,1-4.2c0.6-2.8,0.6-4.4,0.6-4.4l0,0l2,0.2l-0.2,2l10.2,1.4l0.6-2.9l2.8,0.6l0,0
			c0,0,0.2,0.6-0.8,6.1c-1.1,5.4-1.6,5.8-1.6,5.8l0,0l-2.8-0.6l0.6-2.7l-9.9-2.7l-0.6,1.9L88.7,76.2L88.7,76.2z"/>
		<path class="st0" d="M90.3,66.4c0,0-0.1-1.5-0.6-4.3c-0.5-2.8-1-4.2-1-4.2l0,0l2-0.6l0.6,1.9l9.9-2.7l-0.6-2.9l2.8-0.6l0,0
			c0,0,0.5,0.4,1.6,5.9c1.1,5.6,0.8,6.1,0.8,6.1l0,0l-2.8,0.6l-0.6-2.9l-10.2,1.4l0.2,2L90.3,66.4L90.3,66.4z"/>
		<path class="st0" d="M88.2,56.7c0,0-0.6-1.3-2.1-3.7c-1.6-2.4-2.6-3.5-2.6-3.5l0,0l1.7-1.3l1.2,1.5l8.1-6.4L92.9,41l2.4-1.6l0,0
			c0,0,0.6,0.2,3.6,4.8c3.1,4.7,3,5.3,3,5.3l0,0l-2.3,1.6l-1.7-2.4L89.1,54l1,1.7L88.2,56.7L88.2,56.7z"/>
		<path class="st0" d="M82.6,48.7c0,0-1.1-1-3.4-2.6c-2.3-1.6-3.6-2.2-3.6-2.2l0,0l1-1.9l1.7,1l5.1-9.1L81,32.3l1.6-2.4l0,0
			c0,0,0.6,0,5.2,3.1c4.6,3.1,4.7,3.8,4.7,3.8l0,0L91,39.1l-2.4-1.6l-6.2,8.3l1.5,1.3L82.6,48.7L82.6,48.7z"/>
		<path class="st0" d="M74.4,43.4c0,0-1.3-0.5-4-1.1c-2.8-0.6-4.3-0.6-4.3-0.6l0,0l0.2-2.1l2,0.2l1.3-10.4l-2.8-0.6l0.5-2.8l0,0
			c0,0,0.6-0.3,5.9,0.8c5.5,1,5.8,1.5,5.8,1.5l0,0l-0.6,2.8l-2.8-0.6l-2.6,10.2l1.8,0.6L74.4,43.4L74.4,43.4z"/>
		<path class="st0" d="M64.9,41.8c0,0-1.5,0.1-4.2,0.6c-2.8,0.6-4.1,1.1-4.1,1.1l0,0l-0.6-2l1.9-0.6l-2.7-10.2l-2.8,0.6l-0.6-2.8
			l0,0c0,0,0.4-0.5,5.8-1.6c5.4-1,6-0.7,6-0.7l0,0l0.6,2.8l-2.8,0.6l1.3,10.3l2-0.2L64.9,41.8L64.9,41.8z"/>
		<path class="st0" d="M55.4,44c0,0-1.3,0.6-3.6,2.2c-2.3,1.6-3.4,2.7-3.4,2.7l0,0l-1.3-1.7l1.5-1.2l-6.2-8.3L40,39.2l-1.6-2.4l0,0
			c0,0,0.2-0.6,4.7-3.7c4.6-3.1,5.3-3.1,5.3-3.1l0,0l1.5,2.4l-2.4,1.6l5.1,9l1.7-1L55.4,44L55.4,44z"/>
		<path class="st0" d="M52.6,58.8c0,0-0.5,0.7-1.1,2.3c-0.7,1.6-0.9,2.5-0.9,2.5l0,0l-1.2-0.4l0.3-1.1l-5.9-2l-0.7,1.6l-1.6-0.6l0,0
			c0,0-0.1-0.4,1.2-3.5c1.3-3.2,1.7-3.4,1.7-3.4l0,0l1.6,0.6l-0.7,1.7l5.7,2.8l0.6-1.1L52.6,58.8L52.6,58.8z"/>
		<path class="st0" d="M50.5,64.5c0,0-0.1,0.9-0.1,2.6c-0.1,1.8,0.2,2.7,0.2,2.7l0,0l-1.3,0.2l-0.2-1.3l-6.2,0.5v1.8h-1.7l0,0
			c0,0-0.2-0.3-0.2-3.7c0-3.5,0.2-3.8,0.2-3.8l0,0h1.7v1.8l6.2,0.4l0.1-1.2L50.5,64.5L50.5,64.5z"/>
		<path class="st0" d="M50.7,70.5c0,0,0.2,0.9,0.9,2.5c0.6,1.6,1.1,2.4,1.1,2.4l0,0l-1.1,0.6l-0.6-1l-5.7,2.8l0.7,1.6l-1.6,0.7l0,0
			c0,0-0.4-0.2-1.7-3.4c-1.3-3.1-1.2-3.6-1.2-3.6l0,0l1.6-0.7l0.7,1.7l5.9-2.1l-0.4-1.1L50.7,70.5L50.7,70.5z"/>
		<path class="st0" d="M53.1,75.9c0,0,0.6,0.7,1.7,1.9c1.2,1.3,2,1.8,2,1.8l0,0l-0.9,1l-0.9-0.7l-4.2,4.8l1.3,1.2L51,87.2l0,0
			c0,0-0.4-0.1-2.8-2.5c-2.4-2.4-2.4-2.8-2.4-2.8l0,0l1.2-1.2l1.3,1.2l4.7-4.1l-0.8-1L53.1,75.9L53.1,75.9z"/>
		<path class="st0" d="M57.4,80.1c0,0,0.8,0.4,2.4,1c1.6,0.7,2.4,0.9,2.4,0.9l0,0l-0.4,1.2l-1.2-0.3l-2,6.1l1.7,0.7l-0.7,1.6l0,0
			c0,0-0.4,0.1-3.5-1.2c-3.1-1.3-3.3-1.7-3.3-1.7l0,0l0.7-1.6l1.6,0.7l2.8-5.8l-1-0.6L57.4,80.1L57.4,80.1z"/>
		<path class="st0" d="M62.8,82.2c0,0,1,0.2,2.6,0.2c1.7,0,2.6-0.2,2.6-0.2l0,0l0.1,1.3l-1.2,0.1l0.5,6.5l1.7-0.1v1.8l0,0
			c0,0-0.3,0.3-3.7,0.3c-3.3,0-3.6-0.3-3.6-0.3l0,0V90h1.7l0.4-6.5l-1.2-0.1L62.8,82.2L62.8,82.2z"/>
		<path class="st0" d="M68.8,82c0,0,0.9-0.2,2.4-0.9c1.6-0.6,2.4-1,2.4-1l0,0l0.6,1l-1,0.6l2.8,5.8l1.6-0.7l0.7,1.6l0,0
			c0,0-0.2,0.4-3.3,1.7c-3.1,1.3-3.5,1.2-3.5,1.2l0,0l-0.7-1.6l1.7-0.7l-2.1-6.1l-1.1,0.4L68.8,82L68.8,82z"/>
		<path class="st0" d="M74.1,79.7c0,0,0.7-0.6,2-1.8c1.2-1.2,1.7-1.9,1.7-1.9l0,0l1,0.8l-0.8,1l4.7,4.1l1.3-1.3l1.2,1.3l0,0
			c0,0,0,0.4-2.4,2.8c-2.4,2.4-2.8,2.5-2.8,2.5l0,0l-1.3-1.3l1.3-1.3l-4.2-4.7L75,80.5L74.1,79.7L74.1,79.7z"/>
		<path class="st0" d="M78.2,75.3c0,0,0.5-0.8,1.1-2.3c0.7-1.6,0.9-2.6,0.9-2.6l0,0l1.2,0.4L81.1,72l5.9,2l0.7-1.6l1.6,0.6l0,0
			c0,0,0.1,0.4-1.2,3.6c-1.3,3.2-1.7,3.4-1.7,3.4l0,0l-1.6-0.6l0.7-1.7l-5.7-2.8l-0.6,1L78.2,75.3L78.2,75.3z"/>
		<path class="st0" d="M80.4,69.6c0,0,0.2-0.9,0.2-2.6c0-1.8-0.2-2.7-0.2-2.7l0,0l1.3-0.2l0.1,1.2l6.3-0.4v-1.8h1.7l0,0
			c0,0,0.2,0.3,0.2,3.7c0,3.5-0.2,3.8-0.2,3.8l0,0h-1.7V69l-6.3-0.5l-0.1,1.2L80.4,69.6L80.4,69.6z"/>
		<path class="st0" d="M80.3,63.6c0,0-0.2-0.9-0.9-2.5c-0.7-1.6-1.2-2.3-1.2-2.3l0,0l1.2-0.6l0.6,1.1l5.6-2.9l-0.7-1.6l1.6-0.7l0,0
			c0,0,0.4,0.2,1.7,3.4c1.3,3.2,1.2,3.5,1.2,3.5l0,0l-1.6,0.7L87,60l-5.9,2.1l0.4,1.1L80.3,63.6L80.3,63.6z"/>
		<path class="st0" d="M77.9,58c0,0-0.6-0.6-1.7-1.9c-1.2-1.2-1.9-1.8-1.9-1.8l0,0l0.8-1l0.9,0.8l4.2-4.8L78.8,48l1.2-1.2l0,0
			c0,0,0.4,0,2.8,2.4c2.4,2.4,2.4,2.8,2.4,2.8l0,0L84,53.3l-1.3-1.3L78,56.3l0.8,0.9L77.9,58L77.9,58z"/>
		<path class="st0" d="M73.5,53.9c0,0-0.7-0.5-2.3-1.1c-1.6-0.7-2.4-0.9-2.4-0.9l0,0l0.4-1.2l1.1,0.3l2-6.1l-1.6-0.7l0.6-1.6l0,0
			c0,0,0.4-0.1,3.5,1.2c3.2,1.3,3.3,1.7,3.3,1.7l0,0l-0.6,1.6l-1.7-0.7L73,52.2l1.1,0.6L73.5,53.9L73.5,53.9z"/>
		<path class="st0" d="M68,51.7c0,0-0.9-0.1-2.5-0.2c-1.7,0-2.6,0.2-2.6,0.2l0,0l-0.2-1.3l1.2-0.1L63.5,44h-1.7v-1.8l0,0
			c0,0,0.3-0.2,3.6-0.2c3.4-0.1,3.7,0.2,3.7,0.2l0,0v1.7L67.3,44l-0.5,6.4l1.3,0.1L68,51.7L68,51.7z"/>
		<path class="st0" d="M62,51.9c0,0-0.9,0.2-2.4,0.9C58,53.5,57.3,54,57.3,54l0,0l-0.6-1.1l1.1-0.6l-2.8-5.8l-1.6,0.7l-0.6-1.6l0,0
			c0,0,0.2-0.4,3.2-1.7c3.2-1.4,3.5-1.2,3.5-1.2l0,0l0.7,1.6L58.5,45l2.1,6.1l1.1-0.4L62,51.9L62,51.9z"/>
		<path class="st0" d="M56.7,54.4c0,0-0.7,0.6-1.9,1.8c-1.3,1.2-1.7,2-1.7,2l0,0l-1-0.9l0.8-0.9l-4.7-4.2l-1.2,1.2l-1.3-1.2l0,0
			c0,0,0.1-0.4,2.4-2.8c2.4-2.5,2.8-2.5,2.8-2.5l0,0l1.2,1.2l-1.2,1.3l4.1,4.8l0.9-0.8L56.7,54.4L56.7,54.4z"/>
	</g>
	<rect x="1.1" y="150.5" class="st0" width="499.1" height="9.5"/>
	<path class="st0" d="M442.5,49.6H440l0,0c-0.6,1.9-0.9,2.1-2.4,2.1c-3.6,0-8.1-2.9-17.9-2.9c-14.9,0-24.9,8-24.9,19.7
		c0,6,2.2,11.3,7.7,15.9c10.3,8.6,34.9,14.7,34.9,27.8c0,8.2-7.4,13.6-18.4,13.6c-8,0-21.8-4.6-22-18.7l0,0h-2.8v20.6h2.8l0,0
		c0.8-1.9,1.9-2.9,3.5-2.9c3.1,0,11.2,4,20.9,4c14.3,0,26-9.8,26-21.7c0-5.1-1.6-9.8-8-15.2c-13.1-11-36.4-14.6-36.4-28.7
		c0-7,6.8-11.5,16.4-11.5c9.3,0,18.9,4.4,20.3,15.7l0,0h2.7L442.5,49.6L442.5,49.6z"/>
	<path class="st0" d="M185.3,65.3c0-9.3,2.6-12.2,9.9-12.2l0,0v-2.3h-31.2v2.3l0,0c7.4,0,9.9,2.5,9.9,12.2l0,0v47.8l0,0
		c0,9.8-2.8,12.3-9.9,12.3l0,0v2.3h31.2v-2.3l0,0c-7.3,0-9.9-2.8-9.9-12.3l0,0V65.3L185.3,65.3z"/>
	<path class="st0" d="M287.1,71.4L287,53.5h-2.9l0,0c-0.3,0.3-1,0.7-2.3,0.7c-4,0-10.8-4.9-26.8-4.9c-26.4,0-45.4,17.3-45.4,41.2
		c0,22.9,18.5,39.5,44.2,39.5c14.9,0,24.3-4.7,32.3-3.6c0.2,0,4.3-17.6,4.4-17.8l0,0h-2.4l0,0c-8.6,14.9-21,18.3-31,18.3
		c-19.2,0-35.6-16.5-35.6-38.8c0-20.7,13.2-35.7,34.3-35.7c13.8,0,24.7,7.5,28.9,19l0,0L287.1,71.4L287.1,71.4z"/>
	<path class="st0" d="M365.1,79.6h-2.6l0,0c-1.2,6.5-3.5,7.4-9.4,7.4l0,0h-24.2V54.2h25l0,0c9.6,0,12.6,0.6,14.5,9.1l0,0h1.7V50.4
		h-62.5v2.3l0,0c7.4,0,9.8,2.7,9.8,12.2l0,0v47.9l0,0c0,10.2-3,12.1-9.8,12.1l0,0v2.3h62.5l4-14.4h-2.6l0,0
		c-5.1,10.1-8.3,10.6-21,10.6l0,0h-15.2l0,0c-4.8,0-6.3-1.5-6.3-5.2l0,0V90.8h21.5l0,0c8.9,0,10.3,0.8,12.1,7.3l0,0h2.6L365.1,79.6
		L365.1,79.6z"/>
	<path class="st0" d="M489.1,65c0-9.3,2.6-12.2,9.9-12.2l0,0v-2.3h-31.2v2.3l0,0c7.4,0,9.9,2.5,9.9,12.2l0,0v47.8l0,0
		c0,9.8-2.8,12.3-9.9,12.3l0,0v2.3H499V125l0,0c-7.3,0-9.9-2.8-9.9-12.3l0,0V65L489.1,65z"/>
	<path class="st0" d="M163.2,6.9h3.1V19l0,0c0,1.3,0.1,2.3,0.2,2.8c0.2,0.6,0.4,1,0.8,1.5c0.6,0.7,1.4,1.3,2.3,1.6
		c0.9,0.4,1.9,0.6,3,0.6c1.9,0,3.4-0.5,4.6-1.4c1.2-1,1.7-2.2,1.7-3.8l0,0V6.9h3.1v13.6l0,0c0,2.3-0.9,4.2-2.6,5.6
		c-1.7,1.5-4,2.2-6.8,2.2c-1.7,0-3.2-0.2-4.5-0.8c-1.3-0.6-2.5-1.4-3.3-2.5c-0.6-0.6-1-1.4-1.3-2.2c-0.2-0.8-0.3-2-0.3-3.7l0,0
		L163.2,6.9L163.2,6.9z"/>
	<polygon class="st0" points="199.7,27.8 199.7,6.9 202.5,6.9 216.9,23.2 216.9,6.9 220,6.9 220,27.8 217.2,27.8 202.9,11.5
		202.9,27.8 	"/>
	<polygon class="st0" points="238.9,27.8 238.9,6.9 241.9,6.9 241.9,27.8 	"/>
	<polygon class="st0" points="267.1,28 257.5,6.9 260.8,6.9 267.6,21.9 274.5,6.9 277.7,6.9 267.9,28 	"/>
	<polygon class="st0" points="293.7,27.8 293.7,6.9 306.8,6.9 306.8,9.5 296.8,9.5 296.8,15.9 306.6,15.9 306.6,18.6 296.8,18.6
		296.8,25.2 307.1,25.2 307.1,27.8 	"/>
	<path class="st0" d="M325.3,27.8v-21h6.4l0,0c2.2,0,4,0.5,5.1,1.5c1.2,1,1.8,2.3,1.8,4.2c0,1.4-0.3,2.5-1,3.4
		c-0.6,0.8-1.7,1.5-3.1,1.9c0.3,0.2,0.7,0.5,1,0.8c0.3,0.2,0.7,0.8,1.3,1.5l0,0l5.3,7.7h-3.8l-3.7-5.5l0,0c-1.2-1.6-2.1-2.7-2.8-3.1
		c-0.7-0.5-1.5-0.7-2.5-0.7l0,0h-0.9v9.4L325.3,27.8L325.3,27.8L325.3,27.8z M328.5,16h2.6l0,0c1.4,0,2.5-0.3,3.2-0.8
		c0.7-0.6,1.1-1.4,1.1-2.5s-0.3-1.9-1-2.5c-0.7-0.5-1.8-0.7-3.3-0.7l0,0h-2.6L328.5,16L328.5,16z"/>
	<path class="st0" d="M357.3,26.2v-4l0,0c1,1.1,2,1.9,2.8,2.3c0.9,0.5,1.9,0.7,2.9,0.7c1,0,1.9-0.2,2.5-0.7c0.6-0.5,0.9-1.1,0.9-1.9
		c0-0.7-0.2-1.3-0.6-1.9c-0.4-0.5-1.4-1.2-3-2.2c-2.4-1.5-4-2.7-4.7-3.6c-0.6-0.9-0.9-1.9-0.9-3.1c0-1.6,0.6-2.9,1.8-4
		c1.2-1.1,2.8-1.6,4.7-1.6c0.8,0,1.7,0.2,2.5,0.4c0.9,0.2,1.7,0.6,2.5,1l0,0v3.4l0,0c-1-0.7-1.9-1.3-2.7-1.6
		c-0.8-0.3-1.7-0.5-2.5-0.5c-0.9,0-1.7,0.2-2.4,0.7c-0.6,0.4-0.9,1.1-0.9,1.8c0,1,1.3,2.3,3.9,3.9l0,0l0.5,0.2l0,0
		c2.1,1.3,3.5,2.4,4.1,3.3c0.6,1,0.9,2.2,0.9,3.6c0,1.6-0.6,3-1.8,4c-1.2,1-2.8,1.5-4.7,1.5c-1.2,0-2.2-0.2-3.2-0.5
		C359.2,27.4,358.2,27,357.3,26.2L357.3,26.2L357.3,26.2z"/>
	<polygon class="st0" points="387,27.8 387,6.9 390.1,6.9 390.1,27.8 	"/>
	<path class="st0" d="M416.9,9.7H412V25h4.9l0,0c2.8,0,4.8-0.6,6.4-2c1.6-1.4,2.3-3.2,2.3-5.6c0-2.3-0.7-4.2-2.3-5.6
		C421.8,10.4,419.7,9.7,416.9,9.7L416.9,9.7L416.9,9.7L416.9,9.7z M416.9,6.9c1.7,0,3,0.2,4.2,0.4c1.2,0.3,2.2,0.8,3.2,1.4
		c1.4,1,2.6,2.3,3.4,3.7c0.8,1.5,1.2,3.2,1.2,5c0,1.9-0.4,3.5-1.2,5c-0.8,1.5-2,2.7-3.4,3.7c-0.9,0.6-2.1,1-3.2,1.4
		c-1.2,0.3-2.5,0.4-4.2,0.4l0,0h-8v-21H416.9L416.9,6.9z"/>
	<path class="st0" d="M449.3,19h6.8l-3.4-7.6L449.3,19L449.3,19L449.3,19z M442.1,27.8l9.5-21h2.3l9.6,21h-3.2l-2.8-6.1h-9.3
		l-2.8,6.1H442.1L442.1,27.8z"/>
	<path class="st0" d="M487.7,9.7h-5V25h5l0,0c2.7,0,4.8-0.6,6.3-2c1.6-1.4,2.4-3.2,2.4-5.6c0-2.3-0.8-4.2-2.4-5.6
		C492.5,10.4,490.4,9.7,487.7,9.7L487.7,9.7L487.7,9.7L487.7,9.7z M487.7,6.9c1.6,0,3,0.2,4.1,0.4c1.2,0.3,2.3,0.8,3.2,1.4
		c1.5,1,2.6,2.3,3.4,3.7c0.9,1.5,1.3,3.2,1.3,5c0,1.9-0.4,3.5-1.3,5c-0.8,1.5-1.9,2.7-3.4,3.7c-0.9,0.6-2.1,1-3.2,1.4
		c-1.2,0.3-2.6,0.4-4.2,0.4l0,0h-8.1v-21H487.7L487.7,6.9z"/>
</g>
</svg>
