<svg xmlns="http://www.w3.org/2000/svg" viewBox="0 0 185.67 164.2"><title>mapa</title><g id="Capa_2" data-name="Capa 2"><g id="Capa_6_Rectángulo_1_Imagen" data-name="Capa 6 + Rectángulo 1 Imagen"><path d="M132,98.87c1.37,1.38,1.52,2.48.49,4.21s-2.25,3.5-3.27,5.31c-6.25,11.19-11.11,23-15.68,35-1.91,5-3.68,10.06-5.72,15a9.15,9.15,0,0,1-5,5.11c-4.39,1.78-11,.15-14.07-3.43a11.94,11.94,0,0,1-2.6-5.33,23.25,23.25,0,0,1,.74-11.59c.54-1.84,1.19-3.65,1.89-5.43,1.66-4.19,2.41-8.44,1.34-12.91-.37-1.53-.56-3.1-.91-5.1-1.09,1.28-1.84,2.25-2.69,3.14-1.67,1.76-3,1.78-4.67,0-1-1.12-1.77-2.47-2.74-3.63-1.44-1.71-2.92-3.39-4.46-5a4.37,4.37,0,0,0-3.94-1.34A24.38,24.38,0,0,0,65,114c-2.44,1-4.71,2-7.38.28a4.65,4.65,0,0,1,.5,1.69,3.72,3.72,0,0,1-.81,2c-.65.73-1.33.12-1.82-.41-.65-.7-1.21-1.49-1.85-2.21-1.28-1.44-2-1.6-3.78-.74-2.44,1.18-4.87,2.41-7.3,3.62-1,.5-2,1.27-2.83.26-1.65,1.16-3.13,2.1-4.5,3.18a13.11,13.11,0,0,0-2.92,2.78c-3.18,4.8-6.21,9.68-7.41,15.46a8.28,8.28,0,0,1-5.71,6.29,14.2,14.2,0,0,1-9,.28,10.58,10.58,0,0,1-6.5-5.33c-2.18-4-3-8.34-3.66-12.81-.52-3.64.71-6.58,2.6-9.39,2.49-3.71,5-7.46,7.71-11a25.53,25.53,0,0,0,4.9-10c1.79-7.67,5-14.83,8.27-21.95,1.92-4.17,5.24-6.74,9.35-8.48l8.18-3.45c-.27-2.55-.51-4.84-.77-7.12-.94-8.38-.56-16.75-.09-25.14.36-6.31.49-12.62.68-18.94a13.63,13.63,0,0,0-.3-2.18c4.59-1.13,9.17-2.21,13.72-3.4,7-1.85,14-3.78,21.06-5.66,1.15-.31,2.33-.56,3.49-.86a5.65,5.65,0,0,1,6,2C87.75,6,87,5.44,90.81,4.35,95,3.15,99.17,1.65,103.38.42a10,10,0,0,1,4-.35c11,1.49,22,3.19,32.84,5.59a5.36,5.36,0,0,1,4.08,3.1c1.76,3.48,3.95,6.74,6,10.15,3.65-.83,7.05-1.64,10.46-2.38a58.63,58.63,0,0,1,6.11-1.15,14.41,14.41,0,0,1,3.56.33,41.62,41.62,0,0,1,12.76,4,21.85,21.85,0,0,1,2.49,1.69L170.88,31.51a172.18,172.18,0,0,0-21.13,17c-5.92,5.6-11.92,11.11-17.83,16.74-1.61,1.53-3,3.34-4.51,5a2.2,2.2,0,0,0-.56,2.37c1,3.55,1.85,7.08,3.85,10.27.89,1.42,1.07,3.29,1.56,5,.24.83.42,1.68.68,2.5,1,3,1.18,6-1,8.61-1.06,3-2.88,5.78-4.59,6.56.67-1.4,1.18-2.54,1.75-3.65.92-1.77,1.91-3.51,2.79-5.3.38-.75.74-1.56-.19-2.35-.65-.55-.61-1.22.25-1.73.13-.07-.06-.68-.16-1.49-.86,1.37-1.44,2.31-1.89,3,.26,1,.48,1.72.64,2.48,0,.14-.24.33-.44.59l-1.06-1.69-3.23,3.86-.51-.33c.39-.72.74-1.48,1.19-2.17,1.09-1.67,2.23-3.31,3.35-5a6.87,6.87,0,0,0,.48-7.28c-1.39-2.93-2.85-5.82-4.3-8.76l-1.25.25c1.14-1.8,1.14-1.8.41-3.3-1.89,2.16-3.75,4.21-5.53,6.34a3.75,3.75,0,0,0-1.13,2.21c.07.74.93,1.41,1.49,2.17-.47.93-1,2-1.55,3.07L112.6,97.7a2.75,2.75,0,0,0,0,2.92,14.23,14.23,0,0,1,.89,2.55l-.34.17-1.47-1.21c-.34,1.21.37,2.44-1,3.48-.25-1-.5-1.69-.63-2.45-.42-2.44-.86-4.88-1.15-7.34a8.06,8.06,0,0,1,.18-3.5c1.75-4.95,1.77-10,1.38-15.16a11.33,11.33,0,0,0-1-2.76c-.52-2.18-1.28-2.71-3-1.92-.76.34-1.87,1-1.95,1.56A10.39,10.39,0,0,0,105,78c.19.71,1,.74,1.61.32a3.18,3.18,0,0,0,1.65-3c0-.8.24-1.48,1.29-1a12.09,12.09,0,0,1-.3,2.35,4,4,0,0,1-3.15,2.91c-1.66.31-2.16-1-2.75-2.12,0-.07-.24,0-.38-.07-.54,2.73-1.07,5.44-1.61,8.2.92.3,2.3-.38,3.1,1.09-1.12,0-2.13,0-3.14,0-.77,0-1.44.19-1.44,1.17l0-.06c-.71.47-1.38,1-1.38,2l2.54.18v.51l-2.75.28c-2.08,3.12-3.88,6-5.91,8.79a14,14,0,0,0-3,10.3q.78,6.66,1.74,13.3c.55,3.8,1.21,7.6.14,11.41-.58,2.07-1.36,4.09-2,6.14-.32,1-.6,1.93-1.07,3.43,1.18-.85,1.87-1.37,2.57-1.85,4.2-2.93,7.93-2,10.28,2.52,2,3.72,4,7.4,6,11.26.23-.51.42-.86.56-1.23,6.62-17.75,13.53-35.37,23.42-51.64A5.83,5.83,0,0,0,132,98.87ZM28.51,71.37a11.67,11.67,0,0,0-3.79,5.15c-3.28,7.2-6.35,14.49-8.19,22.22a24.49,24.49,0,0,1-4.72,9.59c-1.88,2.39-3.66,4.85-5.46,7.29a19.63,19.63,0,0,0-1.12,2c1.16-.69,1.8-1.12,2.49-1.47a5,5,0,0,1,6.18.84,15.46,15.46,0,0,1,2.26,2.77c1.06,1.6,2,3.29,3,4.93,2,3.25,3.95,6.5,6.08,10,.35-.68.56-1.08.76-1.49,3.2-6.6,6.69-13,13.55-16.55.89-.47.83-1.25.87-2.05.38-8.11-.07-16.24.6-24.34.14-1.66,0-3.34,0-5-1.92,13.13-3.31,19.1-5.38,21.57.6-2.4,1.26-4.54,1.67-6.72.82-4.39,1.61-8.79,2.21-13.22a11.52,11.52,0,0,0-.91-6.49c-.94,3.35-.92,6.42-2.26,9.13-.38-4.14.94-8.12.89-12.28.32,0,.71,0,.93-.16,1.76-1.35,4-2.08,5.37-3.92a1.25,1.25,0,0,1,1-.48c2.69.39,4.59-1.11,6.37-2.72a9.08,9.08,0,0,0,1.65-10.79,5.2,5.2,0,0,0-1.4-1.59,2,2,0,0,0-3,.33c-1.08,1.25-2,2.66-3,4l.08-.08-2.89,2.26c.59,1,1.88,1.29,1.83,2.81L41.37,65,30.1,70.05c1,1,2.18,1.51,2.1,3.13-.89-.71-1.64-1.25-2.31-1.88s-1-.29-1.43.11ZM67.76,86.82c3.39.85,6.79,1.66,10.18,2.55,2.78.73,5.56,1.46,8.29,2.36,2.49.82,2.62,1.34,1.4,3.65-1.86,3.53-3.84,7-5.6,10.6-1.29,2.65-2.34,5.42-3.4,8.18a2.56,2.56,0,0,0,0,2A68.33,68.33,0,0,0,82.87,122c.92,1.12,1.65,1.1,2.61,0,1.93-2.13,3.88-4.28,3-7.58a22.62,22.62,0,0,1-.35-3.1c-.72-5.34,1-9.86,4.31-14a56.42,56.42,0,0,0,4.35-6.86c1.14-1.92,2.2-3.89,3.18-5.89a14.48,14.48,0,0,0,1-3.16c.35-1.55.51-3.15.86-4.71a7.14,7.14,0,0,1,3.54-5.16,3,3,0,0,0,.83-.8c3.74-4.58,7.42-9.21,11.24-13.72,2.47-2.93,5.15-5.68,7.7-8.46-.61-2.25-.62-2.26.66-4.28,1.46-2.29,3-4.55,4.42-6.86a184.62,184.62,0,0,0,14.06-26L142.1,7.53c-8,14.14-18.13,26.19-26.45,39.36a136.58,136.58,0,0,1-25.12-5,11,11,0,0,0-7.44.13c-.66.26-1.38.39-2.07.59a8.2,8.2,0,0,1-6.69-.9l-1.9-1.06c1.09-6.32,2.25-12.67,3.28-19S78.77,9,79.54,2.19a32.79,32.79,0,0,0-7.51,2C70.65,13,69.33,21.42,68,29.85A2,2,0,0,1,67,31a7,7,0,0,1-1.84.51L44.84,36.16c-1.14.26-2.28.59-3.41.88v3.83c1.22-.19,2.26-.25,3.25-.51,7.19-1.88,14.37-3.8,21.55-5.68a15.54,15.54,0,0,1,1.92-.25C67.1,45.19,66.07,55.71,65,66.26a6.84,6.84,0,0,0-1.24,0c-3.26.78-6.52,1.57-9.76,2.42a2.88,2.88,0,0,0-1.29,1,15.48,15.48,0,0,1-7.1,4.69C44.4,74.85,43.2,75.46,42,76c0,.6,0,1,0,1.39a147.13,147.13,0,0,1,.05,20.14c-.27,5.67-.37,11.34-.52,17,0,.82.08,1.64.14,2.64.73-.29,1.11-.41,1.46-.58,2.15-1.06,4.28-2.16,6.45-3.18s3.27-.77,4.9,1c.52.56,1,1.15,1.8,2a5.46,5.46,0,0,0-.11-1.57c-1-2.06-.39-4,.25-6a23.79,23.79,0,0,0,1.39-5.16c-2.83.5-5.39,1-8,1.38-4.08.64-5,1.78-5-4.32,0-5.83.38-11.66.63-17.49a9,9,0,0,1,.39-1.74c5.76-.31,11.09-2.27,17.21-2.62-.67,3.17,0,6.13-.74,9h-.62V80L46.77,82.77c-.39,7-1.16,14-.41,21.31,4.31-.18,8.22-1.19,12.12-2,1.22-3.32,2.1-6.58,3.67-9.54l.49.17c-1.79,6-3.58,12-5.35,18l1.42,1.53c1.66,1.81,2.12,1.93,4.35,1,.51-.22,1-.51,1.52-.69,4.25-1.51,8.39-2.19,12,1.49.15.14.43.15.73.25,2-7.58,6.26-14.12,9.81-21.07C80.67,90.53,73.7,90.14,67.76,86.82Zm73-79.2c-.76-.21-1.43-.45-2.11-.57-9.75-1.77-19.51-3.44-29.23-5.31a15.07,15.07,0,0,0-8.41.81c-3,1.12-6,2.09-9.13,2.91-4.89,1.3-4.79,1.74-8.09-2-.68-.78-1.43-1.74-2.81-1.41-.15,1-.27,2-.45,2.9q-2.62,13.64-5.27,27.28c-.4,2.12-.77,4.24-1.16,6.36a2,2,0,0,0,1.25,2.31,7.27,7.27,0,0,0,5.35.57c1.23-.33,2.44-.76,3.67-1.09A9,9,0,0,1,89,40.18c5.18,1.33,10.38,2.58,15.61,3.71,3.41.73,6.88,1.21,10.32,1.8C123.2,32.6,133.08,21,140.72,7.62Zm9.05,12.48-4.75-7c-.7,1.46-1.27,2.67-1.85,3.87A216.91,216.91,0,0,1,127,44.72c-.49.73-1.38,1.37-.89,2.77,4.13-4.06,8.05-8.1,13-11l-1.11,1.76c4.94,1.49,9.48,3.35,13.21,6.82,9.85-9.14,21-16.26,31.92-23.89a41.91,41.91,0,0,0-12.4-4,14.74,14.74,0,0,0-4.26-.35c-3.23.48-6.42,1.25-9.63,1.9ZM42.42,11.56c-.3,8.26-.59,16.22-.88,24.42l25.27-6.59C68.2,21.11,69.57,13,71,4.54ZM66.63,35.78,41.27,42.46c-.66,4.43.25,17.47,1.47,20.12a14.37,14.37,0,0,0,4-4.36c1.73-2.71,5-2.14,6.4.45a11.46,11.46,0,0,1,1.29,6.26c0,.77-.09,1.54-.15,2.6l9.37-2.48C64.68,55.27,65.64,45.68,66.63,35.78Zm-52.38,110c1.62-.39,3.27-.66,4.85-1.18,4.36-1.44,6.34-7.61,3.8-11.34-2.69-4-5-8.16-7.58-12.2A17.13,17.13,0,0,0,12.74,118,3.17,3.17,0,0,0,9,117.25c-3.26,1.69-6.07,3.91-6.91,7.76-1.23,5.65.56,10.74,3.2,15.59C7.15,144.09,10.34,145.51,14.25,145.81ZM127.72,67l15-14.65c-3.36-3.49-7.65-5.55-12.22-7.6-5.19,5.15-9.94,10.68-15.07,16.26ZM87.18,150.79c.13,8.05,4.88,12.31,12.73,11.69,4.83-.37,6.61-3.8,4.48-8.12-.07-.14-.13-.29-.21-.43-1.66-3-3.31-6-5-9-1.36-2.43-3.2-3.15-5.84-2.35A8.88,8.88,0,0,0,87.18,150.79Zm24.88-64.12.49.17C116.12,79.66,122,74.23,127.14,68c-4-2-7.67-3.81-11.41-5.56a1.82,1.82,0,0,0-1.67.3c-2.21,2.57-4.31,5.24-6.48,7.92,2.76,1.22,3.46,2,4.06,4.6a14.4,14.4,0,0,1,.4,2.84C112.09,81,112.06,83.81,112.06,86.67Zm38.07-40.61a5.36,5.36,0,0,0-.56-.8c-3.44-3-7.6-4.58-11.86-5.94a1.62,1.62,0,0,0-1.33.18c-1.62,1.34-3.16,2.76-5,4.38,4.8,2,9.06,4.19,12.39,7.91ZM110.88,96.88c1.42-2.48,3.31-4.42,1.76-7.47C111.06,91.64,109.88,93.76,110.88,96.88ZM40.82,77c-1.75,1.76-1.71,2.54,0,5.45Zm73.86,9.19c-1.34,1-1.14,2-.3,3.15A2.13,2.13,0,0,0,114.68,86.2Zm2.81-3.93c-1.84,1.64-1.84,1.64-.92,2.9C117.09,84.27,118.09,83.59,117.49,82.27Z"/><path d="M111.8,53.31c-.67,1.11-1.13,2-1.71,2.85q-5,7.05-10,14.06a107.51,107.51,0,0,0-9,14.45c-1,2-1.75,2.26-3.82,1.45-6-2.38-12.44-3.38-18.76-5l-1.45,2.71-.46-.07c0-.47-.23-1,0-1.4,1.09-2.3,1.17-4.78,1.54-7.22.86-5.68,1.92-11.34,2.83-17,.45-2.84.76-5.7,1.11-8.56.26-2.07.49-2.44,2.56-2.79,3-.5,5.85-1,8.89.4,2,.91,4.39.73,6.6,1.07,4.5.69,9,1.35,13.48,2.15A24.17,24.17,0,0,1,111.8,53.31ZM89.3,85.68c.32-.58.67-1.12.92-1.69a65.34,65.34,0,0,1,7-12q5.73-8,11.43-16c.44-.6.81-1.26,1.4-2.19-2.7-.74-5-1.53-7.3-2-4.39-.83-8.83-1.44-13.24-2.18-2.28-.39-4.74-.45-6.78-1.39-3.16-1.46-6-.45-8.86-.21-1.33,8.24-2.62,16.17-4,24.44a6,6,0,0,0,.66-.87Q73.78,64.4,77,57.16c.68-1.54,1.36-3.07,2.1-4.58.16-.32.56-.53.86-.8-3.11,9.72-8.1,18.59-11.12,28.37C75.8,81.73,82.75,82.82,89.3,85.68Z"/><path d="M115.72,119.73c1.53-5.42,3.06-10.75,6.33-15.31l.49.23Q119.14,112.2,115.72,119.73Z"/><path d="M118.65,119.62c1-4.7,4.49-10.89,6.72-12.16Z"/><path d="M127.11,89.73a7.59,7.59,0,0,1,.68-5.22c.57,1.69-.71,3.62,1.21,5.36Z"/><path d="M96.34,101.85l-5.16,1.86C92.23,101.85,93.9,101.19,96.34,101.85Z"/><path d="M97.16,123.64l-3.35,2.46c-.9-.59-.14-1.22.25-1.75C95.06,123,95.66,122.89,97.16,123.64Z"/><path d="M91.31,106.19c1.2-1.85,2.51-2.33,5.71-1.87Z"/><path d="M99.9,87.87c2.52-1.06,3.56-.92,5.28,1L100,87.81Z"/><path d="M93.08,99.58l2-.62a1.46,1.46,0,0,1-1.83,1.2Z"/><path d="M129.28,86.65c1.05.68,1,1.45.77,2.44A1.94,1.94,0,0,1,129.28,86.65Z"/><path d="M102.24,37.49a10.35,10.35,0,0,1-.73-2.19c-.28-2.7-.61-5.4-.66-8.11a9,9,0,0,1,6.52-8.75,6.74,6.74,0,0,1,7,2.35,5.75,5.75,0,0,1,.21,6.94A12.31,12.31,0,0,1,112,30.78c-2.77,2.16-5.65,4.17-8.5,6.22A6.69,6.69,0,0,1,102.24,37.49Zm.38-2.36.66.24c2.78-2.1,5.58-4.19,8.34-6.33A7.31,7.31,0,0,0,113,27.41a4.74,4.74,0,0,0,.16-5.77A5.22,5.22,0,0,0,107.36,20a7.13,7.13,0,0,0-5,6.38A77.78,77.78,0,0,0,102.62,35.13Z"/><path d="M111.5,36.38c1.08.51,1.15,1.32.64,2a5.6,5.6,0,0,1-2.07,1.87,11.91,11.91,0,0,1-10.84-.38A7.09,7.09,0,0,1,96.49,37c-1-2,.47-3.83,3.11-3.72-.42.42-.7.73-1,1-1.15,1.09-1.2,1.92-.17,3.06,2.28,2.5,8.66,3.22,11.44,1.18A10.05,10.05,0,0,0,111.5,36.38Z"/><path d="M24.14,106.48a20.67,20.67,0,0,1,4.37,10.81Q26.32,111.88,24.14,106.48Z"/><path d="M45.16,61.91c3.22.32,3.22.32,5.85-2.52-.76,2-1,3.67-3,4-1.28.22-2.36-.11-2.74-1.56Z"/><path d="M28.46,71.41a3.6,3.6,0,0,1,2.69,3l-.48.35-2.16-3.39Z"/><path d="M20.38,99.05a3.93,3.93,0,0,1-1.53,3.41C18.52,101.05,18.52,101.05,20.38,99.05Z"/><path d="M21.86,108.16l-1.34-1.54.15-.14,1.47,1.41Z"/><path d="M24.26,112.12l-.9-1.67c.17,0,.37-.06.4,0,.29.52.56,1,.84,1.58Z"/><path d="M31.48,116l.49,2-.57.15-.57-2Z"/><path d="M29.1,75.69l-.59-1.44.29-.12.59,1.44Z"/><path d="M108.35,27.8a2.43,2.43,0,0,1-2.48-2.37,2.63,2.63,0,0,1,2.45-2.7c2,0,3,.73,3,2.2A3.12,3.12,0,0,1,108.35,27.8Zm1.57-2.63L108.8,24a6.45,6.45,0,0,0-1.21,1.24c-.08.13.56,1,.69.91A8.47,8.47,0,0,0,109.92,25.17Z"/></g></g></svg>
