<?xml version="1.0" encoding="utf-8"?>
<!-- Generator: Adobe Illustrator 16.0.0, SVG Export Plug-In . SVG Version: 6.00 Build 0)  -->
<!DOCTYPE svg PUBLIC "-//W3C//DTD SVG 1.1//EN" "http://www.w3.org/Graphics/SVG/1.1/DTD/svg11.dtd">
<svg version="1.1" id="Layer_1" xmlns="http://www.w3.org/2000/svg" xmlns:xlink="http://www.w3.org/1999/xlink" x="0px" y="0px"
	 width="490px" height="290px" viewBox="0 0 490 290" enable-background="new 0 0 490 290" xml:space="preserve">
<g>
	<polygon fill="#1D1C1A" points="0,89.921 0,198.72 31.711,198.72 31.711,173.572 45.635,173.572 45.635,115.35 31.711,115.35
		31.711,139.939 19.409,139.939 19.409,89.921 	"/>
	<polygon fill="#1D1C1A" points="78.608,89.921 78.608,139.939 66.316,139.939 66.316,115.35 52.363,115.35 52.363,173.572
		66.316,173.572 66.316,198.72 98.018,198.72 98.018,89.921 	"/>
	<polygon fill="#1D1C1A" points="157.188,100.562 143.196,132.128 139.69,132.128 125.437,100.562 125.437,138.6 121.932,138.6
		121.932,92.465 125.437,92.465 141.506,128.04 157.188,92.465 160.683,92.465 160.683,138.6 157.188,138.6 	"/>
	<g>
		<path fill="#1D1C1A" d="M189.326,138.987c-9.263,0-15.807-6.345-15.807-15.355V92.465h3.495v30.721
			c0,7.642,4.865,12.7,12.312,12.7c7.457,0,12.312-5.059,12.312-12.7V92.465h3.505v31.167
			C205.143,132.643,198.599,138.987,189.326,138.987"/>
		<path fill="#1D1C1A" d="M229.504,138.987c-6.807,0-11.146-1.869-15.36-6.083l2.466-2.466c4.146,4.146,7.583,5.447,13.088,5.447
			c7.331,0,11.865-3.496,11.865-9.525c0-2.787-0.786-4.99-2.534-6.477c-1.747-1.369-2.845-1.951-6.67-2.466l-5.379-0.845
			c-3.496-0.515-6.224-1.621-8.234-3.369c-2.398-2.01-3.622-4.864-3.622-8.486c0-7.777,5.438-12.642,14.321-12.642
			c5.699,0,9.331,1.554,13.283,4.99l-2.272,2.272c-2.719-2.593-5.768-4.282-11.205-4.282c-6.748,0-10.7,3.632-10.7,9.525
			c0,2.66,0.777,4.67,2.398,6.029c1.622,1.359,4.282,2.398,6.875,2.854l4.99,0.777c4.34,0.582,6.35,1.427,8.224,3.039
			c2.535,2.077,4.02,5.253,4.02,8.952C245.059,134.069,239.165,138.987,229.504,138.987"/>
	</g>
	<polygon fill="#1D1C1A" points="255.233,92.465 283.227,92.465 283.227,95.581 258.729,95.581 258.729,113.786 279.595,113.786
		279.595,116.894 258.729,116.894 258.729,135.497 283.227,135.497 283.227,138.6 255.233,138.6 	"/>
	<g>
		<path fill="#1D1C1A" d="M315.947,98.756c-2.33-2.34-5.438-3.563-8.748-3.563c-3.302,0-6.408,1.224-8.748,3.563
			c-3.302,3.302-3.563,6.933-3.563,16.778c0,9.855,0.262,13.486,3.563,16.788c2.34,2.33,5.446,3.563,8.748,3.563
			c3.311,0,6.418-1.233,8.748-3.563c3.312-3.302,3.573-6.933,3.573-16.788C319.521,105.688,319.259,102.058,315.947,98.756
			 M318.733,134.264c-3.039,3.049-7.126,4.724-11.534,4.724s-8.486-1.675-11.535-4.724c-4.204-4.214-4.272-8.359-4.272-18.729
			c0-10.428,0.068-14.516,4.272-18.72c3.049-3.049,7.127-4.738,11.535-4.738s8.495,1.689,11.534,4.738
			c4.215,4.204,4.282,8.292,4.282,18.72C323.016,125.904,322.948,130.05,318.733,134.264"/>
	</g>
	<polygon fill="#1D1C1A" points="123.68,153.552 123.68,199.691 151.672,199.691 151.672,196.584 127.175,196.584 127.175,153.552
		"/>
	<path fill="#1D1C1A" d="M172.344,158.231l9.651,27.148h-19.312L172.344,158.231z M170.79,153.552l-16.981,46.14h3.757l4.02-11.205
		h21.516l4.01,11.205h3.767l-16.981-46.14H170.79z"/>
	<polygon fill="#1D1C1A" points="208.754,153.552 208.754,156.678 222.493,156.678 222.493,199.691 225.999,199.691
		225.999,156.678 239.796,156.678 239.796,153.552 	"/>
	<polygon fill="#1D1C1A" points="248.098,153.552 248.098,199.691 276.09,199.691 276.09,196.584 251.593,196.584 251.593,177.98
		272.458,177.98 272.458,174.874 251.593,174.874 251.593,156.678 276.09,156.678 276.09,153.552 	"/>
	<g>
		<path fill="#1D1C1A" d="M303.18,156.678h-13.613v18.662h13.613c5.962,0,10.165-2.913,10.165-9.341
			C313.345,159.591,309.142,156.678,303.18,156.678 M302.267,178.446h-12.7v21.245h-3.495v-46.14h17.555
			c7.525,0,13.225,4.35,13.225,12.389c0,6.934-4.146,11.341-10.632,12.448l11.146,21.303h-4.078L302.267,178.446z"/>
	</g>
	<polygon fill="#1D1C1A" points="322.676,153.552 322.676,156.678 336.415,156.678 336.415,199.691 339.92,199.691 339.92,156.678
		353.718,156.678 353.718,153.552 	"/>
	<g>
		<path fill="#1D1C1A" d="M377.176,200.079c-9.263,0-15.808-6.35-15.808-15.341v-31.187h3.496v30.721
			c0,7.651,4.864,12.7,12.312,12.7c7.456,0,12.312-5.049,12.312-12.7v-30.721h3.505v31.187
			C392.992,193.729,386.448,200.079,377.176,200.079"/>
	</g>
	<polygon fill="#1D1C1A" points="405.818,153.552 405.818,199.691 433.812,199.691 433.812,196.584 409.323,196.584
		409.323,153.552 	"/>
	<rect x="442.112" y="153.552" fill="#1D1C1A" width="3.496" height="46.14"/>
	<path fill="#1D1C1A" d="M471.465,158.231l9.651,27.148h-19.312L471.465,158.231z M469.911,153.552l-16.982,46.14h3.758l4.02-11.205
		h21.517l4.02,11.205H490l-16.981-46.14H469.911z"/>
</g>
</svg>
