<svg xmlns="http://www.w3.org/2000/svg" viewBox="0 0 513.82 638.51"><title>Recurso 7</title><g id="Capa_2" data-name="Capa 2"><g id="Capa_1-2" data-name="Capa 1"><path d="M62.26,392.05l3.64,4c23.24-11.28,46.23-22.95,69.64-33.7,33-15.17,66.5-29.4,99.54-44.55,20.76-9.51,41-20.07,61.65-29.91,9.21-4.4,17.39-1.64,21.56,7.94,2.29,5.26,3,11.45,3.29,17.27s-1.2,11.4-1.65,17.13c-.1,1.32.38,3.25,1.32,4,16.31,13.2,16.33,13.17,19.06,33.51,18.47,3.19,21.26,5.74,21.86,24.53a39.07,39.07,0,0,0,6.18,20.55A17.36,17.36,0,0,1,370,416c2.71,7.35,6,13.29,14.3,16.82,9.06,3.86,8.12,13.78,7.3,22-.43,4.32-2.62,8.82-5.1,12.53a110.7,110.7,0,0,1-32.38,32.07c-9.84,6.33-15.74,5.69-24.92-1.72-9.9-8-9.82-7.94-17.5,2.46A127.57,127.57,0,0,1,267.14,538c-8.31,4.3-16.74,5.74-25.83,2.37-5.38-2-11.12-3-16.51-5-1.63-.6-2.64-2.9-3.93-4.41,1.93-.42,4-1.5,5.76-1.14,6,1.23,11.86,3.64,17.91,4.3,5.31.58,11.4.78,16.13-1.23a106.1,106.1,0,0,0,46-37.39c-2.38-5.58-4.2-9.92-6.09-14.23a8.24,8.24,0,0,0-1.46-2c-1.36-1.54-3-2.86-4.1-4.57-1.51-2.43-4-5.64.11-7.36,1.19-.5,4,2.8,6.05,4.36l-.39,1.78c2.92-1.52,6.14-2.63,8.7-4.61,11.31-8.75,22.47-17.7,33.59-26.7,5.28-4.26,9.09-9.66,9.47-16.61.75-13.43,1.58-26.88,1.49-40.32-.05-7.07-6.19-11.49-13.1-10.52-1.4.2-2.5,2.51-3.44,3.52l10.16,7.11c-.34.58-.67,1.17-1,1.76l-8-.66,6.59,3.86-1.07,1.86-8.46-.44c-.48,24.09-10.2,44.11-31.09,59.5,6.47.24,10.75,1.58,11.16,7.2-4.4-.21-8.63-.78-12.79-.46-2,.16-3.89,2.06-5.9,3s-4.15,2.26-6.35,2.64c-1.08.18-2.45-1.39-3.69-2.17a17.67,17.67,0,0,1,2.35-3.07c1.51-1.24,3.65-1.87,4.84-3.32q13.32-16.31,26.33-32.86c7.05-9,6.33-20.26,8.33-30.67,1.6-8.38,2.45-16.9,3.45-25.38,1.57-13.4-1.9-19.82-14.2-26.24-5.42,11.7-5.41,28.12-24.73,28.86,0,6.64,0,13.34,0,20,0,2,.33,4.12-.29,5.91-.55,1.57-2.22,2.75-3.39,4.11-.81-1.44-2.29-2.85-2.32-4.31-.22-9.1-.11-18.21-.11-27.8-9.17-3.85-16-9.92-14.4-20.81-4.12-1.76-7.9-3.15-11.48-5-8-4-15.8-8.27-23.77-12.27a4.94,4.94,0,0,0-3.74,0q-38.21,16.73-76.33,33.64a8.94,8.94,0,0,0-1.75,1.43c.55.47,1,1,1.09.91,18.22-9.19,38.51-10.27,57.93-14.72,5.79-1.33,11.73-2.05,17.63-2.82,7.24-.94,14.15.29,19.17,5.93,10.81,12.15,21.88,24.16,31.56,37.19,3.28,4.4,3.29,11.64,3.72,17.66.59,8.07.15,16.22.15,23.92,3.35.93,7.25,1.68,10.81,3.23.95.41.86,3.24,1.58,6.41-2.78-1.63-4-2.51-5.38-3.13-4.46-2.05-8.77.48-9,5.34-.22,5.36,0,10.75-.41,16.09-.35,4.44-.7,8.11-7.77,7.27-5.38-.65-12.05,1.49-15.69-2.85-6.78-8.06-15.5-15.45-15.62-27.46,0-1.19-.08-2.38-.07-3.58,0-9.91.09-19.83-13.67-21.38-1.79,4-3.29,9.47-6.4,13.78a125.13,125.13,0,0,1-15.43,17.13c-1.4,1.34-4.88.5-7.41.67,1.07-2,1.68-4.51,3.28-5.84,9.39-7.82,15.93-17.65,20.82-28.65.6-1.35-.13-3.25-.07-4.88.09-2.19.35-4.38.53-6.57,1.85.75,3.9,1.2,5.52,2.29q8.58,5.74,16.89,11.88a35.88,35.88,0,0,1,4.39,4.59c-10.08,15,3,42.22,22.43,46.19.33-6.3.7-12.53,1-18.76.64-14.28,1.44-28.55,1.7-42.84a15.88,15.88,0,0,0-3-9.38c-7.42-9.57-15.67-18.5-23.06-28.09s-16.8-11.13-27.63-9c-17.32,3.47-34.63,6.95-51.88,10.74a29.88,29.88,0,0,0-11.42,4.79c-2.9,2.2-5.84,5.78-6.55,9.2-4.67,22.72-8.91,45.53-12.91,68.38-1.25,7.21-1,14.67-2,21.94-1.06,7.78-1.74,15-7.17,22.31-16.75,22.63-31.77,46.54-47.31,70.05a121.4,121.4,0,0,0-7.7,14.08c-1.95,4-.19,6.65,4.05,7.23a92.6,92.6,0,0,0,10.68.54c6.54.14,13.09.11,19.64.26,10.06.23,17.88,5,24,12.65,6.68,8.38,12.6,17.41,19.66,25.45,3.35,3.81,8.35,6.41,13,8.82,7.91,4.12,14.28.62,18.73-5.88,7.16-10.48,13.77-21.35,20.44-32.16,7.41-12,14.55-24.17,21.95-36.18A56.43,56.43,0,0,1,237.8,547c1.34-1.39,3.88-1.63,5.87-2.39-.21,2.14.26,4.7-.74,6.36q-18.8,31.1-38,62c-2.81,4.56-5.85,9-8.93,13.38-10.28,14.62-32.56,17.09-44.19,2q-8.35-10.86-16.44-21.92c-11-15-23.16-19.41-41.13-15.39,7.82,6.67,15.83,13.92,24.34,20.54,3.5,2.72,8,4.34,12.16,6,3.31,1.27,7,1.53,10.35,2.72,1.33.48,2.19,2.28,3.26,3.47-1.33.67-2.71,2-4,1.91-9-.71-17.75-2.37-25.1-8.15a47,47,0,0,1-6.21-5.56c-7.92-9-17.66-15.25-28.6-19.93-7.88-3.36-11.28-10.76-8.29-18.81a66,66,0,0,1,7.46-14.18c11.26-16.37,22.81-32.54,34.26-48.78,12.26-17.39,21.17-35.64,22.16-57.8,1.28-28.45,8.85-56,16.18-83.42.3-1.12.51-2.27,1.06-4.75-9.62,4.47-18.33,8.44-27,12.54-16.52,7.83-33,15.79-49.52,23.55a27.7,27.7,0,0,1-9,2.75c-9.53.86-18.52-.29-25.67-7.82C19.83,371.64,5,344.29.46,311.91c-1.25-9-.31-17.92,7.24-24.58C16.61,279.48,25,270.83,34.58,264,80.21,231.45,126.24,199.5,172,167.16c8.27-5.84,15.94-12.51,23.93-18.75,1.55-1.22,3.16-2.69,5-3.17,1.61-.42,3.54.38,5.33.63-.24,1.66,0,3.59-.85,4.89-1,1.61-2.8,2.76-4.32,4C153,194.43,100,227.21,49.64,263.7c-12.51,9.07-24.27,19.15-36.4,28.74A14.1,14.1,0,0,0,8.1,307.38c2.82,12.13,4.75,24.88,10.08,35.89,7.12,14.7,17,28.08,26,41.81,1.9,2.89,5.08,5,7.91,7.16C55.3,394.66,58.76,397,62.26,392.05ZM277.9,346.3c1,8,6,13.49,15,15.68,5.94,1.43,10.8-1,13.35-8.82a249,249,0,0,0,9.28-35.49c1-5.68-1.17-12.13-2.92-17.93-.66-2.15-4-4.37-6.49-4.91-4.92-1.06-16.37,5.86-17.75,10.8C284.62,319.11,281.36,332.73,277.9,346.3Zm97.23,89.89c-11.55,20.37-21.17,42.33-45.74,51.24,7.45,7.59,11.77,9.78,16.68,6.87,15.23-9,28.27-20.65,36.47-36.59C387.16,448.73,383.92,441.18,375.13,436.19Zm-31.69,20.88c-2.73-4.42-4.85-.87-7.33,1-10.4,7.68-20.83,15.33-31.41,23.11,2,5.06,6,5.48,11.72,2.58,4.92-2.49,10.43-3.81,15.48-6.08,3.76-1.68,8.25-3.24,10.6-6.27a350.89,350.89,0,0,0,23.26-32.87c4.45-7.3,1.86-16.4-4.24-22.39a5.1,5.1,0,0,0-.57,1,9.46,9.46,0,0,0-.51,2.32c-.58,12.5-4.9,23.09-15.08,31C344.11,451.41,344.23,454.14,343.44,457.07ZM273.11,339.62c2.33-10.66,4.76-21.77,7.36-33.68l-8.78,4.52c1.35,3.66,2.41,6.55,3.47,9.44-2.26,0-5.09.85-6.69-.19-9.59-6.2-16.1.83-23.77,4.24Z"/><path d="M379,8.14c-30.64-4-60.83-4.89-88.45,11.43.13.58.25,1.15.38,1.73,1.68-.57,3.39-1.05,5-1.72,29.31-12.2,58.76-14.71,88.17-.64,18.73,9,37,19.36,50.74,35,20.69,23.42,38.26,49.25,50.31,78.33,2.61,6.28,3.3,13.42,4.32,20.24.23,1.59-1.83,3.52-2.83,5.3-1.44-1.43-3.81-2.64-4.18-4.3-7.12-32.07-27.05-57.17-45.24-83.14-13.5-19.3-33.44-30.77-53.53-41.77C356.17,13.49,328,15.81,299.59,25.81c-3.58,1.26-5.17,3.39-6.34,7C283.37,62.9,269,90.7,247.39,114.11c-8.66,9.41-19.48,16.83-29.34,25.11A7.88,7.88,0,0,1,215,141a14.72,14.72,0,0,1-3.8-.08c.21-1.24,0-2.79.7-3.67a24.4,24.4,0,0,1,4.73-4.51c28.62-21.5,47.63-50.19,61.78-82.52,1.5-3.41,2.46-6.17.7-10.39-4.13-9.88-.77-19.19,8.13-25.74,10.35-7.62,22.36-11.54,34.87-12.7A369,369,0,0,1,364.78.14c5,.11,10,3.3,15,5.08C379.49,6.19,379.23,7.17,379,8.14Z"/><path d="M513.59,207.27c0,2.52.56,5.2-.09,7.54-4.58,16.6-11.62,32.08-22,45.92a42,42,0,0,1-5.23,5.69c-9.89,9.08-19.43,9.65-30.84,2.44-3.22-2-7-3.89-10.72-4.35-35.61-4.41-70.07,1.17-103.79,12.58-7.71,2.61-15.33,5.5-23.11,7.86-1.61.49-3.76-.8-5.65-1.27,1.12-1.59,1.89-4,3.41-4.67,44-18.64,89.34-29.55,137.56-21.85,5.05.8,10,2,15.8,3.13,5.47-12.06,11.94-24,16.35-36.68,4.32-12.41,6.56-25.55,9.71-38.36l2.33.09c.45,2.1,1.43,4.23,1.27,6.27-2.12,26.83-11.09,51-28.52,71.72-1.13,1.34-2.08,2.81-3.51,4.77a14,14,0,0,0,15.15-5,178.18,178.18,0,0,0,17.39-26c4.08-7.62,6.25-16.26,9.38-24.4a57,57,0,0,1,3-5.85Z"/><path d="M507.55,184.23c-7.33-74.15-46-128.36-106.51-168.66l.87-1.54c2.82,1.19,5.75,2.18,8.44,3.61,31.23,16.59,52.9,42.68,70.9,72.2,10.21,16.75,21.14,33.35,24.82,53.09,2.14,11.46,3.18,23.13,4.54,34.73.23,2-.4,4-.64,6Z"/><path d="M59.46,382.67c-1-1.59-2.35-3.05-2.82-4.78C49.87,353.25,35,333.07,20.87,312.46c-1.45-2.13-3.19-4.12-4.28-6.42-.53-1.13-.4-3.52.36-4.08s3.1-.44,4.2.26a15.51,15.51,0,0,1,4.07,4.27C39.55,327,54.48,347.13,60.58,372a95.84,95.84,0,0,1,1.39,9.9Z"/><path d="M281.21,215.15c-4.22-6.91-7.9-12.76-11.41-18.71-11.27-19.16-26.93-33.53-46.7-43.62-2.65-1.35-7.34-1.78-5.78-6.47.19-.57,5.86-.2,8.34,1C253.2,161,273.42,181,280.9,211.84A30.56,30.56,0,0,1,281.21,215.15Z"/><path d="M292.17,261.24c-1.17-2.72-2.24-4.37-2.58-6.16-1.45-7.54-2.85-15.1-3.85-22.71-.19-1.47,1.31-3.34,2.46-4.66.27-.32,2.64.52,3.37,1.39C295.25,233.49,296.07,254.52,292.17,261.24Z"/><path d="M236.3,421.63c6.75,16.08,9.23,33,8.1,50.72q-5.37-25.08-10.73-50.16Z"/><path d="M273.37,430.13c-1.32,6.6-2.44,12.48-3.75,18.31a2.81,2.81,0,0,1-2.14,1.57,3.14,3.14,0,0,1-2.29-1.42C262.15,443.58,266.58,432.75,273.37,430.13Z"/><path d="M312.6,412.64c-4.85-2.53-8.89-4.5-12.76-6.75-.71-.42-1.34-2.53-1-2.86a5.47,5.47,0,0,1,3.45-1.58C306.59,401.44,311.44,406.34,312.6,412.64Z"/><path d="M325.16,362.59a59.68,59.68,0,0,1-7.85-3.25c-1-.58-1.25-2.43-1.84-3.7,1.42-.24,3.22-1.15,4.17-.6a59.29,59.29,0,0,1,6.93,5.38Z"/><path d="M302.72,345.47c-1.46-4.53-1.68-9.23-4.14-11.52-1.84-1.72-6.57-.33-10.87-.32.26-1,.34-5,1.71-5.47a15.55,15.55,0,0,1,9.66-.11C305.79,330.29,307.65,338.38,302.72,345.47Z"/><path d="M296.43,350.35a59.74,59.74,0,0,1-7.36-1.2c-1-.3-1.75-1.65-2.61-2.53,1.19-.71,2.68-2.27,3.51-2,2.55.89,4.83,2.5,7.22,3.82C296.94,349.09,296.69,349.72,296.43,350.35Z"/></g></g></svg>
