<svg xmlns="http://www.w3.org/2000/svg" viewBox="0 0 583.96 584.7"><title>Recurso 6</title><g id="Capa_2" data-name="Capa 2"><g id="Capa_1-2" data-name="Capa 1"><path d="M224.62,91.4c-14.37,16.72-29.61,32.76-40.71,52a73.08,73.08,0,0,1-5.5,8.47c-.72.92-2.46,1-3.74,1.53-.32-1.33-1-2.71-.86-4a9.88,9.88,0,0,1,1.75-4.09c7.7-11.48,14.88-23.36,23.33-34.27q37.28-48.16,75.52-95.6A61.17,61.17,0,0,1,290.24,1.73c10.46-6.31,22.22,6,21.08,15.51-.47,3.87-.75,7.76-1.12,11.72,13-7.38,23.68-2,26.54,13,2.66,14-1.11,26.81-7.08,39.07-10.89,22.37-22.2,44.54-33.33,66.8-.79,1.58-1.47,3.23-2.21,4.84l1.23.72Q307,136,318.65,118.62c5.84-8.7,11.4-17.6,17.66-26,4.22-5.64,9-11.74,17.61-8.86,5.88,2,10.07,10.82,8.12,19.85-2.2,10.16-4.87,20.52-9.39,29.8-10.81,22.19-23,43.72-34.28,65.68C313,209.57,309.25,221,303.11,231c-14.8,24.05-20.83,51.79-33.5,76.69-14.81,29.1-33.47,55.87-56.25,78.75-32.12,32.26-58.21,68.72-83.1,106.38-5.88,8.9-12.24,17.47-18.34,26.23a52.83,52.83,0,0,0-4.84,7.55c-3.21,6.87-8.18,9.3-14.68,5.43-4.14-2.48-7.08-6.93-10.74-10.31-1.35-1.25-3.25-1.9-4.82-3a14,14,0,0,1-3.8-3c-11.61-16.14-26.69-28-44-37.55-7.26-4-13.84-9.56-20-15.26C-1.28,453.28-3.31,435.29,5.78,423s18-24.88,26.76-37.48c9.89-14.24,14.29-29.67,13.7-47.48-1.13-33.63-.56-67.33-.24-101,0-5,1.85-10.34,4-15,4.85-10.32,10-20.56,15.85-30.34,9.48-15.86,13.63-33.06,14.67-51.25.48-8.37.8-16.78,1.88-25.08.26-2,2.89-4.48,5-5.34,6.72-2.73,13.6-2.18,18.79,3.09,3.57,3.63,7.09,8.16,8.45,12.91,2.56,8.91,3.75,18.24,5,27.46.24,1.76-1.85,3.83-2.86,5.76-1.16-1.82-2.92-3.5-3.38-5.48C111.16,144,109.91,134,107,124.43c-1.88-6.11-6.87-10.19-14.26-9.45-5.37.54-6.55,2.22-6.37,7.61.81,23.8-.81,47.13-13,68.53-5,8.76-9,18.16-14.18,26.77a51.11,51.11,0,0,0-7.55,27.76c.38,31.8,1.06,63.59,1.66,95.39a79.48,79.48,0,0,1-14,47.07c-7.67,11.3-15.82,22.28-23.74,33.42-1.63,2.28-3.25,4.58-4.79,6.93-5.7,8.76-5.08,9.29,4.54,13.08,12.46,4.92,25.25,9.69,36.5,16.76,7.19,4.52,12.81,12.5,17.38,20,5.21,8.55,8.34,18.36,12.65,27.49a97.43,97.43,0,0,0,8.38,15.15,16.11,16.11,0,0,0,8,5.47c5.08,1.55,4.4-3.89,6-6.31,10.45-15.52,20.52-31.3,31.11-46.73,12.49-18.21,24.59-36.77,38.36-54,9.64-12,21.78-22.09,32.82-33,19.69-19.47,31.73-44.3,47.36-66.63,15.89-22.7,22.54-49.05,34-73.42,15.1-32,32-63.08,48.12-94.54,7.51-14.62,16.39-28.7,19.05-45.3a33.59,33.59,0,0,0-.41-11.61c-1.15-5.7-4.62-6.8-8.74-2.77a75.76,75.76,0,0,0-8.87,10.83c-15.8,22.74-31.27,45.71-47.29,68.29C282.86,181,275,190.1,267.35,199.31c-1.32,1.59-3.8,2.22-5.74,3.29.29-2.2,0-4.71,1-6.57,20-38.74,40.2-77.34,60.09-116.12,5.25-10.21,8.81-21.1,7.64-32.93a26,26,0,0,0-1-5.5c-1.37-4.19-3.34-9-8.13-8.8-2.86.13-6.38,3.42-8.19,6.21-19.29,29.65-38.21,59.53-57.48,89.19-2.19,3.37-5.93,5.71-8.87,8.62a21.85,21.85,0,0,0-2.74,3.52c-6.19,9.37-12.32,18.78-18.53,28.14a35.72,35.72,0,0,1-4.45,5.75c-.68.67-2.36.74-3.39.44-.44-.12-.85-2.11-.49-2.91a60.89,60.89,0,0,1,4.87-9.47Q247.38,124.52,273.07,87C283.16,72.37,294,58.18,300,41.18c2.52-7.19,4-14.75,6.09-22.09,1.68-5.82-1.41-10-5.87-11.7-2.95-1.14-7.21.83-10.8,1.72a6.58,6.58,0,0,0-3,2.46c-8.64,11-17.21,22-25.61,32.83L271.41,50c-6.08,3.56-12.06-3.47-16.58,1.84l13.51,4.55-.57,2.44c-4.82-.33-9.62-.75-14.44-1-1.24-.06-3.05.07-3.66.85-8.51,10.89-16.85,21.9-25.24,32.88ZM4.61,445.83c3,4.55,5,9.17,8.42,12.27a110.05,110.05,0,0,0,19.11,14.45c15.11,8.62,28.68,18.83,39,33a40.33,40.33,0,0,0,3,3.35C66.69,471.67,41.59,453.17,4.61,445.83Z"/><path d="M528.46,120.75c-9.75,12.91-9.85,26.5-5.5,40.52,2.17,6.95,5.1,13.67,7.49,20.56a12.86,12.86,0,0,1,.28,7.55c-11.35-7.54-12.23-20.57-18-31.74-2,9.25-3.86,18.55-6.12,27.74-1.14,4.66-3.07,9.12-4.61,13.68-.54,1.59-.95,3.21-1.5,4.79-1.06,3.05-1.48,6.64-3.39,9-16.05,20-32.38,39.77-48.64,59.59-3.79,4.61-7.39,9.42-11.54,13.69-7.73,7.94-18,11.61-28.31,14.07a26.22,26.22,0,0,1-32.45-25.14c-.35-19.28.88-38.61-.25-57.82-.64-10.8-4.16-21.54-7.34-32-1.76-5.76-5-6.29-10.69-3.87-11.5,4.88-14.53,14.86-15.4,26-1.58,20.33-2.68,40.7-4.55,61a127,127,0,0,1-14.37,48c-10.37,19.63-13.83,41.34-17.17,63.05-.92,6-4,11.69-6.33,17.44-8.81,21.94-21.74,40.92-40.3,55.83-1.75,1.4-3.44,2.89-5.1,4.41-12.09,11-14.77,22.14-6,36,12.67,20,23.73,40.62,32.27,62.7,2.3,6,6.38,11.53,10.73,16.28,7.78,8.49,15.32,6.22,19.67-4.46a56,56,0,0,1,9.46-15.43c6.86-7.86,15.05-14.57,21.83-22.49,19.7-23,43.36-40.23,70.86-53.07,24.22-11.3,47.84-24,71.08-37.26,23.66-13.48,44.75-30.36,57.71-55.13,9.18-17.57,17.48-35.61,26-53.53,1-2.07.9-4.69,1.15-7.08.7-6.88,1.07-13.8,2.13-20.61.27-1.74,2.61-3.15,4-4.72,1.07,1.62,3.06,3.24,3,4.84-.11,11.52,1,23.24-4,34.19-5.56,12.07-11.16,24.12-16.69,36.2a142.93,142.93,0,0,1-54,61.58c-25.82,16.46-52.5,32-80.26,44.86-33.42,15.44-61.25,37-85.4,64.27-8.79,9.92-18.06,19.19-24.77,30.93s-15.52,12.34-25.81,3.18a11,11,0,0,1-2-1.93c-10.45-15.93-26.47-26.42-39.34-40-9.16-9.67-13.91-20.63-13.33-33.36.52-11.3,1.69-23,5.22-33.61,2.5-7.5,8.42-14.69,14.55-20,17.25-15,31.08-32.14,40.73-53,5.53-11.9,6.12-24.55,8.52-37,3.33-17.3,7.76-34.27,16.47-49.88,9.77-17.51,13.7-36.65,15-56.48,1.07-16.61,1.95-33.24,3.51-49.81,1.08-11.57,5.8-21.6,17.27-26.31,13.49-5.54,19-2.9,22.45,8.53a168,168,0,0,1,7,36.12c1,14.13-.17,28.43-.35,42.66-.05,3.74-.11,7.5.19,11.22,1,13.06,9.37,18.67,22.5,17.19,13.8-1.55,24.16-7.76,32.68-18.41,14.84-18.56,29.79-37.06,45.26-55.09,6-6.95,10.44-13.32,11.44-23.21,1.74-17.26,5.84-34.32,15.63-49.33,1.26-1.93,1.25-4.64,2.09-6.9,2.59-6.93,5-14,8.14-20.65,1-2.18,4.43-5.17,5.93-4.77,3,.8,6.76,3.18,7.77,5.84,5.07,13.27,9.4,26.82,13.79,40.34.39,1.21-.66,2.89-1.05,4.34-1.21-.68-3-1.08-3.53-2.11A81.83,81.83,0,0,1,539,151.59C535.43,141.57,532.1,131.45,528.46,120.75ZM269.2,549.2c-4.71-21.35-18.38-37.09-28.88-55.33C235,520.6,253.67,533.65,269.2,549.2Z"/><path d="M550.52,234.13c4.33-2.55,6-.31,7.11,3.29,5.36,17.33,10.82,34.63,16.12,52,.6,2,.41,4.15.59,6.24l-1.9.93c-1.72-2.34-4.09-4.44-5-7.06-4.8-13.16-9.24-26.46-13.76-39.73-.7-2.07-1.14-4.24-1.72-6.43-8.36,4.39-13.28,17.8-11.29,28.41,2.13,11.39,6,21.94,12.74,31.4a18.53,18.53,0,0,1,1.6,2.94c.22.49.23,1.08-.55,2.81l-10.2-7.78v36.28l-2.2.49-4-5.53c-8.6,9.93-14.7,22.13-25.25,30.39l-2-1c.93-2.52,1.39-5.38,2.88-7.51q9.17-13.11,18.9-25.82c3.09-4,4.3-8.17,4.54-13.33.28-6.14,2.42-12.18,3.71-18.28a5,5,0,0,0,.09-2.52c-1.9-5.61-3.9-11.19-6.27-17.9l-25.77,30.28-2.07-1.3c1.1-3.24,1.48-7,3.45-9.61,6.44-8.44,13.51-16.4,20.25-24.62,1.2-1.46,2.62-3.17,2.87-4.92,1.52-10.82,6.42-20.14,12-29.19-9.69-18.73-12.79-37.86-1.7-57.44a33.8,33.8,0,0,1,5.17-7.3c1.72-1.72,4.9-4.23,6.2-3.65,2.92,1.31,6.46,3.9,7.31,6.71,7.11,23.45,13.62,47.09,20.39,70.64,2.67,9.27.69,18.2-1.82,27.06-.48,1.72-2.14,3.1-3.26,4.63l-1.77-.3c-.3-2.77-1.35-5.69-.79-8.27,3-13.87-1.15-26.63-5.14-39.55-5.4-17.5-10.41-35.11-15.7-53.05C540.23,194.67,543.61,213.88,550.52,234.13Z"/><path d="M215.31,73.9l3.41,3c-1.59.43-2.52.74-3.48.94-1.73.36-4,.06-5.11,1.08C203.91,84.9,198,91.14,191.74,97.49l4.31,3.92c-.16.52-.33,1-.5,1.56l-9.43-.69,7.06,3.88c-.08.51-.17,1-.25,1.54-2.45.27-5.21,1.39-7.29.63-4.54-1.66-6.78.85-9.51,3.5-26.27,25.45-51.66,51.75-70.87,83.08-10.33,16.85-18.66,34.93-27.89,52.45a71.19,71.19,0,0,1-7.54,12.15c-1.81-7.83,3.35-13.87,4.41-21-1.83,2.72-3.51,5.55-5.54,8.1-.79,1-2.36,1.38-3.57,2-.29-1.49-1.2-3.19-.76-4.42a34.34,34.34,0,0,1,4.21-8.52c6-8.36,12.2-16.55,18.36-24.77,1.57-2.1,3.56-3.92,4.88-6.14,25.4-43,58.83-79.14,94.85-113.25,15.06-14.27,28.85-29.87,43.3-44.79,2.31-2.39,4.74-5,7.65-6.39,2.22-1.05,5.34-.62,8-.21,1,.14,1.65,2.12,2.46,3.26-1.13.74-2.21,1.54-3.38,2.19-3,1.64-6.61,2.59-8.81,4.92C228.82,57.91,222.32,65.83,215.31,73.9Z"/><path d="M514.61,249.51c-4.65,6.06-8.73,11.41-12.86,16.73-1,1.33-2,2.89-3.37,3.72-1.71,1-3.82,1.44-5.76,2.12.21-1.91-.15-4.17.74-5.66A85,85,0,0,1,501.47,255c10.88-12.76,19-26.58,20.3-43.9.44-5.83,3-11.54,5-17.19.43-1.24,2.26-2,3.44-3,.72,1.37,2.08,2.76,2,4.1a78.92,78.92,0,0,1-1.35,10c-1,5.9-1.69,11.87-3.09,17.67-2.21,9.19-4.67,18.34-7.5,27.35C519,254.1,516.56,253.74,514.61,249.51Z"/><path d="M499.88,364.08c-.44-4.35-1.21-8.69-1.25-13-.18-19.14-1.83-38.05-7.74-56.38-3-9.31-6.74-18.21-13.87-25.3-.84-.82-.82-2.51-1.2-3.79,1.49.11,3.79-.34,4.34.44,4.16,5.9,9,11.62,11.71,18.19,9.87,23.91,11.93,49.19,11.26,74.78-.05,1.76-.83,3.5-1.27,5.26Z"/><path d="M367.22,389.55c9.85-9.81,75.62-13.47,90.11-4.38C426.89,379.3,397.15,386.2,367.22,389.55Z"/><path d="M302,418.32l19.4,39.19C312.4,453.8,298.74,427.49,302,418.32Z"/><path d="M119.73,237.13l-29,58.12C89.34,288.61,108.71,249.62,119.73,237.13Z"/><path d="M164.89,261.2q-12.37,25.56-24.76,51.1l-1.8-.85q12.24-25.63,24.47-51.28Z"/><path d="M310.4,421c7.79,15.09,15.4,29.85,22.4,43.42C325.93,459.91,311.13,432.52,310.4,421Z"/><path d="M90.55,384.73c14.38,5.6,25,17.78,34.63,31.25Z"/><path d="M302.75,88.31a54.17,54.17,0,0,1-7.43-2.41c-1.3-.61-2.11-2.25-3.14-3.43l4.65-2.42,1.6-3.87c2.3,2,4.95,3.67,6.69,6C305.69,83,303.9,85.52,302.75,88.31Z"/><path d="M224.43,91.6c4.89.68,9.88,1,14.63,2.2,2.29.59,4.12,3,6.16,4.51-.27.47-.55.94-.82,1.42-6.08-1.21-12.21-2.25-18.21-3.81-.85-.22-1.06-2.94-1.57-4.51Z"/><path d="M124.45,428.62l-21.24-25.13,1.4-1.2C113.67,409,119.93,418.12,124.45,428.62Z"/><path d="M294.83,175c4.95-1.08,1.63-9.14,8.23-6.1,1.54.7,2.62,2.37,3.91,3.6l-3.08,3.24,2.3,3.9-.69.91Z"/><path d="M252.13,238.09c-3.22-6.85,1.49-16.18,8.85-16.91Z"/><path d="M509.61,309c3,6.32,2.92,13.06,2.41,19.85l-2.24.3-2.73-19.8Z"/><path d="M360.66,274.88a87.12,87.12,0,0,1-10.2,3.08c-1.11.21-2.56-1.44-3.85-2.24.86-1.25,1.62-3.47,2.62-3.59a92,92,0,0,1,11-.17C360.39,272.93,360.53,273.91,360.66,274.88Z"/><path d="M348.77,251.59c.26-6.32,7.25-9.83,17.85-9.05Z"/><path d="M273.61,139.79c-4.05-1.13-8.13-2.16-12.11-3.46-.81-.27-1.27-1.58-1.9-2.41,1-.63,2-1.83,3-1.81C267.51,132.23,271.46,134.27,273.61,139.79Z"/><path d="M221,198.41c-2.64-6.36.25-12.43,7.24-15.5C225.4,189,223.19,193.69,221,198.41Z"/><path d="M330.33,139.8a70.17,70.17,0,0,1-8.5-3.15c-.9-.46-1.07-2.37-1.57-3.62,1.31-.4,3-1.52,3.87-1.06a70,70,0,0,1,7.67,5.26Z"/><path d="M322.51,52.45c-2.2.84-4.48,2.46-6.58,2.27-1.86-.18-3.54-2.38-5.29-3.69,1.73-.66,3.44-1.78,5.21-1.88,2.08-.12,4.2.64,6.3,1Z"/><path d="M236.92,209.38c1.11-3,2.09-6.11,3.41-9,.35-.76,2.22-1.7,2.56-1.44.9.66,1.92,2,1.86,3C244.48,206,242.69,209.16,236.92,209.38Z"/><path d="M270,248.28c1-3.33,1.82-6.69,3-9.94a2.82,2.82,0,0,1,2.6-1c.77.38,1.69,1.93,1.46,2.6-1.12,3.23-2.6,6.33-3.95,9.47Z"/><path d="M179.64,163.6l-9.52,9.91C169.87,166.31,173.4,162.77,179.64,163.6Z"/><path d="M191.9,184c1.43-2.79,2.69-5.69,4.38-8.32a3.33,3.33,0,0,1,3.22-.77c.72.45,1.31,2.59.86,3.2-1.92,2.62-4.24,4.95-6.42,7.39Z"/><path d="M350.29,100.24c-1.5,3.8-3.94,5.68-7.72,4.38-.9-.32-2-3.25-1.52-3.86C343.67,97.33,346.86,97.91,350.29,100.24Z"/><path d="M289.53,25.86c-3.11,1.48-5.91.71-8-2.08-.5-.66.23-2.24.4-3.4l8.44,3.05Z"/><path d="M275.92,131.94l-13.63-4.26C268.28,123.83,272.52,125.24,275.92,131.94Z"/><path d="M334.94,131.44a61.51,61.51,0,0,1-6.81-3.89c-.71-.52-.89-2.26-.67-3.31.09-.43,2.24-1,2.82-.65,2.32,1.62,4.4,3.6,6.57,5.45Z"/><path d="M151.07,167.68c.54-2,.65-4.23,1.75-5.82s3.06-2.22,4.66-3.3c-.3,2-.15,4.21-1,5.9s-2.71,2.65-4.14,3.94Z"/><path d="M233.51,104.42l-12.16-1C226.1,98.92,229.38,99.1,233.51,104.42Z"/><path d="M508.5,382.32l-1.58-10.08,2.46-.4c3.07,3,2.5,6.56,1.22,10.31Z"/></g></g></svg>
