<svg xmlns="http://www.w3.org/2000/svg" viewBox="0 0 328.5 519.93"><title>Recurso 8</title><g id="Capa_2" data-name="Capa 2"><g id="Capa_1-2" data-name="Capa 1"><path d="M202.16,53.46c1.8,2.3,4.58,4.36,5.24,6.95,2.17,8.52,3.56,17.22,5.4,26.6,11.14-2.74,21.53,1.94,32,6.68,19.85,9,33.92,23.49,41.78,43.86,2.95,7.66,5.85,15.34,8.43,23.12,6,18,15.49,33.68,29.31,46.73,1.7,1.61,3.18,3.44,4.21,4.57l-9.84,10.51-2.34-1.95,6.33-9.05c-17.93-11.89-26.59-30.31-33.65-49.88-3.87-10.75-7.46-21.7-12.5-31.92-11-22.37-31.66-31.8-53.85-38.71l-.78,1.46a30.08,30.08,0,0,0,4.86,2.12c19.46,4.77,31.72,19.4,32.82,39.14a17.16,17.16,0,0,0,1.51,6.14c6.11,13.07,12.75,25.91,18.46,39.15,5.94,13.79,11.44,27.69,25.32,35.74,3,1.76,6.24,3.23,9.36,4.84-.19.81-.39,1.61-.59,2.42-3.18-.58-6.68-.5-9.48-1.87-11.14-5.43-18.86-14.33-23.71-25.61-4.27-9.91-8-20-12.2-30a97.9,97.9,0,0,0-7.89-15.29c-3.36,33.61-1.46,65.11,31.49,82.81-1.8,14.88-3.24,28.58-1,42.89-14.19,1-24.75-6.05-33-17.18a65.15,65.15,0,0,1-12.57-37.57c-.5-18.52.95-37.08,1-55.62.06-18-7.14-33.11-20.12-45.49-1.06-1-2.31-1.84-3-1L202.1,127c0,3.84.09,9.81,0,15.77-.2,11.44-1.19,22.91-.61,34.3.58,11.6,2.73,23.11,4,34.68,1.21,10.71,2.14,21.44,3.39,32.15a10.09,10.09,0,0,0,2.24,5c13.2,15.41,23.12,32.83,31.09,51.37,1.24,2.88,1.79,7,.72,9.76a159.4,159.4,0,0,1-9.69,19.67c-10.64,19.24-21.75,38.23-32,57.7-2.32,4.41-2.85,10.44-2.33,15.53,1.31,12.65,3.81,25.17,5.6,37.77a21,21,0,0,1-1.36,10.5c-1-1.92-2.43-3.75-2.81-5.78-3-15.89-6.14-31.76-8.28-47.77-.59-4.4,1.71-9.38,3.36-13.84,7.7-20.84,19.28-39.52,32-57.62,4.24-6.05,7.18-13,11.57-21.15l-20.85,6.84L216.83,309l17.07-10c-1.07-2-2.23-4.12-3.49-6.45l-20.09,7.07-1.15-2.46,17.58-12.66-29.07-39.44-9.55,5.59-1.32-1.18c1.05-2.63,2.11-5.26,3.16-7.88-.16-.54-.33-1.07-.49-1.6l-12.36,6.89c.71-3.33,1.18-5.53,2-9.14C163.69,239,148,230.44,133.73,244a33.15,33.15,0,0,1-.82-4,22,22,0,0,1,.27-3H115.4c-5.29,9.67-2,14.37-30.87,8.2,1.8,4.43,2.71,8.42,4.85,11.58,5.68,8.37,14.13,13.37,23.57,16.27,4.9,1.5,10.27,1.48,15.43,2.07,5.31.61,10.63,1.14,16.21,1.73,0-3.47-.43-6.23.11-8.78.63-2.92,2.91-4.23,5-1.33,5.81,7.93,11.31,16.09,16.91,24.18.21.32.16.82.61,3.39-4.18-2.22-7.51-3.51-10.24-5.58-3.29-2.5-6.11-3.84-10.51-2.34-9.36,3.22-19,5.72-28.49,8.49-2.19.64-4.41,1.18-7.89,2.11l4.66-6.23-19.94,4.83c-.25-.64-.49-1.29-.73-1.93l29.94-13.1-18.8-3c-8.91,14.95-21.73,17.57-36.43,6.89q-8.94,9.79-18,19.72l-1.35-1.13c2.78-9.29,7.54-17.15,17.14-22.14-.71-1.77-1.47-3.68-2.59-6.51-5.81,11.76-14.84,16-26.72,13.6-11.31-2.26-18.26-10-22.9-20.22l-2.24.74c2.22,12.45,3,25.37,7,37.26C27.54,331.26,38,356,52.32,378.8c13.21,21.16,20.61,44,21.6,69,.35,8.83,1.72,17.61,2.7,26.41.42,3.77,1.63,4.55,6,3.46,17.19-4.3,34.07-4.8,49.56,6.41a337.6,337.6,0,0,0,30.35,19.82c10.51,6,22,8.92,34.31,6.29,9.12-2,11.43-5.72,9.89-14.72-1.5-8.72-3-17.45-4.1-26.22-.48-3.7-.08-7.52-.08-11.28l2.06-.47c1,2.12,2.32,4.15,2.84,6.37,2.48,10.5,4.93,21,7,31.59,2.17,11.07-2.87,19-13.91,22-10.81,2.95-21.36,1.17-31.88-2a16.21,16.21,0,0,0-8.95.08c-22.4,6.85-43.91,6.72-63.68-7.61C89.6,503.26,82.7,498.85,77.47,493a43.3,43.3,0,0,1-11.1-31.71c1.74-32.11-9-60-26.28-86.41-8.85-13.49-15.92-28.18-23.35-42.55-7.89-15.28-9.91-32.18-11.27-48.94Q1.95,239.87,0,196.19c-.88-20,12.67-33.9,32.59-35.14a82.87,82.87,0,0,0,8.6-1.44c1.62-8.9,5.41-16.89,13.74-22,7.9-4.89,15.82-5.16,23.84-.32,5,3,10,6,15.17,9.1,6.56-11.17,16.38-15.52,29-14,5.69.7,10.64,3,13,8.36,4.93,11.25,13.36,21.47,10,35.34l2.4-.29c0-14.69.09-29.39-.11-44.09a7.47,7.47,0,0,0-2.5-4.87c-4.48-3.87-6-8.58-5.86-14.39.57-18.36.87-36.73,1.34-55.09a25.44,25.44,0,0,1,.85-5.74c1-4,2.2-8,7.54-4.84,1.13-9.35,1.65-18.24,3.35-26.89,4.43-22.5,24.36-22.51,39-16.45,2.06.85,3.89,4.5,4.19,7,1.72,14.57,2.94,29.19,4.33,43.79Zm-47.24,78.47c-.8,22.29-1.59,44-2.39,66.39l-9.12-4c2.61,12.11,4.94,22.94,7.31,33.92,17.76.81,35.8-.49,50.15,11.63-3.24-37.31-6.46-74.26-9.71-111.61C180.25,134.15,167.74,134.22,154.92,131.93ZM72.09,276.09c2-9.06,3.13-10.14,12-11.61-3-10-6-20.12-9.1-30.61A65.58,65.58,0,0,1,67.36,238c-1.29.51-3-.18-4.59-.32a34.5,34.5,0,0,1,2-4.26,3.84,3.84,0,0,1,2.17-1.33c10-2.65,19.28-9.74,30.55-5.29.45.18,1.15-.31.5-.11-2.37-20-5.16-39.67-6.86-59.4C90,154.68,84.43,147,72,143.78c-6.54-1.67-11.64.68-17.26,4.91H67.24c.07.47.15.94.23,1.41l-18.93,8.55C44.48,199.27,60.71,237.21,72.09,276.09Zm-32.58,6.29c9.35.47,14.27-2.57,17.1-9.58,3.28-8.12,1.44-16.09-.51-24.13-4.78-19.68-9.62-39.36-14-59.13-1.37-6.21-1.29-12.73-1.9-19.37-3.84.48-7.1.56-10.18,1.35-11.15,2.82-25.24,12.16-22,30,1.58,8.67,1.5,17.62,2.45,26.41,1.65,15.1,4.61,29.93,12.69,43.06,2.34,3.79,6.35,6.56,9.59,9.79l1.39-1.32c-.8-4.76-5.28-10,.82-14,5-3.25,10.74-4.06,15.75-.25,2.11,1.62,2.91,5,4.36,7.6l-13.67-3.55C40.82,273.51,40.2,277.7,39.51,282.38Zm102.25-54.23c-2-15.06-4.2-29.71-5.83-44.42-1.2-10.89-1.11-21.95-2.64-32.78-1.18-8.36-6.73-12-15.13-12-11.65,0-19.11,7.64-19.54,21.09-.74,23,3.22,45.43,8.13,68.13ZM194.7,94.91c-7.78-3.87-16.52-7.55-24.58-12.38s-15.28-10.74-24-17c0,17.08-.16,33.18.18,49.28a9.78,9.78,0,0,0,3.87,6.75c12.63,8.77,26,6.86,39.15,1.38,2.4-1,4.81-4.75,5.1-7.46C195.19,108.76,194.7,101.88,194.7,94.91Zm-1.29-47.38c-.75-9.43-1.78-22.94-2.95-36.45A4.61,4.61,0,0,0,188.7,8c-9.2-6.11-25.89-.63-28.4,10.08a114.2,114.2,0,0,0-2.9,27.51c.07,4.49-3.54,10.87,2.45,13.87,4.51,2.25,9.87,2.86,14.91,3.91a27.31,27.31,0,0,0,6.46.1C192.56,63.11,192.76,62.9,193.41,47.53Zm92.19,187c-20.72-9.61-27.78-28.34-33.09-48.35a146.7,146.7,0,0,0-1.74,19.33c-.1,16.59,2.11,32.73,11.29,47.09,5.42,8.46,13.14,14,23.18,18.17C283.63,258,279.67,246.62,285.6,234.54ZM155.77,509.84c-7.94-5.52-16.2-10.28-23.28-16.4-15.08-13-32.23-13.67-51.31-10.14,4.14,9,11.6,14.11,19,19.13C117.12,514,135.62,516.17,155.77,509.84ZM202.16,63.53c-8.25,1.56-15.23,3.62-22.3,4-7.29.41-14.68-.79-22-1.28,10.33,7.85,21.64,14.44,32.6,21.55,6.08,3.93,11.26,4.14,16.66-1.59C205.38,78.34,203.61,70.19,202.16,63.53Zm25.29,37.81c-2.74,6.43-.29,10.32,3.73,15.13,6.55,7.83,11.61,16.94,16.91,25.75,1.79,3,2.39,6.67,3.86,11C258.3,118.9,243.3,104.69,227.45,101.34Zm-25.74-4c-4.33,7.91-4.22,15.12-.17,19.69,3.27,3.7,7.37,3.5,11.16,1.36,2.4-1.36,4.19-3.8,6.25-5.75l-1.62-1.49-3.4,3.69c-2.24-8.43-4.27-16.08-6.3-23.74l-1.92.29L207.84,109l-2.16.34C204.44,105.6,203.2,101.83,201.71,97.33ZM81.28,283.9c10.93.87,12.64-.13,17.12-9.82a21.41,21.41,0,0,1-2.73-2.44c-4.2-5.19-8.94-4.68-14-1.53s-.68,6.16.1,9.29C82.05,280.7,81.48,282.23,81.28,283.9Zm26.39-47.5-21.94-3.72-.88,2.38c5.21,7.08,13.83,6.63,21.93,8.22C107.1,240.8,107.36,238.77,107.67,236.4Zm113-130.6,1.89-1.3-6.45-13.07-2.15,1.06C218.19,95.92,213.6,103.73,220.62,105.8Z"/><path d="M151.74,370.19c-28.4-5.82-53.9-3.51-77.58,11.51,4.23-9.27,12.32-12.39,20.67-14.61C118.89,360.69,143.31,361.51,151.74,370.19Z"/><path d="M107,381.91,84,394.24C82.52,387.6,96.2,380.19,107,381.91Z"/><path d="M180.51,404.34c-2.63-8.56-5.11-15.85-1.43-23.38.68-1.38,3.4-1.76,5.1-2.56C182.93,387.23,181.84,395,180.51,404.34Z"/><path d="M184.87,188.38l-24.7,1.1C164.84,183.67,176.56,183.45,184.87,188.38Z"/><path d="M169.3,144.72c-2.25.25-4.56.92-6.73.62-1.47-.21-2.75-1.8-4.11-2.77,1.41-.69,2.88-2,4.21-1.92,2.38.22,4.67,1.34,7,2.08C169.54,143.39,169.42,144.06,169.3,144.72Z"/><path d="M175.07,194.18l-13.93,1.71C164.45,190.73,168.79,190.62,175.07,194.18Z"/><path d="M169.36,149.93l12.65-.71.15,2.6-12.65.74Z"/><path d="M49.67,169.52c3.39-6.47,10.13-9.41,18.33-6.75l-17.39,8.84C50.3,170.91,50,170.22,49.67,169.52Z"/><path d="M30.29,177.17c-3.59,3.92-7,8-10.87,11.66-1.06,1-3.21.89-4.87,1.29,0-1.58-.58-3.64.18-4.66C18.5,180.45,23.2,176.68,30.29,177.17Z"/><path d="M38.49,249.51,26,255.15c-.33-.74-.66-1.49-1-2.23C28.28,249,32.47,247.17,38.49,249.51Z"/><path d="M121.8,148.56c-4.68,1.9-9.3,3.94-14.07,5.58-1,.36-2.57-.69-3.87-1.09.48-1.28.58-3.21,1.49-3.73C110.42,146.41,115.75,144.44,121.8,148.56Z"/><path d="M102.48,160.71l10.6-4.15,1.11,2.52-10.09,5.19Z"/><path d="M123.86,221.33l-14.17,2.5C112.51,218.13,115.74,217.53,123.86,221.33Z"/></g></g></svg>
