<?xml version="1.0" encoding="utf-8"?>
<!-- Generator: Adobe Illustrator 22.1.0, SVG Export Plug-In . SVG Version: 6.00 Build 0)  -->
<svg version="1.1" id="Capa_1" xmlns="http://www.w3.org/2000/svg" xmlns:xlink="http://www.w3.org/1999/xlink" x="0px" y="0px"
	 viewBox="0 0 87.3 138.2" style="enable-background:new 0 0 87.3 138.2;" xml:space="preserve">
<style type="text/css">
	.st0{fill:#FFFFFF;}
</style>
<g>
	<g>
		<path class="st0" d="M43.7,138.2C19.6,138.2,0,118.6,0,94.6V43.7C0,19.6,19.6,0,43.7,0c24.1,0,43.7,19.6,43.7,43.7v50.9
			C87.3,118.6,67.7,138.2,43.7,138.2z M43.7,7C23.4,7,7,23.4,7,43.7v50.9c0,20.2,16.4,36.7,36.7,36.7s36.7-16.4,36.7-36.7V43.7
			C80.3,23.4,63.9,7,43.7,7z"/>
	</g>
	<g>
		<path class="st0" d="M43.7,68.7c-1.9,0-3.5-1.6-3.5-3.5V35.6c0-1.9,1.6-3.5,3.5-3.5c1.9,0,3.5,1.6,3.5,3.5v29.6
			C47.2,67.1,45.6,68.7,43.7,68.7z"/>
	</g>
</g>
</svg>
