<svg xmlns="http://www.w3.org/2000/svg" viewBox="0 0 324.21 460.19"><title>Recurso 3</title><g id="Capa_2" data-name="Capa 2"><g id="Capa_1-2" data-name="Capa 1"><path d="M49.77,67.78c1-16.05.14-34,19.88-39.46,16.84-4.66,31.35,1.45,40.92,14.84,1.12-6.63,1.82-14.25,3.75-21.53C119,4.15,138.61-4.55,155.44,2.39,169,8,180.09,16.12,187.56,28.88a3,3,0,0,0,.93.76c2-4.05,3.75-8.21,6.13-11.93,4.21-6.58,10.56-9.52,18.33-9,16.65,1,30.73,11.26,32.93,29.61,1.44,12.06,2.23,24.19,3.36,36.28.53,5.6,1.19,11.19,1.89,17.73,5.62-.29,10.89-.22,16.07-.9,21.21-2.77,29.43,2.45,34.88,23.16A369.76,369.76,0,0,0,319.58,166c3.15,7.4,2.78,16.25,4.52,24.32.9,4.12-4.15,6.32-2.12,11.21,1.34,3.24-.73,8.07-1.72,12.08A167,167,0,0,1,300.4,260.9c-8.16,13.37-16.83,26.45-24.46,40.11a274,274,0,0,0-15.74,33.34c-1.6,4.06-.61,9.52.29,14.12,3.71,18.79,7.85,37.49,11.8,56.24.55,2.6,1,5.23,1.41,7.86.2,1.48.61,3.2.07,4.45-2.48,5.79-4.3,12.26-8.23,16.89-3.27,3.85-8.87,6.48-13.93,7.9-16.5,4.62-33.59,4.65-50.59,4.87-1.73,0-3.47-1.18-4.87-1.69-10.05,4-20.06,8.56-30.41,12.1-23.3,8-46.11.33-57.07-20-4.23-7.85-6.13-17.2-7.81-26.1-2.8-14.88-3.89-30.09-7-44.88-2.09-9.83-6.35-19.22-9.94-28.7A9.55,9.55,0,0,0,79.64,333c-13.34-7.27-23.3-17.63-29.52-31.51-9.69-21.6-14.9-44.35-18.45-67.68C30,223,28,211.52,22.77,202.2,8.36,176.24,5,147.69.75,119.33-.76,109.1.37,98.39,1.05,88A29.73,29.73,0,0,1,9.76,68.75C14.83,63.6,20.82,61.58,28,63.14S42.14,66.16,49.77,67.78Zm227,30c-4.86.56-9,.91-13.08,1.54s-8.09,1.72-12.18,2.23c-2.6.33-5.32-.32-7.94,0-17,1.8-34.15,3.29-51.09,5.83-7.44,1.12-14.66,4.2-21.74,7-1.78.7-4.1,4.09-3.7,5.6,1.61,6.21,2.66,13.53,6.67,18,11.25,12.46,25.6,20.53,43,17.55,13.48-2.3,26.57-6.88,39.83-10.44,1.93-.52,3.88-1,5.81-1.45l1,1.71c-3.54,3.08-6.66,6.95-10.7,9-6.13,3.18-8.66,7.85-9.1,14.31-.42,6-1,12.05-1.55,18.08l-1.8.19c-1.34-5.76-2.68-11.52-3.9-16.8-16.94,5.82-33.5,11.9-50.3,17.21-24.15,7.62-45.76,18.47-58.67,41.78-.85,1.54-2.64,2.55-4,3.81l-1.32-1c1.3-10.7,9-18.1,16-27.23-11.67,6-21.61,4.73-30.81-2-3.46-2.55-6.22-6-9.48-8.85C94,190.34,90,187.2,86,184a12.3,12.3,0,0,0,1,6c1.56,4.29,5.25,7.79,2.1,13.38s-3.86,12.35-7,17.84c-4.93,8.64-12.85,10.08-21.53,4.72-3.38-2.09-6.18-5.09-9.52-7.26-4.87-3.16-10-6-15.43-9.15,3,13.95,5.34,26.7,8.44,39.27,3.57,14.53,7.46,29,11.8,43.31,3.12,10.25,9.6,18.52,17.49,25.76C81,324.8,90.45,328,100,331.1a59.41,59.41,0,0,1,6.52,3.07c-.17.59-.33,1.18-.49,1.76l-14.81,1.8c11.19,22.47,15.26,46.51,17.87,70.93a83.58,83.58,0,0,0,2.77,13.7c6.29,22.52,23.91,32.18,46.06,27.74a95.29,95.29,0,0,0,41.85-19.24,171.06,171.06,0,0,1,23.4-16.19c12.46-7,25.49-13,41-5.56-.56-2.88-1-5.09-1.41-7.31-2.8-16.58-6.21-33.09-8.14-49.77-1-8.94-3.05-18.31,1.83-27.24,6.28-11.51,11.1-23.9,18.09-34.93,18.71-29.53,36.26-59.44,42.89-94.38.12-.63-.57-1.41-.76-1.84l-14.1,7-1-1.49a33.62,33.62,0,0,1,3-4.28c3-3.13,6.08-6.18,9.26-9.11,2.73-2.5,3-5.12,1.36-8.06l-11.74,7.2-.95-1.14c2.87-3.81,6-7.49,8.51-11.5a7.77,7.77,0,0,0,.84-5.78c-5.64-17.39-11.49-34.72-17.37-52-1.2-3.54-2.78-7-4.42-11-1.86,3.87-3.26,6.78-4.67,9.69l-1.35-.48c0-2.74-.09-5.49,0-8.22.22-5.17.19-5.29-3.51-5.92l-2.7,12.11-1.92-.4C276.18,106.29,276.46,102.4,276.8,97.73ZM187.14,38.86c-2.55-2.81-4.85-4.84-6.55-7.3-7.15-10.32-15.61-18.83-28-22.93-12.14-4-26.37,1.37-30.36,12.14-3,8.06-4.42,16.29-2.87,25,6.12,34.42,12,68.9,18.22,103.3,1.25,6.82,3.71,13.46,6.09,20,2.17,5.94,6.22,9.56,13.25,8.71,5.11-.62,10.29-.76,15.44-1a49.77,49.77,0,0,1,5.58.36l.19,1.93c-9.29,9.35-20.9,7.51-33,5.45,2,7-.11,13-5.57,18.61,16-10.85,33.16-16.88,49.83-23.44-3.36-8.23-10-15.51-7-26-2.85-2.21-6.27-4.84-9.65-7.52a33.28,33.28,0,0,1-13-24.7c-.21-3.4,1.11-8,3.45-10.19a27.19,27.19,0,0,1,12.52-6.69C197.85,100,220.09,96,241.84,91.9c-.36-10.12-.16-19.77-1.18-29.29-1.15-10.7-2.56-21.52-5.43-31.86-2.68-9.68-14.3-15.48-25-14.36-7,.73-12.31,6.29-13.59,16.93-2.36,19.5-3.7,39.11-5.56,58.67-.3,3.17,1.22,8.27-4,8.07-4.67-.17-3.56-5-3.38-8.08C184.71,74,186,56.09,187.14,38.86ZM128.05,139.09c-5.35-30.06-10.55-59.34-15.47-87-2.83-1.9-5.25-2.75-6.45-4.45-7-10-16.65-14.38-28.65-14.1C68.06,33.78,60.61,38.81,59.1,48s-2.7,18.7-1.42,27.71c4.83,34.16,15.71,66.64,29.91,98a15.9,15.9,0,0,0,3.11,5.08c5.51,5.2,11.16,10.27,16.89,15.23,6.21,5.37,13.21,8.43,21.61,6.14,4.4-1.2,8.52-3.69,9.2-8.23a41.13,41.13,0,0,0-.41-15.76c-3.41-13.58-10.2-25.85-16.32-38.35a21.86,21.86,0,0,1-1.13-4.64l1.43-.74Zm-59.42,79c3.69.77,3.92.67,6.1-2.75,8.08-12.73,7.23-24-3.51-37a56.36,56.36,0,0,1-12-25.45c-3.46-17.63-6.39-35.36-9.72-53-.7-3.71-.36-6.28,5-6.54-4.6-6.12.54-15.58-9.09-19.06-.37,1.33-.64,2.33-.84,3C38.12,75,32,72.54,25.81,70.53a9.49,9.49,0,0,0-6.14.09c-5.76,2.5-8.47,7.46-10.15,14.18,4.57-2.77,8-6.35,14.7-4.21L8.45,92.14c0,8.1-1.2,17.43.24,26.33,3.23,19.85,8.08,39.44,11.7,59.24,2.68,14.66,12.44,22.08,25.21,27a12.45,12.45,0,0,1,3.54,1.63c3.14,2.6,6,5.59,9.28,8,1,.74,3.28.57,4.59,0,3.31-1.53,6.41-3.53,9.59-5.34l1.28,1.44C72.12,213,70.36,215.6,68.63,218.13ZM200.7,440.43c4.42-.34,7.57-.45,10.68-.84,13.2-1.62,26.43-3,39.54-5.16a18.67,18.67,0,0,0,9.35-5.18c5.08-5,2.74-13.54-4.23-14.73a32.56,32.56,0,0,0-14.65,1C226.2,420.22,213.93,430,200.7,440.43Zm-14.57-285-1.26,1.45c3.24,6.4,6.35,12.88,9.87,19.12.56,1,3.23,1.68,4.49,1.25q17.43-6,34.66-12.57c1.48-.56,2.56-2.2,3.83-3.34-.24-.42-.48-.84-.73-1.26C219.78,161.65,202.28,166.83,186.13,155.41Zm-119.56-15C63.51,147.53,69,161.85,78,169.3Z"/><path d="M115.21,298.69c32.66,12.08,65.56,11,98.6,1.75l.54,2.35c-2.59,1.44-5,3.26-7.79,4.25a112.5,112.5,0,0,1-70.05,2.52c-5.6-1.56-11.11-3.44-16.59-5.37a34.38,34.38,0,0,1-5.26-2.92C114.84,300.41,115,299.55,115.21,298.69Z"/><path d="M174.39,114.19c11.82,7,23.52,5.49,35.8.93-.81-1.25-1.35-1.75-1.46-2.32-.32-1.66-.46-3.35-.66-5,2,.81,4.75,1.06,5.72,2.53,2.86,4.27,1.59,8.91-3.35,10.61-11.47,4-23.22,6.68-34.5-.67-1.32-.86-1.72-3.14-2.55-4.76Z"/><path d="M126.68,326.51C139,328.2,151.41,331,164,331.37c12.7.42,25.48-1.46,38.23-2.32C191.29,338.91,137.57,336.9,126.68,326.51Z"/><path d="M176,87.74c-1.32-4.72-2.86-9.39-3.9-14.16-1.78-8.09-3.39-16.23-4.72-24.41-.27-1.68,1-3.62,1.58-5.45,1.39,1.33,3.63,2.43,4,4,3.26,13,5.56,26.16,4.81,39.62Z"/><path d="M173.52,158.46c-9.2,2.36-20.73.52-18.18,16.11-4.26-3.88-6.91-7.85-5.54-11.52,1.17-3.13,5-6,8.38-7.39C162.88,153.63,168.08,153.59,173.52,158.46Z"/><path d="M146.53,23.28c-6.23,3.08-11.67,5.83-17.19,8.41a2.66,2.66,0,0,1-2.49-.78,3.12,3.12,0,0,1,.46-2.66C130,24.42,140.45,21.45,146.53,23.28Z"/><path d="M144.8,15.9c-5.28,2-9.89,3.81-14.58,5.43a2.84,2.84,0,0,1-2.56-.76,3,3,0,0,1,.27-2.62C130.34,14.31,140.18,12.88,144.8,15.9Z"/><path d="M218.79,28c-4.67.95-9,1.92-13.3,2.63a4,4,0,0,1-2.94-1c-.36-.34,0-1.92.46-2.54C205.89,23.46,215.83,24,218.79,28Z"/><path d="M217.74,36.2c-4.94,1.39-8.51,2.49-12.14,3.35a3.49,3.49,0,0,1-2.37-.93c.18-1.14.43-2.76,1.24-3.25C208.35,33,212.36,32.84,217.74,36.2Z"/><path d="M161.68,136.16l-14.29,2.29C150.22,133.24,155.81,132.51,161.68,136.16Z"/><path d="M99.69,182.76c-2.72-6.37,2.71-14.1,10.5-13.38,6.82.63,13.58,3.6,20,6.39,2.35,1,3.62,4.49,5.39,6.85l-1.65,1.73c-3.34-2.28-6.42-5.3-10.1-6.61s-8.19-1.05-13.78-1.63l4.87,14.95c-4.84-.31-5.72-3.8-7.18-6.48C105.36,180.21,104.05,179.78,99.69,182.76Z"/><path d="M116.9,116.38c-1.27-5.22-2.57-10.44-3.81-15.67q-3.95-16.48-7.84-33c-.11-.49-.45-1-.33-1.44.42-1.58,1-3.13,1.5-4.68,1.2.94,2.72,1.66,3.51,2.87a14.33,14.33,0,0,1,1.91,5.12c2.54,13.37,5,26.76,7.38,40.18.35,2-.15,4.16-.25,6.24Z"/><path d="M105.82,141c-6.47,2.18-12.93,4.43-19.46,6.43-.6.19-2.19-1-2.39-1.85a3.26,3.26,0,0,1,1.2-2.87A30.38,30.38,0,0,1,105.3,139C105.47,139.68,105.65,140.35,105.82,141Z"/><path d="M63.43,54.41C62.22,46.7,73.77,39.27,83,41.66Z"/><path d="M83.16,50.59C78.42,55.2,73.91,59.67,69.27,64c-.52.48-2.4.49-2.53.2a4.61,4.61,0,0,1-.38-3.14C68.22,55.61,76.48,50.49,83.16,50.59Z"/><path d="M72.89,202.15c-3-1.07-6.14-2-9.08-3.24-6.14-2.68-12-4.58-16.34,2.86-.29.49-1,.73-1.92,1.35-2.59-3.37-2.38-6.9-.95-10.18,1.28-3,8-5.21,11.06-3.8,4.92,2.31,9.76,4.84,14.46,7.58,1.5.88,2.44,2.71,3.64,4.1Z"/><path d="M44,172.07c-5.18,3.41-10.33,6.86-15.57,10.19a2.77,2.77,0,0,1-2.12-.35c-.11-1.2-.38-2.86.28-3.58,4.49-5,10-7.94,16.75-7.67Z"/><path d="M31.1,87.43c-4.27,4.34-8.37,8.57-12.57,12.69-.44.43-1.93.57-2.19.25a4.49,4.49,0,0,1-1.15-3C15.91,92.08,25.18,86.15,31.1,87.43Z"/><path d="M44,160,23.4,169.91C23,164.11,33.27,158.87,44,160Z"/></g></g></svg>
