<svg xmlns="http://www.w3.org/2000/svg" viewBox="0 0 572.76 387.25"><title>Recurso 2</title><g id="Capa_2" data-name="Capa 2"><g id="Capa_1-2" data-name="Capa 1"><path d="M445.65,194.22c8.88,5.85,8.41,12.3,6.43,19.8-2,7.74-2.53,15.89-4,23.8-2,10.82-5.85,20.32-17.77,21.87-.39,7.25-.52,13.84-1.16,20.39-.74,7.6-5.43,11.92-12.64,13.77-1.9.49-3.83,1.49-5.7,1.39-8.8-.45-11.48,5.42-13.75,12.31a130.38,130.38,0,0,1-6.73,16.33,20.3,20.3,0,0,1-13.05,11.18c-1.73.49-3.46,2.7-4.22,4.53-1.43,3.42-2.08,7.16-3.19,10.72-3.75,12.08-12.4,17.38-24.63,18.48-11.92,1.08-23.79,2.7-35.63,4.47-8.2,1.22-12.29.42-21.15-5.73-6.51,4.49-13.21,8.92-19.69,13.66-9.95,7.27-19.88,8.24-30.71,1.6-6.51-4-13.69-6.9-20.56-10.3-.71-.35-1.42-1-2.11-1-17.74.42-26.5-13.76-37.92-23.47-4.61-3.93-8.48-8.75-12.61-13.24-1.19-1.28-3-2.81-3-4.24,0-5.86-4.21-7.21-8.46-8.81-2.39-.9-4.59-2.28-7-3.22-7.55-3-12-8-11.42-16.57.25-3.71-1.47-4.95-5.21-5.29-15.62-1.42-28.43-15.2-29.34-31.21-.52-9.16-.85-18.32-1.38-27.47a4.74,4.74,0,0,0-1.43-2.42c-13.22-14.42-27.23-27.63-45.22-36.36s-35-18.92-49.71-32.54C1,165,0,161.74,0,159.25a173.56,173.56,0,0,1,1.61-23.48C4.44,117.69,14.52,103.85,28.79,93c7.34-5.57,15.37-10.24,22.91-15.57a9.19,9.19,0,0,0,3.11-5c4.24-18.1,14.86-29.65,33.56-32.71,2.8-.46,6.52,0,8.71,1.52,6.06,4.33,11.48,9.55,17.26,14.28C128.51,67.1,142.87,78.45,156.9,90.2c9.72,8.15,20.31,10.68,32.42,6.9,11.45-3.58,22.88-7.23,34.4-10.56,4.09-1.19,8.45-1.45,12.65-2.29a16,16,0,0,0,4.87-1.71c5.63-3.24,11.41-6.29,16.69-10,15.75-11.17,33.68-14.34,52.22-13.31C348.45,61.34,382.66,50,414.7,30c13.86-8.62,28.46-16.13,41.94-25.29,10.3-7,26.15-6.69,36.06,4C497.59,14,501,20.58,505.36,26.35c1.46,1.92,3.87,3.17,6,4.54,1.47,1,3.28,1.41,4.69,2.42,13.44,9.62,27.23,18.83,40,29.22a58.88,58.88,0,0,1,14.46,18.19c4.6,8.78,1.58,17.12-4.17,25.23-5.6,7.9-13.62,12.07-21.07,17.34q-46.49,32.91-92.79,66.07ZM208.26,111c-2.64,1.23-5.34,2.34-7.89,3.72-6.6,3.56-9.64,8.46-9.27,16.65.74,16.49.49,33.05-.16,49.56-.27,6.93,1.75,11.59,7.27,15.52,11,7.88,22.14,15.72,32.6,24.33,4.49,3.69,8,6.4,13.74,3.11,1.73-1,4.22-.92,6.35-.85,8.29.26,17,9.9,15.27,17.06a6.66,6.66,0,0,1-2.11-.91c-1.83-1.77-3.58-3.63-5.3-5.52-5.66-6.22-8.68-6.74-17.08-2.46,4.45,6,8.51,12.27,13.3,17.89,6.53,7.66,12.37,6.74,16.42-2.54,8.82-20.16,3.63-48.14-17.75-59.3-1.6-.84-3-3.31-3.3-5.2-1.49-9.63-2.37-19.35-3.91-29-.63-3.92,1-5.4,4.22-5.16,6.54.47,11.26-2.7,15.71-6.82a92.68,92.68,0,0,1,7.66-6.48c1.58-1.17,3.54-1.86,7-3.6-1.46,4-2.28,6.26-3.33,9.16,11.81,3.34,23.42,6.82,35.15,9.88s23.4,5.64,35.11,8.43c-.15.84-.31,1.69-.46,2.53H328.92c10,8.87,20.91,18,31.15,27.88,8.43,8.14,16.24,15.87,28.22,19.89a68,68,0,0,0,31,3,12.2,12.2,0,0,0,9.81-6.41c8-13.43,18.77-23.91,31.71-32.74,26.95-18.4,53.43-37.49,80.13-56.26,2.19-1.54,4.57-2.82,7.22-4.44C529,104.21,523.64,98.34,517,78.82c-4.46-13-8.82-26.09-13.79-38.92-4.13-10.63-9.16-20.84-17.59-29-7.74-7.51-20.6-6.5-26.75-2.47-15.1,9.9-29.73,20.54-45.12,30-21.27,13-43.88,23.39-69,26.07-14.82,1.58-29.85,1.37-44.78,1.93-10.93.4-21.53,1.93-31.12,7.76-9.42,5.72-19,11.15-28.4,16.9-10.85,6.63-21.57,13.47-32.35,20.22ZM4.11,162.53c13.88,8.91,25.25,17.58,37.79,24,24.11,12.3,46.23,26.9,63.56,48,5.33,6.48,12.64,8.41,20.05,7.69,15.13-1.49,29.19,1.13,43.13,6.88a33.77,33.77,0,0,0,16.68,2.09c7.9-1.07,15.58-3.94,23.29-6.26,2-.59,4.39-1.54,5.48-3.11,3.75-5.42,7-11.19,10.66-17.18-1.12-.94-2.53-2.3-4.1-3.44q-13.4-9.67-26.86-19.26c-6.73-4.8-10-10.91-9.69-19.57.55-17.89.53-35.82.15-53.72a17.36,17.36,0,0,1,5.52-13.67,56.36,56.36,0,0,1,9.9-7.35c6.48-3.93,13.16-7.53,19.76-11.26A127,127,0,0,0,198.38,102c-18.64,7-34.62,3.51-49.45-9.93C132.76,77.46,115.48,64,99,49.67c-5-4.32-9.6-5.45-15.54-3.15-12.45,4.82-20,13.68-22,26.9-1.21,8.35-1.71,16.82-2.41,25.24-1.36,16.37-7.94,30-21.41,39.7-6.36,4.58-13.52,8-20,12.53C13.22,154,9.31,158,4.11,162.53Zm441,37.7-2.22-.07c-2.2,2.73-5.31,5.14-6.43,8.26-3.33,9.23-11.43,9.94-19,11.14-5.76.91-12,1.52-17.6.22-11.33-2.64-23.78-2.71-32.56-12.53-6.16-6.88-12.85-13.3-19.44-19.78-9.3-9.14-18.89-17.77-32.05-21.27a27.52,27.52,0,0,1-9.73-5.44c-9-7.29-19.78-10.16-30.46-13.4a4.52,4.52,0,0,0-3.13.58c-5.54,3.12-11,6.37-16.4,9.52.59,7.62,1.25,16,1.89,24.1,20,12,25.09,30.93,23.88,51.8,3.17,1.31,6.33,1.91,8.5,3.72s3.16,4.81,4.8,7.2c5.44,7.94,5.34,11.24-1,18.81-3.22,3.86-6.63,7.56-9,10.21,6.21,3.35,12.7,5.73,17.81,9.84,9.1,7.32,8.88,13.11.82,21.69-4.15,4.41-8.17,8.93-12.52,13.7,1.13.23,1.54.44,1.85.35,13.47-4.06,19.28-1.88,26.36,9.89.38.63.86,1.55,1.42,1.66,6.48,1.3,13.07,3.8,19.46,3.38,11.13-.74,22.23-2.89,33.15-5.3,3.61-.8,7.95-3.53,9.66-6.64,4-7.38,6.71-15.51,10.17-23.9-10.67,1.49-20.67,2.38-30.45,4.35-16.32,3.3-30.51.42-41.68-12.58-1.23-1.44-1.16-4-1.69-6,1.77.77,4,1.11,5.25,2.39,8.17,8.21,17.36,13.52,29.48,11.61,18.06-2.85,36.16-5.43,54.16-8.56,11.61-2,13-3.87,14.83-15.63.3-1.89-.18-3.89.06-5.79.7-5.5-2-5.73-6.34-4.71-12.63,2.95-25.33,5.6-38,8.33-9,1.94-18.18,2.06-26.15-2.67-5.35-3.17-9.74-8.19-13.91-13-1.13-1.28.09-4.62.24-7,2.13.95,4.35,1.76,6.37,2.9.75.43,1,1.68,1.6,2.43,6.48,8,14.68,12.9,25.16,10.79,17.92-3.6,35.63-8.2,53.54-11.8,8.5-1.71,13.27-6.2,14.72-14.52,1.66-9.46,3.45-18.9,4.82-28.4C445.84,206.9,445.2,203.53,445.07,200.23ZM105.2,245.89c.56,6.3.84,13.78,1.94,21.13,2.11,14.21,12.59,22.64,26.87,24.12,17.36,1.8,34.67,4.34,51.85,7.41,9.46,1.69,18.23,2.44,26.49-3.49,5.41-3.88,11-7.55,16.52-11.24,4.74-3.15,8.1-7.1,9.5-12.89a69.3,69.3,0,0,1,5.17-14.4c3.14-6.29.76-10.59-4.08-15.13-.83,3.91-1.56,7.34-2.46,11.61-6-4.64-4-9.65-3.46-14.57.28-2.57-.68-5.26-1.08-7.9l-2.62-.66c-.57,1-1.13,2.11-1.74,3.13-1.21,2-2.89,3.87-3.62,6.05-2.7,8.13-7.37,12.62-16.59,13.88-9,1.22-17.65,5.18-26.47,7.87a6,6,0,0,1-3.39.25,117.26,117.26,0,0,1-13-5c-12.23-5.94-25.12-6.93-38.5-6.69C119.6,249.49,112.59,247.17,105.2,245.89Zm63,81.79-1.14,1.45c12.35,11.09,24.6,22.29,37.17,33.13,1.82,1.57,5.24,2.05,7.82,1.83,10.13-.85,20.23-2.1,30.33-3.37,8.77-1.1,15.58-4.75,19.26-13.59,1.86-4.45,5.13-8.41,8.23-12.2q14.54-17.81,29.45-35.31c4.57-5.38,4.4-6.74-1.66-10.05a31.55,31.55,0,0,1-5.69-4c-6.27-5.58-12.53-5.12-17,1.66s-8.34,14.34-13.44,20.78c-4,5.07-8.78,10.58-14.46,13-13.65,5.94-28,10.32-42.16,15a13.63,13.63,0,0,1-7.32-.21C187.77,333.29,178,330.43,168.24,327.68Zm83.28-69.3a22.35,22.35,0,0,0-.91,3.44c-2.07,14.19-9.59,24.94-21.52,32.32a188.83,188.83,0,0,1-24.59,12.53,15.4,15.4,0,0,1-10.23.07c-16.86-5.86-34.4-6.95-51.89-8.56-1.41,9.59-.94,10.58,6.74,14.27,4.07,1.95,8.1,4,12.28,5.74,22.37,9.13,44.85,16.56,68.15,2.7.17-.1.37-.14.54-.23,6.68-3.64,15-5.82,19.67-11.21,10.07-11.69,18.23-25,27.46-38.06-4.58-1-8.6-2-8.09-7.71.07-.76-2.12-2.21-3.46-2.53C261.27,260.08,256.79,259.38,251.52,258.38ZM513.7,41.81l-1.54,1.11c6.29,15.81,12.09,31.84,19.08,47.32,3.35,7.42,10.43,11.73,18.78,12.81,9.37,1.21,15.84-4.87,14.6-14.25a24.34,24.34,0,0,0-4.77-11.12,56.49,56.49,0,0,0-11.09-10.46C537.2,58.57,525.4,50.26,513.7,41.81ZM228.9,370.86c6.29,3,11.75,6.27,17.66,8.18,3.4,1.1,8.22,1.32,11.19-.3,18.58-10.11,35.14-23.08,50.19-37.91,2.08-2.05,3.29-5.33,4-8.26.36-1.43-1-4.62-2-4.8a7,7,0,0,0-5.33,2c-5,5.24-9.66,10.8-14.74,16.58-5.19-7,1.49-12,4.44-18.16-1.66.15-2.84-.11-3.37.36-7.41,6.64-17.59,10.2-22,20.19a35.73,35.73,0,0,1-6,8.77c-1.84,2.08-4.16,4.26-6.69,5.12C247.55,365.61,238.64,368,228.9,370.86ZM52.63,84.11c-31.69,20.28-48.49,44.28-44.95,64.2C44.09,130.33,56.32,112.88,52.63,84.11ZM293.76,363.42c4.2,4,8.4,4.3,13.38,3.4,11.17-2,22.4-4.17,33.7-4.9,16.32-1.05,23.69-7.86,24.26-24.71-15.26,1.48-30.74,8.36-45.51-2.21C315,348.43,303.16,354.66,293.76,363.42Zm-13.91-95.11c2.65-2.8,5.1-5.3,7.45-7.9,6.68-7.41,6.07-10.17-3-14.58-3.8,5.33-7.59,10.66-11.53,16.21Z"/><path d="M449,160.92c-1.17-2.71-2.32-5.42-3.51-8.12-4-9.16-7.06-18.94-12.35-27.3-4.62-7.29-11.73-13-17.8-19.37-1.24-1.29-2.71-2.36-4.08-3.53l1-1.89c2.06.84,4.68,1.15,6.09,2.62,6.63,6.9,14.06,13.42,19,21.42,5.43,8.73,8.56,18.9,12.46,28.54.86,2.14.73,4.69,1.06,7.05Z"/><path d="M441.19,161c-1.93-3.27-4.06-6.45-5.76-9.84-6.81-13.61-14.83-26.36-26.4-36.47-3.87-3.38-8.3-6.13-13.27-9.75C410.4,105,441.87,143.36,441.19,161Z"/><path d="M222.79,180.16c-4.12.74-7.5,1.07-10.71,2-4.85,1.38-9.55,3.26-14.37,4.73-1.08.32-2.42-.2-3.64-.34.21-.87.15-1.95.66-2.59C198.57,179.05,216.56,176.17,222.79,180.16Z"/><path d="M388.35,182.4,366,168.24C372.68,166.24,385.76,175.22,388.35,182.4Z"/><path d="M381.73,66.24c-4.14,6.21-13.46,7.78-20.65,3.8Z"/><path d="M208.06,111.24c5.29-.17,10.52-.13,14.11,6.07-4.56-.58-9.13-1.06-13.62-1.93-.37-.07-.22-2.82-.3-4.33Z"/><path d="M194.85,125c4.09-5.94,10.47-6.5,17.25-2Z"/><path d="M221.59,188.46l-18.24,3.37C205.26,185.84,213.11,184.18,221.59,188.46Z"/><path d="M88.86,201c.37-1,.39-1.78.77-2.07a147.19,147.19,0,0,0,33.61-37.06C122.41,175.83,98.69,202.67,88.86,201Z"/><path d="M98.9,204.86l27.37-22.12C122.58,193.06,106.15,207,98.9,204.86Z"/><path d="M371.11,236.19l-20.6-8.62C359.76,224.68,365.69,230,371.11,236.19Z"/><path d="M383.16,306.84c1,5.21-2.52,10.53-9.65,11.45l7.65-12.55Z"/><path d="M340.33,277.79l-13.9-10.12C332.77,264.72,338.05,268.54,340.33,277.79Z"/><path d="M427.45,242c-1-5.41-1.84-9.57-2.75-14.32C430.7,229.74,431.66,234.67,427.45,242Z"/><path d="M342.11,237.73c-2.35,1.88-3.65,3.7-5.08,3.81-1.17.09-3.62-2-3.51-2.85.21-1.52,1.71-3.68,3.06-4S339.51,236.2,342.11,237.73Z"/><path d="M323.13,307.45l10.4,8L332,317.54l-11.19-7.2Z"/><path d="M123.4,278.22c-3.6-4.39-4.43-9.6-3.35-15.15.24-1.2,1.87-2.12,2.85-3.17.8,1.16,2.21,2.28,2.27,3.48.26,4.82.11,9.66.11,14.5Z"/><path d="M191.64,288.62c-6.46-3.21-7.94-7.93-8.43-13-.11-1.14,1.36-2.43,2.1-3.66,1,.95,2.55,1.73,2.9,2.87C189.48,279,190.34,283.24,191.64,288.62Z"/><path d="M200.19,287.91c-1.78-3.57-3.76-7.05-5.18-10.76-.36-.91,1.11-2.53,1.73-3.82,1.06.7,2.67,1.18,3.07,2.16,1.47,3.58,2.55,7.34,3.77,11Z"/><path d="M131.56,278c-.87-3.46-1.92-6.88-2.47-10.39-.12-.77,1.48-2.47,2.4-2.56a3.54,3.54,0,0,1,2.65,2.28c.32,3.33.13,6.7.13,10.06Z"/><path d="M287.38,307.94c-6.64,1.45-9-1.5-10.29-5.43-1.49-4.48,2.48-13,6.63-14.49a5.63,5.63,0,0,1,4.14.64c.43.25.27,2.94-.41,3.47C281.33,296.8,281,301.88,287.38,307.94Z"/><path d="M249.76,348.62c-7.36,0-10.6-4.1-13.11-8.77-.49-.91.45-3.47,1.45-4.09,1.26-.77,4.34-1,4.78-.27C245.47,339.68,247.52,344.21,249.76,348.62Z"/><path d="M204.47,322.47c-4,1-6-3.93-8.77-.37-1.83-2.17-3.93-4.18-5.33-6.59-.49-.85.74-3.89,1.17-3.89,3,0,7-.46,8.78,1.21C202.58,314.92,203.07,318.93,204.47,322.47Z"/><path d="M250.68,301.57c-6.54-1.58-8.05-5.43-9.09-9.42a3.73,3.73,0,0,1,1.58-3.27c.83-.38,3,.34,3.37,1.12C248,293.39,249.09,297,250.68,301.57Z"/><path d="M240.46,305.46c-1.23-2.23-2.47-4.44-3.57-6.72a14.75,14.75,0,0,1,2.15-1.23c1.43,2.09,2.73,4.27,4.05,6.44C242.21,304.45,241.33,305,240.46,305.46Z"/><path d="M347.59,349.21l5.58-5.32a20.8,20.8,0,0,1,1.9,2.18c-1.72,1.92-3.59,3.69-5.43,5.5Z"/></g></g></svg>
