<svg xmlns="http://www.w3.org/2000/svg" viewBox="0 0 95.09 148.29"><title>evento</title><g id="Capa_2" data-name="Capa 2"><g id="Capa_6_Rectángulo_1_Imagen" data-name="Capa 6 + Rectángulo 1 Imagen"><path d="M8.65,21.56a53.15,53.15,0,0,1,20-10.46A53.88,53.88,0,0,1,45.31,9.51c4,.16,6.31,2.72,8.18,5.86.83,1.4,1.63,2.84,2.41,4.28a1.3,1.3,0,0,0,1.45.73,30,30,0,0,0,10-2.82C74.63,14.27,81.87,10.85,88.27,6c1.77-1.35,3.32-3,5-4.5.48-.44,1-.83,1.8-1.47a5.51,5.51,0,0,1,0,1.34c-2.23,6.25-4.38,12.54-7.63,18.35A70.74,70.74,0,0,1,67.53,42.77a27,27,0,0,1-4.72,2.52,3.2,3.2,0,0,1-1.87.06,8,8,0,0,1-5.17-3.19c-1.5-2.06-3-4.11-4.66-6.33-6.39,5.66-12.82,11.26-18.69,17.5,1.06,1.49,2,2.92,3.06,4.26a1.46,1.46,0,0,0,1.25.45c4.36-1.17,8.69-2.41,13-3.61.85-.24,1.73-.35,2.57-.61,3.34-1,8.13,2.07,7.79,6.11A6.08,6.08,0,0,0,60.22,61l3.85-.56a6.94,6.94,0,0,1,7.32,4c1.69,3.28,1.27,6.48.24,9.76-.13.41-.27.82-.41,1.28,1.25.06,2.44,0,3.61.19,2.79.34,5.72,3.45,5.66,6.28a7.76,7.76,0,0,1-1.21,3.16c-.68,1.26-1.52,2.44-2.28,3.65,3.56,2.47,4.21,5.28,2.1,9.07a19.85,19.85,0,0,1-14.78,10.28c-2,.33-2.9,1-3.65,2.78-2.09,5.11-6.17,8.58-10.46,11.77a57.1,57.1,0,0,1-5.85,3.77,14.09,14.09,0,0,0-4.69,4.36c-3.11,4.55-6.25,9.08-9.36,13.64-1.28,1.88-2.8,3.42-5.16,3.75a4.52,4.52,0,0,1-2.23-.11C15,144.94,8.78,140,5.22,132c-2.42-5.44-2.08-10.51,1.48-15.37,1.72-2.36,3.22-4.86,4.81-7.31,2.69-4.14,3.57-8.73,3.55-13.6,0-4.36,0-8.72.23-13.07a35.71,35.71,0,0,1,.94-5.78,7.06,7.06,0,0,1,3.27-4.42c3.82-2.56,6.46-6.27,9.38-9.7a1.06,1.06,0,0,0,.26-.53,8.53,8.53,0,0,0-2.59-3.11,5.49,5.49,0,0,1-3.42-2.27c-3.46-4.4-7-8.75-10.26-13.28C8.71,37.79,4.77,31.86.74,26c-1.36-2-.82-4.36,1.38-6.1,1.86-1.48,3.74-1.33,5.42.45C7.89,20.72,8.23,21.11,8.65,21.56Zm37.43,45c.31-.92.51-1.65.82-2.34.09-.21.47-.29.72-.44.09.25.27.51.24.73-.38,2.48-.69,5-1.24,7.42a2.61,2.61,0,0,0,.58,2.52c.52.6,1,1.21,1.53,1.84a50.26,50.26,0,0,1,3.35,4.52,3.71,3.71,0,0,1-1.32,5.23,4,4,0,0,1-1.32.31L49.25,86c.41-.46.79-.94,1.23-1.37a2.52,2.52,0,0,0,.61-2.87,6.87,6.87,0,0,0-1-1.88c-3.24-4.06-6.52-8.09-9.78-12.14-.53-.65-1-1.34-1.51-2l-.36.36L37,67.45l-.33-.23c.21-.64.43-1.28.65-1.92L37.11,65a14,14,0,0,0-1.69,1,19.15,19.15,0,0,0-1.55,1.44l-.23-.19.26-1.44L32,66.91c-3.58,2.11-7.13,4.27-10.75,6.3a6.19,6.19,0,0,0-3.34,3.87,23.17,23.17,0,0,0-.77,4.59c-.17,4.64-.28,9.28-.27,13.91,0,5.24-1,10.18-3.85,14.64-1.63,2.51-3.35,5-4.92,7.52-.81,1.33-1.4,2.8-2,4.07a15,15,0,0,1,2.2,1.09c2.69,1.92,4.08,4.76,5.25,7.72,1.29,3.27,2.4,6.62,3.87,9.81a17,17,0,0,0,3.32,4.48c.64.66,1.82.81,2.78,1.14a18.68,18.68,0,0,0,1.82.47l.44.63,1.9-2.63c3.39-4.7,6.64-9.51,10.23-14.05,1.74-2.22,3-4.78,6-6.13a32.55,32.55,0,0,0,10.82-8.23c2.11-2.37,4.09-4.83,5-7.94a1.9,1.9,0,0,0,0-1.35,4.14,4.14,0,0,1-.13-4.6,3.72,3.72,0,0,1-4.32-2.57,7.55,7.55,0,0,1,.3-5.49c-2.19.62-4.1,2.39-6.16.19a7.87,7.87,0,0,0,.45,1.24c.15.35.27.71.41,1.07l-.32.13q-2.25-3.69-4.51-7.38l.34-.23,1,.89c.18-.92.3-1.82.56-2.68.08-.27.52-.44.8-.65.08.31.31.67.22.93-.76,2.47.34,4.24,2,5.88a2.12,2.12,0,0,0,2.9.41c3-1.86,5.93-3.76,8.93-5.59a6.76,6.76,0,0,0,2.92-3.25c1.42-3.39,3.2-6.63,4.64-10s2.43-6.68.47-10.24c-.91-1.64-2.07-2.9-3.87-3a35.52,35.52,0,0,0-5.33.35c-.69,0-.88.41-.93,1.09-.21,2.63-.43,5.26-.77,7.87-.51,3.93-1.28,7.78-4.52,10.53-.47.39-1.5.93-1.59.82-.67-.8.28-1.2.63-1.75,1-1.65,2.52-3.15,3-4.94a61.7,61.7,0,0,0,1.93-17.55,1.2,1.2,0,0,0-.26-.75c-1.77-1.89-3.84-3-6.53-2.28s-5.47,1.49-8.2,2.26c-2.33.66-4.64,1.36-7.17,2.11L45.32,71.4l.39-.08a22.05,22.05,0,0,0-.35-2.57c-.33-1.35-.83-2.66-1.13-4a3.82,3.82,0,0,1,.3-1.47l.31.09C45.23,64.37,45.62,65.4,46.08,66.59ZM92.85,4.23A90.13,90.13,0,0,1,57.36,21.9c1.19,1.93,2.51,4,3.78,6.14a8.57,8.57,0,0,1,.58,1.51l-.4.21a9,9,0,0,1-1-1.06c-.91-1.36-1.81-2.73-2.66-4.13a59.62,59.62,0,0,0-7.89-11C48.44,12.21,47,11,44.89,10.91a49.19,49.19,0,0,0-26.27,5.67A44.27,44.27,0,0,0,5.11,27.16a1.26,1.26,0,0,0,0,1.94c.73.84,1.39,1.75,2.07,2.64q7.17,9.39,14.33,18.78c1.45,1.91,2.79,3.9,4.23,5.82.87,1.17,1.7,1.06,2.54-.08a45.07,45.07,0,0,1,4.21-5.37q6-6,12.21-11.7a83.35,83.35,0,0,1,8.5-7,21.12,21.12,0,0,1,5.93-2.44,2.36,2.36,0,0,1,2.91.94c1.37,2,.93,3.77.13,5.66-.42,1-1,1.94-1.33,2.95S60,41.71,61,42.69s2.3.55,3.26,0a35.58,35.58,0,0,0,6-4.08,90.15,90.15,0,0,0,11-12.32C86.41,19.5,89.6,11.77,92.85,4.23ZM72.38,76.92c-1.5-.5-2.09.47-2.65,1.78-1,2.39-2.22,4.7-3.36,7a6.47,6.47,0,0,1-2.56,2.88,35.93,35.93,0,0,0-4.34,3c-2,1.66-3.72,3.5-3.23,6.49.43,2.56,1.94,3.59,4.31,2.61,2.11-.86,4.15-1.87,6.23-2.8A5.9,5.9,0,0,0,69.63,96c2.74-3.83,5.7-7.49,8.54-11.24a3.93,3.93,0,0,0-.18-5.2C76.61,77.84,75,76.4,72.38,76.92Zm3.89,12.81c-.42.56-.7,1-1,1.38-2.52,3-4.48,6.48-8.4,8,0,0-.07.13,0,0,.32.82.6,1.54.87,2.25l-.55.31-1.42-2-4.83,2.19c-.14.54-.24,1-.4,1.49-.66,2,.3,3.39,2.32,3.38a9.06,9.06,0,0,0,2.15-.19c5.25-1.43,9.72-4.11,12.72-8.75,1.66-2.57,2.64-4.82-1.08-7.66A2.73,2.73,0,0,1,76.27,89.73ZM16.35,142.08c-.76-1.88-1.56-3.73-2.25-5.62-.94-2.54-1.69-5.16-2.72-7.66A11.64,11.64,0,0,0,6,122.65C3.82,128.91,10.84,139.31,16.35,142.08Zm22.3-77.42L31.54,54.42,28.8,57.81c1.29,1.76,2.48,3.46,3.77,5.09.38.47,1.17,1.12,1.57,1C35.72,63.42,37,64.06,38.65,64.66ZM59.15,39.6c.77-2.8,3.24-5.14,1.8-8.71l-4.43,1.27c.87,1.51,2.24,2.42,2.55,3.94l-.42.32-3.27-3.56-1,.67ZM7.3,22.66c-.68-1.14-1.36-2.3-2.93-2A3.06,3.06,0,0,0,1.89,23c-.33,1.62,1.05,2.5,1.89,3.67ZM52,35.14c1.67,2.24,3.2,4.39,4.86,6.43A9.57,9.57,0,0,0,59.1,43c-.07-1.62,0-2.94-1.43-3.68-.23-.12-.37-.41-.55-.63-1.27-1.49-2.54-3-3.84-4.51ZM31.08,63,26.8,68.32l.19.22,5.59-3.39Z"/><path d="M46.69,98.11a8.74,8.74,0,0,1-.58-1C44.62,93.36,43,89.68,40,86.88A23.24,23.24,0,0,0,29.76,81a6.59,6.59,0,0,1-.84-.32l.07-.42a12.92,12.92,0,0,1,2.66.36c1,.33,1.48.09,1.86-.8s.8-1.6,1.29-2.57a6,6,0,0,1,1,.79q.91,1.1,1.74,2.28c2.38,3.39,5.8,4.72,9.75,5.07.61,0,1.21.19,1.81.28l0,.54a7.84,7.84,0,0,1-1.76.31A13.76,13.76,0,0,1,35.94,80a3.63,3.63,0,0,0-.44-.48l-1.12,2c6.94,3.35,10.9,9,12.83,16.24Z"/><path d="M39.78,122.16c-1.47-2.75-2.61-5.74-5.06-7.77s-5-3.79-7.46-5.66C31.73,108.87,40.35,117.87,39.78,122.16Z"/><path d="M41.51,121a30.36,30.36,0,0,0-8.79-12.9C37.22,110.27,42.1,117.73,41.51,121Z"/><path d="M49.28,82.48c-.62,0-.87.08-1,0a33.13,33.13,0,0,1-3.8-3.37,1.92,1.92,0,0,1,1-2.94,5,5,0,0,1,1.29,0c-.12.29-.14.44-.22.5-1.67,1.07-1.74,1.69-.25,3,.59.54,1.25,1,1.85,1.52A14.7,14.7,0,0,1,49.28,82.48Z"/><path d="M56.25,91c-1.78-2.36-2.79-2.48-5.18-.69a1.19,1.19,0,0,1-.29.21c-.49.18-1,.34-1.49.51a7.37,7.37,0,0,1,1-1.34c1.19-1,2.51-2,4.21-1.5a4.82,4.82,0,0,1,1.92,1.08A1.07,1.07,0,0,1,56.25,91Z"/><path d="M25,121.45c.57-.88,1.12-1.77,1.71-2.64s1.31-1.91,2-2.83c.13-.16.46-.18.71-.26,0,.21.15.49.06.62-1.32,1.82-2.68,3.63-4,5.44Z"/><path d="M44.13,109.6c1.64-2.89,2.73-5.9,2.25-9.33l.41,0a2.74,2.74,0,0,1,.36.9A12.75,12.75,0,0,1,44.13,109.6Z"/><path d="M53.27,98.61c1.42.59,2.53,4.54,1.9,6.63C54.55,103.1,53.94,101,53.27,98.61Z"/><path d="M58.12,81.89c1.68-.14,4.17,2.24,4.49,4.18Z"/><path d="M17.94,98.38c1.22,1.33,1.06,4.61-.3,5.85C17.74,102.39,17.83,100.54,17.94,98.38Z"/><path d="M57.23,58.05c-1.4-.33-2.69-.62-4-.95-.16,0-.31-.34-.33-.53s.22-.3.38-.36A3.57,3.57,0,0,1,57.23,58.05Z"/><path d="M58,60.73,53.23,59c.6-.81,1.41-.49,2.12-.32A3.43,3.43,0,0,1,58,60.73Z"/><path d="M55,75.78,50.1,73.9C51.3,73,53.57,73.94,55,75.78Z"/><path d="M27,81.14l-4,.83A3,3,0,0,1,27,80.68Z"/><path d="M60.15,80.86a9,9,0,0,1,3.71,3.43l-.25.28-3.74-3.39Z"/><path d="M49.91,75.89a4.39,4.39,0,0,1,4.84,1.91Z"/><path d="M65.16,63.9c1.34-.77,2.45-.4,3.23,1.13Z"/><path d="M68.35,67c-1-.27-1.71-.44-2.4-.66-.15,0-.36-.34-.32-.4s.3-.41.46-.4A2.61,2.61,0,0,1,68.35,67Z"/><path d="M61.85,99.06a4.62,4.62,0,0,1,0-.93A1.76,1.76,0,0,0,60.93,96a3.73,3.73,0,0,0-2.1.13,7,7,0,0,0-1.5.78A3,3,0,0,1,60,94.74a3,3,0,0,1,2.81,2.34A1.49,1.49,0,0,1,61.85,99.06Z"/><path d="M69.66,93.43c-.6-.83-1.21-1.66-1.79-2.5-.05-.08,0-.39.12-.41s.5-.1.63,0A2.45,2.45,0,0,1,69.66,93.43Z"/><path d="M76.63,82.64l-3.39-2.72C74.6,79.51,76.43,81,76.63,82.64Z"/><path d="M71.68,80.88a10.46,10.46,0,0,1-2.1,3.82A4.36,4.36,0,0,1,71.68,80.88Z"/><path d="M76.61,80.86c-.73-.5-1.46-1-2.17-1.53a.66.66,0,0,1-.08-.51c.23-.12.6-.29.73-.19.69.52,1.31,1.12,2,1.69Z"/><path d="M68.39,94.3l-2-2.65A2.14,2.14,0,0,1,68.39,94.3Z"/><path d="M61.08,104.37c.93-1.67,2.52-2,3.63-.86.27.26.19.88.26,1.33a6.07,6.07,0,0,0-.9-.5,5.12,5.12,0,0,0-1.59-.41A4.73,4.73,0,0,0,61.08,104.37Z"/><path d="M75.36,91.86c1.59.21,2.17.84,2.22,2.33C76.59,93.62,75.6,93.27,75.36,91.86Z"/><path d="M76.58,96.22c-.57-.49-1.15-1-1.69-1.48a.55.55,0,0,1,0-.51.86.86,0,0,1,.64-.1A1.72,1.72,0,0,1,76.58,96.22Z"/></g></g></svg>
