<svg xmlns="http://www.w3.org/2000/svg" viewBox="0 0 114.27 53.95"><title>indicador</title><g id="Capa_2" data-name="Capa 2"><g id="Capa_6_Rectángulo_1_Imagen" data-name="Capa 6 + Rectángulo 1 Imagen"><path d="M80.5,14c3.52,2.43,2.6,5.39,1.26,8.4l-.4.87c-.69,1.59-.63,1.52.68,2.53a5.31,5.31,0,0,1,2.4,3.47,10.57,10.57,0,0,1-2,7.9,7.55,7.55,0,0,1-1.69,1.27A5.77,5.77,0,0,1,76.15,46a11.17,11.17,0,0,1-2.5.3,21.52,21.52,0,0,0-7.22,1.47c-1.82.61-3.72,1-5.55,1.53-2.94.91-5.79,2.17-8.78,2.8-7.32,1.55-14.54,1.51-21.33-2.28A7.62,7.62,0,0,0,24.38,49C19,50.72,13.55,52.12,8.11,53.58A10.76,10.76,0,0,1,4.92,54c-2-.08-3-1.45-3.76-3.1C.07,48.36.29,45.78.74,43.19s.9-5,1.2-7.45a5.48,5.48,0,0,0-.48-2.6c-.8-1.92-1.79-3.79-1.35-6a5,5,0,0,1,3.43-3.94C7,22,10.52,20.91,13.9,19.48a41.58,41.58,0,0,0,12.2-8.19C33.05,4.78,41.41,1.64,50.68.44A23.86,23.86,0,0,1,58.54.27a19.41,19.41,0,0,1,2.94,1.18,2.19,2.19,0,0,0,.85.25c12.59-.24,25.18-.46,37.77-.77,3.07-.08,6.12-.47,9.18-.67a4.94,4.94,0,0,1,2,.25c3.23,1.19,4.07,6,1.43,8.16a14.71,14.71,0,0,1-8.41,3.11c-7.61.65-15.21,1.26-22.82,1.9-.23,0-.45.05-.68.07ZM67.72,10.43c-2.28-2.73-4.47-5.38-6.68-8a2,2,0,0,0-2.64-.38c-1.34.71-2.76,1.29-4.14,1.92L54,3.49l3-2.1a10.91,10.91,0,0,0-2.36-.25c-3.13.42-6.26.84-9.36,1.42a37.31,37.31,0,0,0-18.37,9.56A53,53,0,0,1,4.42,24.17c-2.76.73-3.94,2.76-3.11,5.52a19,19,0,0,0,1.59,3.6c1.56,2.79,3.38,5.45,4.78,8.31,1.68,3.4,2.4,7,.69,10.87l1.82-.55c4.29-1.26,8.59-2.49,12.86-3.81a11.62,11.62,0,0,1,8.78.92c7.18,3.4,14.47,4,22,.88,2.86-1.19,5.93-1.91,8.9-2.85l.93-.32a16.63,16.63,0,0,1-9.16-3c-2.72-1.86-2.92-3.78-.58-6.07.05,0,0-.13.08-.26a4.72,4.72,0,0,1-1.88-4.5c.27-1.79.7-3.42,2.69-3.95l-2.48-1.8c-.48,4-.66,8.12-2,12l-.33,0c.44-3.56.88-7.11,1.36-11L46.06,38.91l-.38-.18C47.15,34.83,48.77,31,50.05,27a28.68,28.68,0,0,0,1.47-12.42l.42-.08.9,1.34c1.17-.75,2.3-1.49,3.46-2.2A1.11,1.11,0,0,0,56.76,12a4.69,4.69,0,0,1-.26-1.32l.37-.24a6.43,6.43,0,0,1,1,1.06c.54.89.93,1.86,1.48,2.74a10.14,10.14,0,0,0,12.78,3.6,8.37,8.37,0,0,0,1.6-1.4l-.46-.1-.54-1.23a19.93,19.93,0,0,0-3.36-3.24c-.31-.25-.86-.19-1.31-.27a3.56,3.56,0,0,0-.17,1.34A13.5,13.5,0,0,0,68.86,15a2.84,2.84,0,0,1-2.18-2.29A1.8,1.8,0,0,1,67.72,10.43ZM63,2.8l-.1.35a80.18,80.18,0,0,0,9.5,9.74,1.81,1.81,0,0,0,1.22.19c2.26-.18,4.52-.44,6.78-.6,1.48-.1,3,0,4.44-.08,6.45-.51,12.9-1,19.34-1.64a15.07,15.07,0,0,0,7.1-2.34c2-1.35,2.44-2.5,1.68-4.72a3.52,3.52,0,0,0-3.37-2.22c-2,.18-4,.4-6,.44-10.39.19-20.78.32-31.17.51C69.24,2.49,66.1,2.67,63,2.8Zm12,25c1-.7,1.81-1.24,2.58-1.85,1.92-1.53,2.79-3.74,3.75-5.9.82-1.84-.77-5.42-2.74-6a1.68,1.68,0,0,0-.59,0l-3.69.42c.76,2.23.19,3.58-2,4.61a11.41,11.41,0,0,1-6.82.72,4.48,4.48,0,0,0-3.26.24c-1.16.63-2.76.41-4.15.66s-2.94.6-4.38,1a1.16,1.16,0,0,0-.6.87,18.33,18.33,0,0,0,0,2.87,2.14,2.14,0,0,0,1.41,2.17c1.45.4,2.93.66,4.39,1,4.23.91,8.45.31,12.65-.16,3.07-.34,2.69-.07,2.45-3.11-.11-1.4-.22-2.79-.34-4.19l.37,0C74.92,23.06,74.6,25.29,74.94,27.75ZM54,31.46l.23-.33a3.89,3.89,0,0,1,2.83,2.14c.7,1.39.15,2.56-1.19,3.66,2.24.45,4.22,1.16,6.21,1.18,4.63,0,9.26-.28,13.89-.39,1.09,0,1.38-.44,1.23-1.47C77,35,77,33.67,76.86,32.38l.37-.06a4.51,4.51,0,0,1,.23.93c0,1.11,0,2.23,0,3.34,0,.89.08.95,1,.64l-.31-4.95.58,0v5c1.93-.15,3.14-1.07,3.49-2.69.27-1.24.31-2.54.54-3.79a3.27,3.27,0,0,0-1.24-3.2,5.17,5.17,0,0,0-2.17-1.14c-.38-.07-.93.6-1.38,1a9.81,9.81,0,0,1-5.53,2.36c-2.27.19-4.53.5-6.81.58-2.45.1-5,.53-7.31-.55a2.84,2.84,0,0,0-2.83.13c-2.93,1.57-3.21,4.71-.6,6.57.31-.31.53-.72.86-.84a1.2,1.2,0,0,0,.67-2,9,9,0,0,0-1.53-1.62A7.74,7.74,0,0,0,54,31.46ZM66.74,45.12v.28c2.94-.25,5.89-.42,8.82-.79A4.71,4.71,0,0,0,79.62,41c.46-1.48-.14-2.23-1.61-2.09-2.22.22-4.45.44-6.68.59-4.79.33-9.59.62-14.16-1.33a2.26,2.26,0,0,0-3,.91c-.89,1.11-.91,2.14.21,3a12.48,12.48,0,0,0,7.17,3C63.3,45.18,65,45.12,66.74,45.12ZM3.42,36.42c-.53,3-1,5.75-1.47,8.47A8.86,8.86,0,0,0,3,51.23a2.36,2.36,0,0,0,2.27,1.29,2.53,2.53,0,0,0,2.19-1.8,5.33,5.33,0,0,0,.34-1.63C7.93,44.42,5.85,40.51,3.42,36.42Zm58.4-17.54L57.6,14.29l-4.8,3.07c.05.88.12,1.88.17,2.71,1.56-.23,3-.46,4.45-.65S60.36,19.06,61.82,18.88Z"/><path d="M27.75,42.5c-.92-4.06-.55-8.41-3-12.26C27,31.11,29,39.33,27.75,42.5Z"/><path d="M44.61,32.42l3.68-7,.3.15A15.46,15.46,0,0,1,45,32.6Z"/><path d="M23.52,31.14c1.47.93,3,5.33,2.49,7.37Z"/><path d="M23.72,17.93a7.28,7.28,0,0,1-3.65,2.66c-.22.08-.56-.11-.84-.18.14-.24.22-.59.43-.71,1.27-.7,2.58-1.34,3.87-2Z"/><path d="M55,11,53.45,6.87,54,6.68a14.59,14.59,0,0,1,1.45,4.11Z"/><path d="M65.68,8.8l-2.06,2.83C63.24,10.31,64.05,9.17,65.68,8.8Z"/><path d="M57.85,3.25a1.62,1.62,0,0,1,2.39-.66L58,3.59Z"/><path d="M13.4,36.87a2.83,2.83,0,0,1-.12.55l-1.93.49a2.53,2.53,0,0,1,0-.51C12,37.21,12.61,37.06,13.4,36.87Z"/><path d="M72.55,5.76c1.2.43,2.1,3.26,1.61,5.06C73.56,10.52,72.44,7,72.55,5.76Z"/><path d="M102,4.2a4.68,4.68,0,0,1-.86,5.1c.15-1.71.31-3.42.47-5.13Z"/><path d="M88.72,4.45a2.69,2.69,0,0,1,.48,3.61l-.84-3.51Z"/><path d="M104.23,4.6l-.79,3.83-.6-.11c.21-1.28.43-2.57.64-3.86Z"/><path d="M75.32,8.81c-.3-.94-.61-1.88-.87-2.83,0-.13.21-.47.35-.48a.67.67,0,0,1,.53.33c.2,1,.34,1.91.5,2.87Z"/><path d="M91.51,7.84a3.38,3.38,0,0,1-.25,2.91l-.42,0,.23-2.93Z"/><path d="M54.94,22.63c1.53-.24,2.65.18,3.18,1.29a2.5,2.5,0,0,1-.19,2.91,1.19,1.19,0,0,1-1.8.24c.15-1,2.06-1.41,1.13-2.67A10.38,10.38,0,0,0,54.94,22.63Z"/><path d="M75.38,21.09c.87.68,1.07,3.14.05,4.53L75,21.16Z"/><path d="M60.88,26.89V23.08h.34v3.79Z"/><path d="M60.27,37.6a10.83,10.83,0,0,1,.18-5.06.53.53,0,0,1,.43-.3c.18,0,.47.28.45.42-.13,1.66-.3,3.32-.47,5Z"/><path d="M63.46,33.49c0,1.1,0,1.92,0,2.74a6,6,0,0,1-.11,1.19.77.77,0,0,1-.46.42.58.58,0,0,1-.51-.2C62,37.1,62.54,34.28,63.46,33.49Z"/><path d="M55.47,38.47a2.11,2.11,0,0,1,2.07,2.69,1.29,1.29,0,0,1-1.63.84.61.61,0,0,1-.4-.38.64.64,0,0,1,.22-.49c1.11-.9,1.13-1.06.05-2.09a2,2,0,0,0-.55-.24Z"/><path d="M75.65,44V39.54A3.36,3.36,0,0,1,75.65,44Z"/><path d="M63.17,40.17c-.32,1.52-.6,2.84-.89,4.25C61.22,43.17,61.64,40.74,63.17,40.17Z"/><path d="M77.24,43.55c0-1.32,0-2.45,0-3.57,0-.14.2-.33.36-.4s.3.07.39.17C78.58,40.37,78.19,42.81,77.24,43.55Z"/><path d="M60.11,43.07a3.86,3.86,0,0,1,.44-3.37l.46.07c-.19,1.12-.37,2.24-.56,3.37Z"/></g></g></svg>
