<?xml version="1.0" encoding="utf-8"?>
<!-- Generator: Adobe Illustrator 22.1.0, SVG Export Plug-In . SVG Version: 6.00 Build 0)  -->
<svg version="1.1" id="Capa_1" xmlns="http://www.w3.org/2000/svg" xmlns:xlink="http://www.w3.org/1999/xlink" x="0px" y="0px"
	 viewBox="0 0 1377 757.8" style="enable-background:new 0 0 1377 757.8;" xml:space="preserve">
<style type="text/css">
	.st0{fill:#FFFFFF;}
</style>
<title>Recurso 2</title>
<g id="Capa_2_1_">
	<g id="Capa_3">
		<path class="st0" d="M68.4,183.2c15.4-8,33.8-12,54.7-12c19.5,0,38.6,4.4,56.1,13c4.7,2.3,9.2,4.9,13.6,7.9c2.6,2,5.2,4.1,7.9,6.4
			c25.8,22.9,43.1,57.8,51.8,104.1c0.3,2.1,1,6.8,1,6.8v140.7c0,11.4,8.9,20.6,19.9,20.6c5.3,0,10.4-2.2,14.1-6
			c3.8-3.9,5.9-9.1,5.8-14.5V178.4H331v276.9c-1,17.3-9.3,30.8-21.6,41.1c-10.2,8.6-23.1,13.2-36.4,13.2
			c-31.9,0-57.9-26.7-57.9-59.5V314.9c0.2-14.3-1.8-28.5-5.8-42.3c-3.6-12.5-9.5-24.2-17.3-34.7c-7.3-9.7-16.7-17.7-27.4-23.4
			c-10.7-5.7-23-8.7-36.5-8.7c-15.6,0-29.1,3.1-40.3,9.2c-11.1,6-20.7,14.6-27.8,25.1C52.4,251.6,47,264.3,44,277.6
			c-3.5,15.2-4.8,30.9-4.1,46.5c0,16.6,2.3,31.3,6.8,43.8c4,11.7,10.4,22.5,18.7,31.7c7.8,8.5,17.2,15.2,27.8,19.6
			c11.1,4.6,23,6.9,34.9,6.7c13.9,0,26.4-2.9,37.3-8.4c10.8-5.5,20.1-13.4,27.3-23.1c5.1-6.9,9.2-14.4,12.4-22.3l1.1-2.7v56
			c-1.1,1.3-2.3,2.4-3.5,3.6c-7.2,6.8-15.3,12.7-24,17.4c-8.5,4.5-17.6,8.1-26.9,10.6c-8.9,2.4-18.1,3.7-27.3,3.7
			c-22.2,0-41.3-3.8-56.9-11.2c-15.1-7.1-28.4-17.6-38.7-30.7c-10.1-12.9-17.5-28.4-22.1-46c-4.7-18.4-7-37.3-6.9-56.3
			c-0.1-18.5,2.4-36.9,7.4-54.8c4.5-16.8,12.2-32.5,22.6-46.5C40.3,201.8,53.4,190.9,68.4,183.2 M390.9,193.5
			c-17.1,14.9-25.8,34.4-25.8,57.7c0,18.4,4.6,32.9,13.5,43.2c9.1,10.2,20.4,18.2,33.1,23.2c13.6,5.4,27.7,9.4,42.1,11.9
			c13.8,2.4,27.5,5.5,41.1,9.2c12.3,3.5,22.6,8.4,30.7,14.5c7.6,5.8,11.3,14.4,11.3,26.5c0,5.9-1.3,11.8-3.8,17.2
			c-2.7,5.6-6.6,10.6-11.3,14.7c-5.7,4.7-12.2,8.3-19.3,10.5c-7.9,2.6-17.5,4-28.4,4c-22.6,0-40.1-4.6-52.1-13.6
			s-20.2-24.7-24.9-46.9l-0.6-2.7h-38l0.2,3.6c0.6,12.7,3.5,25.2,8.6,36.9c4.9,11.3,12.1,21.6,21,30.1c9.4,8.8,20.4,15.7,32.5,20.1
			c12.6,4.8,27.2,7.2,43.4,7.2c15,0.1,30-1.5,44.6-5c13.6-3.4,25.6-8.5,35.5-15.3c9.9-6.6,18-15.4,23.8-25.8
			c5.8-10.3,8.7-22.3,8.7-35.6c0-18-4.5-32.4-13.5-42.6c-9.1-10.3-20.4-18.4-33-23.9c-13.5-6-27.6-10.5-42.1-13.4
			c-14.7-3.1-28.5-6.6-41.1-10.5c-12.3-3.8-22.7-8.9-30.8-15c-7.6-5.8-11.3-13.9-11.3-25c0-12.9,4.7-22.9,14.3-30.8
			s24.1-11.9,42.9-11.9c18.9,0,34.8,4.1,47.1,12.1c12,7.8,18.9,21.7,22,41.1c4.8,30.1,17.7,49.2,46.3,58.7
			c-0.4-12.9,0.7-25.7,3.3-38.3c-5.7-5.5-8.6-11-11.3-21.1c-8-30.4-15.5-53.8-34.3-67.2c-18.6-13.3-43.1-20.1-72.7-20.1
			C432.1,171.2,407.9,178.7,390.9,193.5 M659.7,182.6c-15.4,7.5-28.9,18.2-39.7,31.5c-11.1,13.8-19.5,29.5-24.9,46.4
			c-1.8,5.2-3.3,10.5-4.4,15.9c-2.3,10.1-2.7,13.7-2.7,13.7c-1.2,7.7-1.7,15.4-1.6,23.1c0,0-0.1,2.9-0.1,3.7
			c-0.1,19,2.4,37.8,7.4,56.1c4.9,17.5,12.6,32.8,22.9,45.7c10.6,13.2,24.1,23.7,39.5,30.8c15.9,7.4,35,11.2,56.9,11.2
			c17.2,0,32.6-2.3,45.7-6.9c12.6-4.3,24.2-10.9,34.2-19.6c9.6-8.4,17.7-18.3,24-29.4c6.5-11.4,11.6-23.6,15.3-36.2l1.3-4.4h-41.9
			l-0.6,2.6c-4.6,18.8-14,33.5-27.7,43.7S732.5,426,713,426c-14.2,0-27-2.8-37.8-8.2c-10.6-5.1-19.9-12.6-27.2-21.8
			c-7.4-9.7-12.9-20.8-16.2-32.5c-2.5-8.5-4.1-17.2-4.9-26c-1.9-12.9-2.1-25.9-0.7-38.8c1.1-12.4,3.9-24.7,8.6-36.3
			c4.1-10.6,9.9-20.4,17.3-29.1c7.2-8.4,16-15.2,25.9-20c10-4.9,21.8-7.4,35-7.4s25.1,2.4,35.3,7.2c9.8,4.5,18.5,11.1,25.5,19.3
			c7,8.5,12.2,18.3,15.4,28.9c2.1,6.8,3.6,13.8,4.4,20.9c0.2,2.2,0.3,6.3-2,8.9c-1.7,1.9-4.5,2.8-8.4,2.8H635.6
			c-1.8,10.8-2.2,21.8-1.2,32.7h165.8c21.3,0,33.3-1.4,33.3-29.5c0-32.3-10.7-62.2-30.9-86.6c-21.6-26.1-51.8-39.3-89.6-39.3
			C693.2,171.2,675.3,175,659.7,182.6 M1193,182.6c-15.5,7.2-29.1,17.8-40,30.9c-10.6,12.9-18.6,28.4-23.7,46
			c-5.2,18.3-7.8,37.3-7.6,56.4l-0.6,134.2c0,11.4-8.9,20.6-19.9,20.6s-19.9-9.2-19.9-20.6l-0.3-50.8V274.5
			c0-10.8-0.6-21.5-1.8-32.2c-1.3-10.7-5.4-21.2-12.2-31.3c-10-14.7-22.6-25.1-37.3-31c-15.1-5.9-31.2-8.9-47.4-8.8
			c-19.2,0-35.9,4.4-49.7,13c-12.1,7.6-23.3,16.6-33.4,26.7v-32.4h-37.9v275.1h37.9V305.6c0-9.2,0.3-17.9,1-25.6
			c0.8-8.2,2.7-16.3,5.5-24c2.4-6.7,5.7-13.1,9.9-18.8c4.4-6,9.6-11.4,15.6-15.9c6.3-4.7,13.2-8.5,20.6-11.2
			c8.1-2.9,16.6-4.3,25.2-4.2c23.7,0,40.8,5.7,50.8,17s15.2,28.9,15.2,52.1v175.1c0,32.8,26,59.5,57.9,59.5
			c31.7,0,57.5-26.3,57.8-58.8V323c0-43,11.1-74.9,33-94.9c5.2-5.1,11.1-9.5,17.4-13c11-6.1,24.5-9.2,40.1-9.2s29,3.1,40,9.2
			c10.8,5.9,20.1,14.2,27.1,24.3c7.3,10.7,12.6,22.6,15.7,35.2c0.5,2,2.1,9.8,2.1,9.8c1.9,10.4,2.9,21,3,31.6
			c0,13.9-1.7,27.7-5.1,41.1c-3.1,12.5-8.4,24.5-15.6,35.2c-6.9,10.2-16.2,18.7-27.1,24.6c-11,6.1-24.5,9.2-40,9.2s-29-3.1-40.1-9.2
			c-10.8-5.9-20.1-14.3-27-24.6c-6.6-9.6-10.8-20.7-14.2-32.7v72.1c8.6,7.7,18.4,14,28.9,18.7c15.7,6.9,33.3,10.4,52.4,10.4
			s36.7-3.5,52.4-10.4c15.5-6.7,29.4-16.9,40.6-29.6c11.1-12.7,19.8-28.1,25.8-45.7s9-37.4,9-59.1c0.1-19.1-2.5-38-7.6-56.4
			c-5.1-17.6-13.1-33.1-23.7-46c-10.9-13.1-24.6-23.7-40-30.9c-15.9-7.6-34.9-11.5-56.4-11.5s-40.4,3.8-56.4,11.5 M215.2,73.8v127.5
			c14.9,16.1,28.7,38.5,38.2,69.7V73.8H215.2z M293.2,104.1H331V73.8h-37.9L293.2,104.1z M861.2,104.1h219.7V73.8H861.2L861.2,104.1
			z M380,104.1V58.4h39.9v45.8h21.3V1.6h-21.3v39.1H380V1.6h-21.3v102.5H380z M534.4,94.1c10.1-9.5,15.1-23.3,15.1-41.2
			c0-18.3-5-32-15.1-41.2C526.8,3.9,515.9,0,501.6,0c-14.3,0-25.2,3.9-32.8,11.6c-10.1,9.2-15.2,22.9-15.2,41.2
			c0,18,5.1,31.7,15.2,41.2c7.5,7.8,18.5,11.7,32.8,11.7C515.9,105.8,526.8,101.9,534.4,94.1 M521.3,78.9
			c-4.9,6.1-11.4,9.2-19.7,9.2s-14.9-3.1-19.8-9.2c-4.9-6.1-7.4-14.8-7.4-26s2.5-19.9,7.4-26c4.9-6.1,11.5-9.1,19.8-9.1
			s14.8,3.1,19.7,9.2c4.9,6.1,7.3,14.8,7.3,26S526.1,72.8,521.3,78.9 M596,46.3L574.7,1.6h-25.2l35.5,64.1v38.4h21.4V65.7l34.3-64.1
			h-24.3L596,46.3z M753,104.1v-8.2h-60V55.2h52.8v-8.3H693v-37h58.5V1.6h-68.2v102.5L753,104.1z M760.5,73.1
			c-0.1,4.9,0.8,9.8,2.7,14.3c1.7,3.9,4.3,7.4,7.6,10.2c3.4,2.8,7.3,4.9,11.6,6.2c4.7,1.4,9.6,2,14.5,2c11.6,0,20.7-2.6,27.1-7.7
			c6.4-5.1,9.6-12.3,9.6-21.6c0.1-4.2-0.7-8.3-2.4-12.1c-1.5-3.1-3.7-5.8-6.5-7.9c-2.8-2.1-5.9-3.8-9.3-4.9
			c-3.6-1.2-7.2-2.3-10.8-3.1c-3.7-0.9-7.4-1.7-11-2.5c-3.4-0.7-6.7-1.7-9.8-3.1c-2.8-1.1-5.3-2.7-7.5-4.8c-2.1-2.1-3.5-4.8-3.9-7.8
			c-0.9-5.4,0.7-10.9,4.5-14.9c2.2-2.3,4.9-4.1,7.9-5.2c3.9-1.4,8-2.1,12.2-2c3.1,0,6.2,0.4,9.2,1.2c2.9,0.8,5.6,2.1,8,3.9
			c2.4,1.8,4.2,4.2,5.5,6.8c1.4,3.1,2.1,6.5,2,9.9h9.1c0-4-0.7-7.9-2.1-11.6c-1.4-3.6-3.5-6.9-6.3-9.6c-3-2.9-6.6-5.1-10.5-6.5
			c-4.8-1.7-9.8-2.5-14.8-2.4c-5-0.1-10,0.7-14.8,2.2c-3.9,1.3-7.5,3.3-10.7,6c-2.7,2.4-4.9,5.3-6.3,8.6c-1.4,3.1-2.2,6.6-2.2,10
			c-0.2,4.2,0.8,8.4,2.7,12.2c1.7,3.1,4,5.8,6.9,7.9c3,2.1,6.3,3.8,9.8,4.9c3.7,1.2,7.4,2.3,11.3,3.1s7.6,1.8,11.3,2.7
			c3.4,0.8,6.7,2.1,9.8,3.7c2.7,1.4,5.1,3.5,6.9,5.9c1.8,2.8,2.8,6.2,2.6,9.5c0,2.7-0.5,5.5-1.5,8c-1,2.5-2.5,4.8-4.5,6.6
			c-2.3,2.1-5,3.6-7.9,4.6c-3.7,1.2-7.7,1.8-11.6,1.7c-3.6,0-7.2-0.4-10.8-1.3c-3.2-0.8-6.2-2.3-8.8-4.2c-2.6-2-4.8-4.6-6.3-7.6
			c-1.7-3.6-2.8-7.4-3-11.4L760.5,73.1z"/>
		<polygon class="st0" points="592.2,472.8 399.5,472.8 388,514.6 424.7,514.6 357.9,757.8 403.2,757.8 470.1,514.6 580.7,514.6
			"/>
		<polygon class="st0" points="533.9,527.8 470.7,757.8 513.9,757.8 577.1,527.8 		"/>
		<path class="st0" d="M1039.4,472.8H873.5L833.8,609L830,473.5l0.1-0.8H781l0.1,1.5l-66.2,241H613.3l23.4-85h58.2l11.1-40.8h-58.2
			l20.5-74.5H729l11.6-42.2H633.4l-78.3,285h192l39.2-142.7l6.7,142.2v0.4h45.4l67-244H1011c7.1,0,11.7,1.1,15,3
			c4.2,2.3,7.1,6.3,8,11c0.7,4.2-0.4,9.7-2.6,17.4l-42.7,151.2c-4.2,15.1-16,24.1-31.7,24.1h-19l54-192.8h-46.8l-63.2,230h74.8
			c22.3,0,39.3-6.2,52-19c13.4-13.5,24-34.4,31.4-62.3l38-140.9c1.9-7,3.2-14.1,3.7-21.4C1062.1,508,1046.3,492.6,1039.4,472.8z"/>
		<path class="st0" d="M1158.3,472.8l-91.2,244h-29.6c-4.7,9.4-10.8,18-18.1,25.5c-6.8,6.9-15.1,12.2-24.3,15.5h99.9l17-48.7h44.5
			l-9.1,48.7h42l50.4-285H1158.3z M1162.2,677.1h-37.8l59.2-169.1h10L1162.2,677.1z"/>
	</g>
</g>
</svg>
