<?xml version="1.0" encoding="utf-8"?>
<!-- Generator: Adobe Illustrator 22.1.0, SVG Export Plug-In . SVG Version: 6.00 Build 0)  -->
<svg version="1.1" id="Capa_1" xmlns="http://www.w3.org/2000/svg" xmlns:xlink="http://www.w3.org/1999/xlink" x="0px" y="0px"
	 viewBox="0 0 1246.8 544.8" style="enable-background:new 0 0 1246.8 544.8;" xml:space="preserve">
<title>hed+</title>
<g id="Capa_2_1_">
	<g id="Capa_1-2">
		<path d="M61.9,165.9c14-7.2,30.6-10.9,49.5-10.9c17.6,0,35,4,50.8,11.8c4.3,2.1,8.4,4.5,12.3,7.2c2.4,1.8,4.8,3.7,7.1,5.8
			c23.4,20.8,39,52.3,46.9,94.2c0.3,1.9,0.9,6.2,0.9,6.2v127.4c0,10.3,8.1,18.6,18,18.6c4.8,0,9.4-2,12.7-5.5
			c3.4-3.5,5.3-8.3,5.3-13.2v-246h34.3v250.7c-0.9,15.6-8.4,27.9-19.5,37.2c-9.2,7.8-20.9,12-33,12c-28.9,0-52.4-24.2-52.4-53.9
			V285.1c0.1-12.9-1.6-25.8-5.2-38.3c-3.3-11.3-8.6-21.9-15.7-31.4c-6.7-8.8-15.1-16-24.8-21.2c-9.7-5.2-20.8-7.8-33-7.8
			c-14.1,0-26.4,2.8-36.5,8.3c-10.1,5.5-18.7,13.3-25.2,22.7c-6.9,10.3-11.8,21.8-14.5,33.9c-3.1,13.8-4.4,28-3.7,42.1
			c0,15,2.1,28.3,6.2,39.6c3.7,10.6,9.5,20.4,17,28.7c7,7.7,15.6,13.7,25.2,17.8c10,4.1,20.8,6.2,31.6,6.1c12.6,0,24-2.6,33.8-7.6
			c9.7-5,18.2-12.1,24.7-20.9c4.6-6.2,8.3-13,11.2-20.2l1-2.5v50.7c-1,1.1-2.1,2.2-3.1,3.2c-6.5,6.2-13.8,11.5-21.8,15.7
			c-7.7,4.1-15.9,7.3-24.3,9.6c-8.1,2.2-16.4,3.3-24.7,3.4c-20.1,0-37.4-3.4-51.5-10.1c-13.7-6.4-25.7-16-35.1-27.8
			c-9.1-11.7-15.9-25.7-20-41.7c-4.2-16.7-6.3-33.8-6.2-51c0-16.7,2.2-33.4,6.7-49.5c4.1-15.2,11-29.5,20.4-42.1
			C36.4,182.8,48.3,172.9,61.9,165.9 M353.9,175.2c-15.5,13.5-23.3,31.1-23.3,52.3c0,16.6,4.1,29.8,12.3,39.1
			c8.2,9.3,18.5,16.5,30,21c12.3,4.9,25.1,8.5,38.1,10.7c12.5,2.1,25,4.9,37.2,8.4c11.1,3.2,20.5,7.6,27.8,13.1
			c6.9,5.2,10.3,13.1,10.3,24c0,5.4-1.2,10.7-3.5,15.6c-2.5,5.1-5.9,9.6-10.3,13.3c-5.1,4.3-11.1,7.5-17.5,9.5
			c-7.1,2.4-15.8,3.6-25.8,3.6c-20.5,0-36.4-4.1-47.1-12.3S363.9,351,359.7,331l-0.5-2.5h-34.4l0.2,3.3c0.6,11.5,3.2,22.8,7.8,33.4
			c4.5,10.3,10.9,19.5,19,27.3c8.5,8,18.5,14.2,29.4,18.2c11.4,4.3,24.6,6.5,39.3,6.5c13.6,0.1,27.1-1.4,40.4-4.5
			c11.5-2.7,22.3-7.4,32.2-13.9c8.9-6,16.3-14,21.6-23.3c5.2-9.3,7.9-20.2,7.9-32.2c0-16.3-4.1-29.3-12.2-38.6
			c-8.3-9.3-18.5-16.7-29.9-21.7c-12.2-5.4-25-9.5-38.1-12.1c-13.3-2.8-25.9-6-37.2-9.5c-11.2-3.5-20.5-8-27.9-13.6
			c-6.9-5.2-10.2-12.6-10.2-22.6c0-11.6,4.2-20.8,12.9-27.9s21.9-10.8,38.9-10.8s31.5,3.7,42.6,11c10.8,7.1,17.1,19.7,20,37.2
			c4.3,27.2,16,44.6,41.9,53.1c-0.4-11.6,0.6-23.3,3-34.7c-5.1-5-7.8-9.9-10.2-19.1c-7.2-27.5-14-48.7-31-60.8
			C468,161.1,445.8,155,419,155C391.2,155,369.3,161.8,353.9,175.2 M597.3,165.4c-13.9,6.8-26.2,16.5-36,28.5
			c-10,12.5-17.7,26.7-22.6,42c-1.7,4.7-3,9.5-4,14.4c-2,9.1-2.5,12.4-2.5,12.4c-1.1,6.9-1.6,13.9-1.4,21c0,0-0.1,2.6-0.1,3.4
			c-0.1,17.2,2.1,34.3,6.7,50.8c4.1,15,11.1,29.1,20.7,41.4c9.6,12,21.9,21.5,35.8,27.9c14.4,6.7,31.7,10.1,51.5,10.1
			c15.6,0,29.5-2.1,41.3-6.3c11.4-3.9,21.9-9.9,31-17.7c8.7-7.6,16.1-16.6,21.8-26.6c5.9-10.4,10.5-21.4,13.9-32.8l1.2-4h-38
			l-0.6,2.4c-4.2,17-12.6,30.3-25.1,39.5s-27.8,13.9-45.5,13.9c-12.9,0-24.4-2.5-34.3-7.4c-9.6-4.7-17.9-11.4-24.5-19.8
			c-6.7-8.8-11.7-18.8-14.7-29.5c-2.2-7.7-3.7-15.6-4.4-23.6c-1.7-11.6-1.9-23.5-0.6-35.2c1-11.3,3.6-22.3,7.8-32.8
			c3.7-9.6,9-18.5,15.7-26.3c6.5-7.5,14.5-13.7,23.4-18c9.1-4.4,19.7-6.7,31.7-6.7s22.7,2.2,32,6.5c8.9,4.1,16.8,10,23.1,17.5
			c6.3,7.7,11.1,16.6,14,26.2c1.9,6.2,3.3,12.5,4,18.9c0.2,2,0.3,5.7-1.8,8.1c-1.5,1.7-4.1,2.6-7.6,2.6H575.5
			c-1.6,9.8-2,19.7-1.1,29.6h150.2c19.3,0,30.2-1.2,30.2-26.8c0-29.2-9.7-56.4-28-78.4c-19.6-23.6-46.9-35.6-81.2-35.6
			C627.6,155,611.4,158.5,597.3,165.4 M1080.1,165.3c-14,6.6-26.4,16.1-36.2,28c-9.9,12.3-17.2,26.5-21.4,41.7
			c-4.7,16.6-7,33.8-6.9,51l-0.5,121.5c0,10.3-8.1,18.6-18,18.6s-18-8.4-18-18.7l-0.2-46v-113c0-9.8-0.5-19.5-1.7-29.2
			c-1.2-9.7-4.9-19.2-11.1-28.4c-9.1-13.3-20.4-22.7-33.7-28.1c-13.7-5.4-28.2-8.1-42.9-8c-17.4,0-32.5,3.9-45,11.7
			c-10.9,6.9-21.1,15-30.2,24.1v-29.3h-34.4v249.2h34.3V276.7c0-8.4,0.3-16.2,0.9-23.2c0.7-7.4,2.4-14.8,5-21.8
			c2.2-6.1,5.2-11.8,9-17c4-5.5,8.7-10.3,14.1-14.4c5.7-4.3,12-7.7,18.7-10.1c7.3-2.6,15.1-3.9,22.8-3.8c21.5,0,37,5.2,46,15.4
			s13.7,26.1,13.7,47.1v158.5c0,29.7,23.5,53.9,52.4,53.9c28.7,0,52-23.8,52.4-53.2V292.4c0-38.9,10.1-67.8,29.9-86
			c4.7-4.6,10-8.6,15.8-11.7c10-5.5,22.2-8.3,36.3-8.3s26.3,2.8,36.3,8.3c9.8,5.3,18.2,12.8,24.5,22c6.5,9.7,11.3,20.5,14,31.9
			c0.4,1.8,1.9,8.8,1.9,8.8c1.7,9.4,2.6,19,2.7,28.6c0,12.6-1.5,25.1-4.6,37.2c-2.8,11.4-7.6,22.1-14.1,31.9
			c-6.3,9.3-14.7,16.9-24.5,22.2c-9.9,5.5-22.2,8.3-36.3,8.3s-26.3-2.8-36.3-8.3c-9.8-5.4-18.2-13-24.5-22.2
			c-5.9-8.7-9.8-18.7-12.9-29.6v65.3c7.8,7,16.6,12.7,26.2,17c14.2,6.2,30.2,9.4,47.4,9.4s33.2-3.2,47.4-9.4
			c14.1-6.1,26.6-15.3,36.8-26.8c10.4-12.1,18.4-26.2,23.3-41.4c5.4-15.9,8.1-33.9,8.1-53.5c0.1-17.2-2.2-34.4-6.9-51
			c-4.3-15.2-11.6-29.4-21.5-41.6c-9.9-11.9-22.2-21.4-36.2-28c-14.4-6.9-31.6-10.4-51-10.4s-36.6,3.5-51,10.4 M194.8,66.8v115.5
			c13.5,14.6,26,34.9,34.6,63.1V66.8H194.8z M265.4,94.3h34.3V66.8h-34.3V94.3z M779.8,94.3h198.9V66.8H779.8V94.3z M344.1,94.3
			V52.8h36.1v41.4h19.3V1.5h-19.3v35.4h-36.1V1.5h-19.3v92.8L344.1,94.3z M483.8,85.2c9.1-8.6,13.7-21.1,13.7-37.3
			c0-16.6-4.6-29-13.7-37.3C477,3.5,467.1,0,454.2,0s-22.8,3.5-29.7,10.6c-9.2,8.3-13.7,20.7-13.8,37.3c0,16.3,4.6,28.7,13.8,37.3
			c6.8,7,16.7,10.6,29.7,10.6C467.1,95.8,477,92.2,483.8,85.2 M472,71.4c-4.4,5.5-10.4,8.3-17.8,8.3c-7.5,0-13.4-2.8-17.9-8.3
			c-4.5-5.5-6.7-13.4-6.7-23.6c0-10.2,2.2-18.1,6.7-23.6c4.4-5.5,10.4-8.3,17.9-8.3s13.4,2.8,17.8,8.3c4.4,5.5,6.6,13.4,6.6,23.5
			S476.4,65.9,472,71.4 M539.6,41.9L520.4,1.5h-22.9l32.1,58v34.8H549V59.5l31-58h-22L539.6,41.9z M681.7,94.3v-7.5h-54.3V49.9h47.8
			v-7.5h-47.8V9h53V1.5h-61.8v92.8H681.7z M688.5,66.2c-0.1,4.5,0.7,8.9,2.5,13c1.6,3.6,3.9,6.7,6.9,9.2c3.1,2.6,6.6,4.5,10.5,5.6
			c4.3,1.3,8.7,1.9,13.1,1.8c10.5,0,18.7-2.3,24.5-7c5.8-4.7,8.7-11.2,8.7-19.6c0.1-3.8-0.6-7.5-2.2-10.9c-1.4-2.8-3.4-5.2-5.9-7.1
			c-2.6-1.9-5.4-3.4-8.4-4.4c-3.2-1.1-6.5-2.1-9.8-2.8c-3.4-0.8-6.7-1.6-9.9-2.3c-3.1-0.7-6-1.6-8.9-2.8c-2.5-1-4.8-2.5-6.8-4.3
			c-1.9-1.9-3.2-4.4-3.6-7.1c-0.8-4.9,0.7-9.9,4.1-13.5c2-2.1,4.4-3.7,7.2-4.8c3.5-1.3,7.2-1.9,11-1.8c2.8,0,5.6,0.4,8.3,1.1
			c2.6,0.7,5,1.9,7.2,3.6c2.1,1.6,3.9,3.8,5,6.2c1.3,2.8,1.9,5.9,1.8,9h8.2c0-3.6-0.6-7.1-1.9-10.5c-1.2-3.3-3.2-6.2-5.7-8.7
			c-2.7-2.6-6-4.6-9.5-5.9c-4.3-1.5-8.9-2.2-13.5-2.1c-4.5-0.1-9.1,0.6-13.4,2c-3.5,1.2-6.8,3-9.7,5.4c-2.5,2.1-4.5,4.8-5.8,7.8
			c-1.3,2.9-2,6-2,9.1c-0.1,3.8,0.7,7.6,2.4,11c1.5,2.8,3.7,5.3,6.3,7.1c2.7,1.9,5.7,3.4,8.9,4.5c3.3,1.1,6.7,2,10.2,2.8
			c3.5,0.8,6.9,1.6,10.2,2.5c3.1,0.8,6,1.9,8.8,3.4c2.5,1.3,4.6,3.1,6.3,5.3c1.7,2.5,2.5,5.6,2.4,8.6c0,2.5-0.4,4.9-1.3,7.2
			c-0.9,2.3-2.3,4.3-4.1,6c-2.1,1.9-4.5,3.3-7.2,4.1c-3.4,1.1-6.9,1.6-10.5,1.5c-3.3,0-6.6-0.4-9.8-1.2c-2.9-0.7-5.6-2-8-3.8
			c-2.4-1.9-4.3-4.2-5.7-6.9c-1.6-3.2-2.5-6.7-2.7-10.3H688.5z"/>
		<path d="M32.8,517.3v8.6c0,0.3-0.2,0.6-0.6,0.7c0,0-0.1,0-0.1,0h-8.3c-0.3,0-0.6,0.2-0.7,0.6c0,0,0,0.1,0,0.1v9
			c0,0.3-0.3,0.6-0.6,0.7c0,0,0,0-0.1,0h-9.9c-0.3,0-0.6-0.2-0.7-0.6c0,0,0-0.1,0-0.1v-9c0-0.3-0.2-0.6-0.6-0.7c0,0,0,0-0.1,0H2.9
			c-0.3,0-0.6-0.2-0.7-0.6c0,0,0-0.1,0-0.1v-8.6c0-0.3,0.3-0.6,0.6-0.7c0,0,0,0,0.1,0h8.4c0.3,0,0.7-0.2,0.7-0.5c0,0,0,0,0-0.1v-9
			c0-0.3,0.2-0.6,0.6-0.7c0,0,0.1,0,0.1,0h9.9c0.3,0,0.6,0.2,0.7,0.6c0,0,0,0.1,0,0.1v9c0,0.3,0.2,0.6,0.6,0.7c0,0,0.1,0,0.1,0h8.3
			C32.5,516.6,32.8,516.9,32.8,517.3z"/>
		<path d="M76.9,527.8l9.2,1.2c0.5,0.1,0.5,0.6,0.4,0.9c-1.6,8.6-10,15-20,15c-13.7,0-23.1-10.9-23.1-23.9s9.4-23.6,23.1-23.6
			c10,0,18.3,6.4,20,15c0.1,0.3,0.1,0.9-0.4,0.9l-9.2,1.2c-0.4,0.1-0.8,0-0.9-0.4c-1.5-4.2-5.5-6.9-10-6.8
			c-5.7,0-11.4,4.4-11.4,13.7s5.8,13.9,11.4,13.9c4.5,0.1,8.5-2.6,10-6.8C76.2,527.8,76.6,527.6,76.9,527.8z"/>
		<path d="M93.8,544v-45.7c0-0.3,0.2-0.6,0.6-0.7c0,0,0.1,0,0.1,0h20.1c9.4,0,17.1,7,17.1,16.6c0.1,5.8-3,11.2-8,14.1
			c-0.3,0.2-0.4,0.6-0.2,0.9c0,0,0,0,0,0l7.8,14.6c0.3,0.5,0,0.8-0.5,0.8h-10.7c-0.3,0-0.7-0.2-0.8-0.5l-6.7-13
			c-0.1-0.3-0.5-0.5-0.8-0.5h-6.2c-0.3,0-0.6,0.2-0.7,0.6c0,0,0,0,0,0.1V544c0,0.3-0.2,0.6-0.6,0.7c0,0-0.1,0-0.1,0h-9.9
			C94.2,544.7,93.9,544.4,93.8,544C93.8,544.1,93.8,544,93.8,544z M113.3,520.8c4,0,7.2-2.8,7.2-6.7c0-4.1-3.4-6.7-7.2-6.7h-7.6
			c-0.3,0-0.6,0.2-0.7,0.6c0,0,0,0,0,0.1v12c0,0.3,0.2,0.6,0.6,0.7c0,0,0,0,0.1,0L113.3,520.8z"/>
		<path d="M169.2,535.4v8.6c0,0.3-0.2,0.6-0.6,0.7c0,0-0.1,0-0.1,0h-28.9c-0.3,0-0.6-0.3-0.6-0.6c0,0,0,0,0-0.1v-45.7
			c0-0.3,0.2-0.6,0.6-0.7c0,0,0.1,0,0.1,0h28.3c0.3,0,0.6,0.2,0.7,0.6c0,0,0,0.1,0,0.1v8.6c0,0.3-0.2,0.6-0.6,0.7c0,0-0.1,0-0.1,0
			h-17.1c-0.3,0-0.6,0.2-0.6,0.6c0,0,0,0.1,0,0.1v7.7c0,0.3,0.2,0.6,0.6,0.7c0,0,0,0,0.1,0h12.3c0.3,0,0.6,0.2,0.7,0.6
			c0,0,0,0,0,0.1v8.6c0,0.3-0.3,0.6-0.6,0.7c0,0,0,0-0.1,0h-12.3c-0.3,0-0.6,0.2-0.7,0.6c0,0,0,0,0,0.1v7c0,0.3,0.2,0.6,0.6,0.7
			c0,0,0,0,0.1,0h17.7C168.9,534.8,169.2,535,169.2,535.4C169.2,535.4,169.2,535.4,169.2,535.4z"/>
		<path d="M195.7,497.6h4.5c0.3,0,0.6,0.2,0.8,0.5l20.9,45.8c0.2,0.5,0,0.8-0.5,0.8H212c-0.3,0-0.7-0.2-0.8-0.5l-3-6.3
			c-0.1-0.3-0.4-0.5-0.7-0.5h-19.2c-0.3,0-0.6,0.2-0.8,0.5l-3,6.3c-0.1,0.3-0.4,0.5-0.7,0.5h-9.4c-0.5,0-0.7-0.3-0.5-0.8l21-45.8
			C195.1,497.8,195.4,497.6,195.7,497.6z M192.9,527.5h9.9c0.5,0,0.7-0.3,0.5-0.8l-4.9-11.1c-0.1-0.3-0.3-0.4-0.6-0.3
			c-0.2,0-0.3,0.2-0.3,0.3l-5,11.1C192.3,527.2,192.5,527.5,192.9,527.5z"/>
		<path d="M253.8,498.3v8.6c0,0.3-0.2,0.6-0.6,0.7c0,0-0.1,0-0.1,0h-11.3c-0.3,0-0.6,0.2-0.7,0.6c0,0,0,0,0,0.1V544
			c0,0.3-0.2,0.6-0.6,0.7c0,0-0.1,0-0.1,0h-9.9c-0.3,0-0.6-0.2-0.7-0.6c0,0,0-0.1,0-0.1v-35.8c0-0.3-0.2-0.6-0.6-0.7c0,0,0,0-0.1,0
			H218c-0.3,0-0.6-0.2-0.7-0.6c0,0,0-0.1,0-0.1v-8.6c0-0.3,0.2-0.6,0.6-0.7c0,0,0.1,0,0.1,0h35.1
			C253.5,497.6,253.8,497.8,253.8,498.3C253.8,498.2,253.8,498.2,253.8,498.3z"/>
		<path d="M271,544.6h-9.9c-0.3,0-0.6-0.2-0.7-0.6c0,0,0-0.1,0-0.1v-45.7c0-0.3,0.2-0.6,0.6-0.7c0,0,0.1,0,0.1,0h9.9
			c0.3,0,0.6,0.3,0.7,0.6c0,0,0,0,0,0.1V544C271.7,544.3,271.4,544.6,271,544.6C271,544.6,271,544.6,271,544.6z"/>
		<path d="M304,544.6h-4.6c-0.3,0-0.7-0.2-0.8-0.5l-20.9-45.7c-0.2-0.2-0.1-0.6,0.2-0.7c0.1-0.1,0.2-0.1,0.4-0.1h9.9
			c0.3,0,0.5,0.1,0.7,0.5l12.4,28.6c0.3,0.5,0.7,0.5,0.9,0l12.4-28.6c0.2-0.4,0.4-0.5,0.7-0.5h9.9c0.3,0,0.6,0.2,0.6,0.5
			c0,0.1,0,0.2-0.1,0.3l-21,45.8C304.6,544.5,304.3,544.6,304,544.6z"/>
		<path d="M340.2,544.6h-9.9c-0.3,0-0.6-0.2-0.7-0.6c0,0,0-0.1,0-0.1v-45.7c0-0.3,0.3-0.6,0.6-0.7c0,0,0,0,0.1,0h9.9
			c0.3,0,0.6,0.2,0.7,0.6c0,0,0,0,0,0.1V544C340.9,544.3,340.6,544.6,340.2,544.6C340.3,544.6,340.3,544.6,340.2,544.6z"/>
		<path d="M368.3,544.6h-16.8c-0.3,0-0.6-0.2-0.7-0.6c0,0,0,0,0-0.1v-45.7c0-0.3,0.2-0.6,0.6-0.7c0,0,0,0,0.1,0h16.8
			c13.6,0,24.5,10.1,24.5,23.6S381.9,544.6,368.3,544.6z M369,507.5h-6.3c-0.3,0-0.6,0.2-0.7,0.6c0,0,0,0,0,0.1v26
			c0,0.3,0.2,0.6,0.6,0.7c0,0,0.1,0,0.1,0h6.3c6,0,12.6-5.1,12.6-13.6S375,507.5,369,507.5L369,507.5z"/>
		<path d="M414.6,497.6h4.5c0.3,0,0.6,0.2,0.8,0.5l20.9,45.8c0.2,0.5,0,0.8-0.5,0.8h-9.4c-0.3,0-0.7-0.2-0.8-0.5l-3-6.3
			c-0.1-0.3-0.4-0.5-0.7-0.5h-19.2c-0.3,0-0.6,0.2-0.8,0.5l-3,6.3c-0.1,0.3-0.4,0.5-0.7,0.5h-9.4c-0.5,0-0.6-0.3-0.5-0.8l21-45.8
			C414,497.8,414.3,497.6,414.6,497.6z M411.8,527.5h10c0.5,0,0.7-0.3,0.5-0.8l-4.9-11.1c-0.1-0.3-0.3-0.4-0.6-0.3
			c-0.2,0-0.3,0.2-0.3,0.3l-5,11.1C411.2,527.2,411.4,527.5,411.8,527.5L411.8,527.5z"/>
		<path d="M464.3,544.6h-16.8c-0.3,0-0.6-0.2-0.7-0.6c0,0,0-0.1,0-0.1v-45.7c0-0.3,0.3-0.6,0.6-0.7c0,0,0,0,0.1,0h16.8
			c13.6,0,24.5,10.1,24.5,23.6S477.9,544.6,464.3,544.6z M464.9,507.5h-6.3c-0.3,0-0.6,0.2-0.7,0.6c0,0,0,0,0,0.1v26
			c0,0.3,0.2,0.6,0.6,0.7c0,0,0.1,0,0.1,0h6.3c6,0,12.6-5.1,12.6-13.6S470.9,507.5,464.9,507.5z"/>
		<path d="M530.5,517.3v8.6c0,0.3-0.2,0.6-0.6,0.7c0,0-0.1,0-0.1,0h-8.3c-0.3,0-0.6,0.2-0.7,0.6c0,0,0,0,0,0.1v9
			c0,0.3-0.2,0.6-0.6,0.7c0,0-0.1,0-0.1,0h-9.9c-0.3,0-0.6-0.2-0.7-0.6c0,0,0-0.1,0-0.1v-9c0-0.3-0.2-0.6-0.6-0.7c0,0,0,0-0.1,0
			h-8.4c-0.3,0-0.6-0.2-0.7-0.6c0,0,0,0,0-0.1v-8.6c0-0.3,0.2-0.6,0.6-0.7c0,0,0,0,0.1,0h8.4c0.3,0,0.6-0.2,0.7-0.6c0,0,0,0,0-0.1
			v-9c0-0.3,0.2-0.6,0.6-0.7c0,0,0.1,0,0.1,0h9.9c0.3,0,0.6,0.2,0.7,0.6c0,0,0,0.1,0,0.1v9c0,0.3,0.2,0.6,0.6,0.7c0,0,0,0,0.1,0h8.3
			C530.2,516.6,530.5,516.8,530.5,517.3C530.5,517.2,530.5,517.2,530.5,517.3z"/>
		<path d="M558.6,544.6h-16.8c-0.3,0-0.6-0.2-0.7-0.6c0,0,0-0.1,0-0.1v-45.7c0-0.3,0.2-0.6,0.6-0.7c0,0,0.1,0,0.1,0h16.8
			c13.6,0,24.5,10.1,24.5,23.6S572.2,544.6,558.6,544.6z M559.2,507.5H553c-0.3,0-0.6,0.2-0.7,0.6c0,0,0,0,0,0.1v26
			c0,0.3,0.2,0.6,0.6,0.7c0,0,0.1,0,0.1,0h6.3c6,0,12.6-5.1,12.6-13.6S565.2,507.5,559.2,507.5z"/>
		<path d="M598.9,544.6H589c-0.3,0-0.6-0.2-0.7-0.6c0,0,0-0.1,0-0.1v-45.7c0-0.3,0.2-0.6,0.6-0.7c0,0,0.1,0,0.1,0h9.9
			c0.3,0,0.6,0.3,0.7,0.6c0,0,0,0,0,0.1V544C599.6,544.3,599.3,544.6,598.9,544.6C598.9,544.6,598.9,544.6,598.9,544.6z"/>
		<path d="M606.8,530.3c0-0.5-0.1-0.9,0.7-1l9.2-1.2c0.5-0.1,0.9-0.1,0.9,0.5c0,4.7,4.3,6.3,8.1,6.3s6.3-1.5,6.3-4
			c0-3.6-5.6-4.2-13.2-6.7c-7.2-2.4-10.8-6.5-10.8-13.6c0-8.8,7.3-13.2,16.2-13.2s16.6,4.4,16.6,13.7c0,0.4-0.3,0.6-0.7,0.7
			l-9.2,1.2c-0.5,0.1-0.7-0.1-0.7-0.7c0-3.5-3-5-6.4-5c-2.2,0-4.6,0.9-4.6,3.6c0,2.6,3,3.6,8.6,5.2c12.4,3.5,15.4,9,15.4,15.5
			c0,8.2-7,13.3-17.3,13.3C616.6,544.8,606.8,541.4,606.8,530.3z"/>
		<path d="M680.1,535.4v8.6c0,0.3-0.2,0.6-0.6,0.7c0,0-0.1,0-0.1,0h-29c-0.3,0-0.6-0.2-0.7-0.6c0,0,0-0.1,0-0.1v-45.7
			c0-0.3,0.3-0.6,0.6-0.7c0,0,0,0,0.1,0h28.3c0.3,0,0.6,0.2,0.7,0.6c0,0,0,0.1,0,0.1v8.6c0,0.3-0.2,0.6-0.6,0.7c0,0-0.1,0-0.1,0
			h-17.1c-0.3,0-0.6,0.2-0.7,0.6c0,0,0,0,0,0.1v7.7c0,0.3,0.2,0.6,0.6,0.7c0,0,0.1,0,0.1,0H674c0.3,0,0.6,0.2,0.7,0.6
			c0,0,0,0.1,0,0.1v8.6c0,0.3-0.2,0.6-0.6,0.7c0,0-0.1,0-0.1,0h-12.3c-0.3,0-0.6,0.3-0.7,0.6c0,0,0,0,0,0.1v7c0,0.3,0.2,0.6,0.6,0.7
			c0,0,0.1,0,0.1,0h17.7C679.8,534.8,680.1,535,680.1,535.4C680.1,535.4,680.1,535.4,680.1,535.4z"/>
		<path d="M725.9,544.6h-6.3c-0.3,0-0.6-0.1-0.8-0.4l-20-24.5c-0.4-0.5-0.8-0.3-0.8,0.3V544c0,0.3-0.2,0.6-0.6,0.7c0,0-0.1,0-0.1,0
			h-9.9c-0.3,0-0.6-0.2-0.7-0.6c0,0,0-0.1,0-0.1v-45.7c0-0.3,0.2-0.6,0.6-0.7c0,0,0.1,0,0.1,0h6.3c0.3,0,0.6,0.2,0.8,0.4l20,24.5
			c0.4,0.5,0.8,0.3,0.8-0.3v-23.9c0-0.3,0.2-0.6,0.6-0.7c0,0,0.1,0,0.1,0h9.9c0.3,0,0.6,0.3,0.7,0.6c0,0,0,0,0,0.1V544
			C726.5,544.3,726.3,544.6,725.9,544.6C725.9,544.6,725.9,544.6,725.9,544.6z M701.3,489.5c-1.8,0.1-3.3,1.1-4.1,2.7
			c-0.1,0.3-0.4,0.4-0.7,0.3l-3.6-1.1c-0.3,0-0.4-0.3-0.4-0.5c0,0,0-0.1,0-0.1c0.7-2.4,2.5-9.6,8.8-9.6c5,0,6.6,4.4,10,4.4
			c1.8,0.2,3.5-0.9,4.1-2.6c0.1-0.3,0.3-0.5,0.6-0.4c0,0,0,0,0.1,0l3.6,1c0.3,0,0.5,0.3,0.5,0.7c0,0,0,0.1,0,0.1
			c-0.7,2.6-2.3,9.4-8.8,9.4C706,493.9,704.7,489.5,701.3,489.5L701.3,489.5z"/>
		<path d="M780.6,521.1c0,13.6-10.1,23.7-23.7,23.7s-23.7-10.2-23.7-23.7s10.2-23.7,23.7-23.7S780.6,507.5,780.6,521.1z
			 M744.4,521.1c0,9.4,6.2,13.8,12.5,13.8s12.5-4.5,12.5-13.8s-6.1-13.8-12.5-13.8S744.4,511.7,744.4,521.1z"/>
		<path d="M823,517.3v8.6c0,0.3-0.2,0.6-0.6,0.7c0,0-0.1,0-0.1,0H814c-0.3,0-0.6,0.2-0.7,0.6c0,0,0,0,0,0.1v9c0,0.3-0.2,0.6-0.6,0.7
			c0,0-0.1,0-0.1,0h-9.9c-0.3,0-0.6-0.2-0.7-0.6c0,0,0-0.1,0-0.1v-9c0-0.3-0.2-0.6-0.6-0.7c0,0,0,0-0.1,0h-8.4
			c-0.3,0-0.6-0.2-0.7-0.6c0,0,0-0.1,0-0.1v-8.6c0-0.3,0.2-0.6,0.6-0.7c0,0,0.1,0,0.1,0h8.4c0.3,0,0.6-0.2,0.7-0.6c0,0,0,0,0-0.1v-9
			c0-0.3,0.2-0.6,0.6-0.7c0,0,0.1,0,0.1,0h9.9c0.3,0,0.6,0.2,0.7,0.6c0,0,0,0.1,0,0.1v9c0,0.3,0.2,0.6,0.6,0.7c0,0,0,0,0.1,0h8.3
			c0.3,0,0.6,0.2,0.7,0.5C823,517.2,823,517.2,823,517.3z"/>
		<path d="M843.5,544.6h-9.9c-0.3,0-0.6-0.2-0.7-0.6c0,0,0-0.1,0-0.1v-45.7c0-0.3,0.3-0.6,0.6-0.7c0,0,0,0,0.1,0h9.9
			c0.3,0,0.6,0.2,0.7,0.6c0,0,0,0,0,0.1V544C844.1,544.3,843.8,544.6,843.5,544.6C843.5,544.6,843.5,544.6,843.5,544.6z"/>
		<path d="M891.9,544.6h-6.3c-0.3,0-0.6-0.1-0.8-0.4l-20-24.5c-0.4-0.5-0.8-0.3-0.8,0.3V544c0,0.3-0.2,0.6-0.6,0.7c0,0-0.1,0-0.1,0
			h-9.9c-0.3,0-0.6-0.2-0.7-0.6c0,0,0-0.1,0-0.1v-45.7c0-0.3,0.2-0.6,0.6-0.7c0,0,0.1,0,0.1,0h6.3c0.3,0,0.6,0.1,0.8,0.4l20,24.5
			c0.4,0.5,0.8,0.3,0.8-0.3v-23.9c0-0.3,0.3-0.6,0.6-0.7c0,0,0,0,0.1,0h9.9c0.3,0,0.6,0.2,0.7,0.6c0,0,0,0.1,0,0.1V544
			C892.5,544.3,892.3,544.6,891.9,544.6C891.9,544.6,891.9,544.6,891.9,544.6z"/>
		<path d="M941.6,544.6h-6.3c-0.3,0-0.6-0.1-0.8-0.4l-20-24.5c-0.4-0.5-0.8-0.3-0.8,0.3V544c0,0.3-0.2,0.6-0.6,0.7c0,0-0.1,0-0.1,0
			h-9.9c-0.3,0-0.6-0.2-0.7-0.6c0,0,0-0.1,0-0.1v-45.7c0-0.3,0.2-0.6,0.6-0.7c0,0,0.1,0,0.1,0h6.3c0.3,0,0.6,0.1,0.8,0.4l20,24.5
			c0.4,0.5,0.8,0.3,0.8-0.3v-23.9c0-0.3,0.3-0.6,0.6-0.7c0,0,0,0,0.1,0h9.9c0.3,0,0.6,0.2,0.7,0.6c0,0,0,0.1,0,0.1V544
			C942.2,544.3,942,544.6,941.6,544.6C941.6,544.6,941.6,544.6,941.6,544.6z"/>
		<path d="M996.3,521.1c0,13.6-10.1,23.7-23.7,23.7s-23.8-10.2-23.8-23.7s10.2-23.7,23.8-23.7S996.3,507.5,996.3,521.1z
			 M960.1,521.1c0,9.4,6.2,13.8,12.5,13.8s12.5-4.5,12.5-13.8s-6.1-13.8-12.5-13.8S960.1,511.7,960.1,521.1L960.1,521.1z"/>
		<path d="M1022.7,544.6h-4.6c-0.3,0-0.7-0.2-0.8-0.5l-20.9-45.7c-0.2-0.2-0.1-0.6,0.2-0.7c0.1-0.1,0.2-0.1,0.4-0.1h9.9
			c0.3,0,0.5,0.1,0.7,0.5l12.4,28.6c0.3,0.5,0.7,0.5,0.9,0l12.4-28.6c0.2-0.4,0.4-0.5,0.7-0.5h9.9c0.3,0,0.6,0.2,0.6,0.5
			c0,0.1,0,0.2-0.1,0.3l-21,45.8C1023.3,544.5,1023,544.6,1022.7,544.6z"/>
		<path d="M1057.7,497.6h4.5c0.3,0,0.6,0.2,0.8,0.5l20.9,45.8c0.2,0.5,0,0.8-0.5,0.8h-9.5c-0.3,0-0.6-0.2-0.8-0.5l-3-6.3
			c-0.1-0.3-0.4-0.5-0.7-0.5h-19.2c-0.3,0-0.6,0.2-0.8,0.5l-3,6.3c-0.1,0.3-0.4,0.5-0.7,0.5h-9.4c-0.5,0-0.7-0.3-0.5-0.8l21-45.8
			C1057,497.7,1057.4,497.6,1057.7,497.6z M1055,527.5h10c0.5,0,0.7-0.3,0.5-0.8l-5-11.1c-0.1-0.3-0.3-0.4-0.6-0.3
			c-0.2,0-0.3,0.2-0.3,0.3l-5,11.1C1054.3,527.2,1054.5,527.5,1055,527.5z"/>
		<path d="M1118.2,527.8l9.2,1.2c0.5,0.1,0.5,0.6,0.4,0.9c-1.6,8.6-10,15-20,15c-13.7,0-23.1-10.8-23.1-23.8s9.4-23.6,23.1-23.6
			c10,0,18.3,6.4,20,15c0.1,0.3,0.1,0.9-0.4,0.9l-9.2,1.2c-0.4,0.1-0.8,0-0.9-0.4c-1.5-4.2-5.5-6.9-10-6.8
			c-5.7,0-11.4,4.4-11.4,13.7s5.7,13.9,11.4,13.9c4.5,0.1,8.5-2.6,10-6.8C1117.4,527.8,1117.8,527.6,1118.2,527.8
			C1118.2,527.7,1118.2,527.7,1118.2,527.8z"/>
		<path d="M1147,544.6h-9.9c-0.3,0-0.6-0.2-0.7-0.6c0,0,0,0,0-0.1v-45.7c0-0.3,0.2-0.6,0.6-0.7c0,0,0,0,0.1,0h9.9
			c0.3,0,0.6,0.2,0.7,0.6c0,0,0,0,0,0.1V544C1147.7,544.3,1147.4,544.6,1147,544.6C1147,544.6,1147,544.6,1147,544.6z"/>
		<path d="M1201,521.1c0,13.6-10.1,23.7-23.7,23.7s-23.7-10.2-23.7-23.7s10.2-23.7,23.7-23.7S1201,507.5,1201,521.1z M1164.8,521.1
			c0,9.4,6.2,13.8,12.5,13.8s12.5-4.5,12.5-13.8s-6.1-13.8-12.5-13.8S1164.8,511.7,1164.8,521.1L1164.8,521.1z M1180.4,482.5h8.4
			c0.5,0,0.7,0.4,0.4,0.8l-6.7,9.1c-0.2,0.3-0.5,0.4-0.8,0.4h-6.5c-0.5,0-0.8-0.3-0.5-0.8l4.9-9
			C1179.7,482.7,1180,482.5,1180.4,482.5L1180.4,482.5z"/>
		<path d="M1246.2,544.6h-6.3c-0.3,0-0.6-0.1-0.8-0.4l-20-24.5c-0.4-0.5-0.8-0.3-0.8,0.3V544c0,0.3-0.2,0.6-0.6,0.7c0,0-0.1,0-0.1,0
			h-9.9c-0.3,0-0.6-0.2-0.7-0.6c0,0,0-0.1,0-0.1v-45.7c0-0.3,0.3-0.6,0.6-0.7c0,0,0,0,0.1,0h6.3c0.3,0,0.6,0.1,0.8,0.4l20,24.5
			c0.4,0.5,0.8,0.3,0.8-0.3v-23.9c0-0.3,0.2-0.6,0.6-0.7c0,0,0.1,0,0.1,0h9.9c0.3,0,0.6,0.2,0.7,0.6c0,0,0,0.1,0,0.1V544
			C1246.8,544.3,1246.5,544.6,1246.2,544.6C1246.2,544.6,1246.2,544.6,1246.2,544.6z"/>
	</g>
</g>
</svg>
