<?xml version="1.0" encoding="utf-8"?>
<!-- Generator: Adobe Illustrator 22.1.0, SVG Export Plug-In . SVG Version: 6.00 Build 0)  -->
<svg version="1.1" id="Capa_1" xmlns="http://www.w3.org/2000/svg" xmlns:xlink="http://www.w3.org/1999/xlink" x="0px" y="0px"
	 viewBox="0 0 246.1 91.1" style="enable-background:new 0 0 246.1 91.1;" xml:space="preserve">
<style type="text/css">
	.st0{fill:#FFFFFF;}
</style>
<title>Recurso 1</title>
<g id="Capa_2_1_">
	<g id="Capa_1-2">
		<path class="st0" d="M208.6,65.5c1.4,2.2,2.5,4.6,4.2,6.4c6.5,6.8,18.5,5.3,22.9-3c4.2-7.8,4.1-16,0.6-24c-2.4-5.4-6.9-8-12.7-8.1
			c-6.1-0.2-10.6,2.5-13.6,7.7c-2.3,3.9-2.9,8.3-2.9,12.7c0,7.8,0,15.5,0,23.3c0,5.6-4.4,10.2-9.9,10.5c-5.7,0.2-10.5-4.2-10.7-9.9
			c-0.2-3.3-0.1-6.6-0.1-9.9c0-7.4,0-14.7,0-22.1c0-1.8-0.2-3.6-0.6-5.3c-0.8-3.7-3.3-5.8-7-6.7c-9.5-2.1-17.5,3.9-17.8,13.6
			c-0.3,9.2-0.1,18.4-0.2,27.6v2.4H154V32h6.7v5.5c1.1-0.9,1.8-1.5,2.4-2.1c6.2-5.5,13.4-6.2,20.8-3.2c6.2,2.5,9.2,7.5,9.2,14.2
			c0.1,8.6,0,17.3,0.1,25.9c0,2.8,0,5.6,0.1,8.3c0,1.6,1.2,3,2.8,3.3c1.6,0.3,3.2-0.5,3.8-2c0.2-0.7,0.4-1.5,0.3-2.2
			c0.1-8.1,0.1-16.2,0.2-24.3c-0.1-4.7,1-9.4,3.1-13.6c4.2-8,12.5-12.2,22.1-11.2c11,1.1,18.3,8.4,19.9,20.1
			c1,6.7,0.5,13.3-2.5,19.5c-7.1,14.6-25,14.4-33.1,8c-0.9-0.6-1.4-1.7-1.4-2.8C208.7,72.2,208.6,68.8,208.6,65.5z"/>
		<path class="st0" d="M52.4,32h6.8c0,0.7,0.1,1.2,0.1,1.8c0,15.6,0,31.2,0,46.8c0.1,4.8-3.2,9-7.8,10.2c-4.3,1.2-9-0.7-11.2-4.6
			c-1-1.9-1.6-3.9-1.7-6.1c-0.2-8,0-16.1-0.1-24.2c0-5.2-1.2-10-4.7-14c-3.8-4.5-8.8-6-14.4-4.7s-9.2,5.2-10.9,10.6
			C6.9,53.1,6.7,58.7,8,64c2.6,10.6,14,15.5,22.9,9.9c2.3-1.5,4.2-3.7,5.4-6.2c0.1-0.3,0.4-0.6,0.8-0.8c0,2.9,0.1,5.8-0.1,8.7
			c0,0.6-0.7,1.3-1.3,1.7c-10,8.9-30.1,6.8-34.4-10.8C-0.6,59-0.6,51.4,2.3,44.1c3.1-7.9,8.8-12.7,17.4-13.4
			c8.2-0.7,15.1,1.9,19.8,9c3.8,5.5,5.8,11.9,5.8,18.6c0,7.1,0,14.1,0,21.2c0,0.7,0,1.4,0.2,2.1c0.5,1.6,2.1,2.6,3.7,2.4
			c1.6-0.2,2.8-1.5,3-3.1c0.1-0.8,0-1.6,0-2.4L52.4,32L52.4,32z"/>
		<path class="st0" d="M113.5,58.4v-5.9H139c2.6,0,3-0.5,2.6-3.1c-1.1-6.7-5.3-11.2-11.1-12.2c-6.9-1.2-12.7,1.3-15.9,7.5
			c-4,7.5-4,16.6,0,24.1c2.9,5.8,8.3,7.9,14.6,7.2c6-0.6,10.1-3.8,11.9-9.6c0.1-0.9,0.9-1.5,1.7-1.4c0,0,0.1,0,0.1,0
			c1.9,0.1,3.9,0,5.9,0c-1.1,9.2-9.2,16.5-18.9,17.2c-6.5,0.5-12.6-0.6-17.6-5.2c-4.2-3.8-6.2-8.7-7-14.2c-1-6.5-0.6-12.9,2.1-19.1
			c5.5-12.2,19.4-17,30.9-10.6c7.1,4,11.4,13.1,10.6,21.4c-0.2,2.4-1.4,3.6-3.7,3.6C134.7,58.4,124.2,58.4,113.5,58.4z"/>
		<path class="st0" d="M103.3,56.8c-3.5-1.2-5.9-3.1-7.1-6.3c-0.6-1.7-1-3.4-1.3-5.2c-0.8-4.2-3.2-6.8-7.3-7.9
			c-3.1-0.9-6.3-0.9-9.4,0c-2.9,0.9-5,2.7-5.4,5.9c-0.4,2.8,0.5,5.2,3.2,6.3c3.8,1.5,7.7,2.5,11.5,3.8c2.9,0.8,5.7,1.8,8.5,2.9
			c4.3,2,7.2,5.3,7.4,10.5c0.2,5.5-1.8,9.9-6.7,12.4c-7.5,3.9-15.3,4.5-23.1,1c-5.8-2.6-9.7-9.6-9-15.4c1.9,0,3.9,0,5.8,0
			c0.3,0,0.6,0.5,0.9,0.8c0.1,0.1,0.1,0.2,0.1,0.3c0.9,3.8,2.3,7.3,6.3,8.8c4.4,1.9,9.4,1.9,13.9,0c2-0.8,3.5-2.5,4.2-4.6
			c1.2-3.3,0.2-6.4-2.9-7.8c-3.5-1.3-7.1-2.4-10.7-3.3c-2.7-0.8-5.6-1.3-8.2-2.3c-5-1.9-8.2-5.3-8.5-10.9s2-10.5,7.2-13
			c7.6-3.6,15.3-3.2,22.6,1c2.1,1.3,3.8,3.3,4.6,5.7c0.7,1.7,1.2,3.4,1.7,5.1c0.3,0.9,0.3,2.1,0.9,2.8
			C104.7,50.3,103,53.5,103.3,56.8z"/>
		<path class="st0" d="M193.1,13.3v5.3H154v-5.3H193.1z"/>
		<path class="st0" d="M38.5,13.2c2.1,0,4-0.1,5.9,0.1c0.3,0,0.9,0.9,0.9,1.4c0.1,4.4,0,8.8,0,13.2c0,6.5,0,13-0.3,19.7
			c-0.2-0.6-0.4-1.2-0.7-1.8c-1.6-2.9-3.3-5.8-5-8.7c-0.3-0.5-0.8-1.1-0.8-1.6C38.5,28.1,38.5,20.8,38.5,13.2z"/>
		<path class="st0" d="M81.1,9.8c0.1-7.2,4.2-10.6,10.7-9.6c2,0.3,3.7,1.5,4.8,3.1c2.2,3,2.2,8.9,0.2,12.1s-5.4,4.2-9.7,3.3
			c-3.2-0.9-5.6-3.7-5.9-7C81.1,11,81.1,10.1,81.1,9.8z M94.6,9.5c-0.2-0.9-0.2-1.8-0.5-2.7c-0.4-2-2.2-3.4-4.2-3.5
			c-2.1-0.2-4,1.1-4.4,3.1c-0.4,2-0.4,4.1,0,6.1c0.4,2,2.3,3.4,4.3,3.2c2.1,0,3.9-1.5,4.3-3.6C94.3,11.3,94.4,10.4,94.6,9.5z"/>
		<path class="st0" d="M78.8,18.7h-3.7v-8H68v8h-3.7V0.5H68v6.7h7V0.5h3.8L78.8,18.7z"/>
		<path class="st0" d="M114.4,0.6C113.2,2.8,112.2,5,111,7c-2,2.9-3,6.5-2.6,10c0,0.6,0,1.1-0.1,1.6h-3.8c0.1-1.6,0.1-3.1,0-4.7
			c-0.1-1.3-0.4-2.7-1-3.9c-1.3-2.7-2.9-5.3-4.3-7.9c-0.3-0.5-0.5-1-0.8-1.8c1.2-0.1,2.4-0.1,3.7,0c0.6,0.2,1,0.6,1.3,1.1
			c1.1,2.1,2.1,4.2,3.3,6.7c0.9-1.9,1.7-3.5,2.4-5.2C110.3,0,110.6-0.2,114.4,0.6z"/>
		<path class="st0" d="M124.1,17.2c3.1,0,6.1,0,9.2,0c1,0,1.6,0.1,1.2,1.5h-12.2V0.3c3.8,0,7.4,0,11.1,0c0.3,0,0.6,0.4,1,0.7
			c-0.4,0.3-0.7,0.8-1,0.8c-2.4,0.1-4.9,0-7.3,0h-2v6.6c2.5,0,4.9-0.1,7.3,0c0.7,0,1.9,0.4,1.9,0.7c0.1,1.4-1.1,0.8-1.8,0.8
			c-2.4,0.1-4.8,0-7.4,0L124.1,17.2z"/>
		<path class="st0" d="M135.9,13.3c1-0.4,1.5-0.3,1.9,0.8c1,3.2,5.5,4.5,8.2,2.4c1.4-1,1.7-3,0.7-4.5c-0.2-0.3-0.5-0.6-0.9-0.8
			c-0.8-0.4-1.6-0.7-2.4-0.9c-1.4-0.4-2.8-0.7-4.2-1.2c-2.3-0.8-3.5-3.4-2.7-5.7c0.3-0.8,0.8-1.4,1.4-2c2.2-2,7-2,9,0.2
			c0.8,1.1,1.4,2.2,1.9,3.5c-1.3,0.5-1.8,0.6-2.1-0.6c-0.9-3-5.4-4-7.7-1.8c-1.2,1-1.3,2.8-0.3,4c0.3,0.4,0.8,0.7,1.2,0.8
			c1.6,0.6,3.2,1.1,4.8,1.4c3.1,0.9,4.4,2.4,4.3,5s-1.8,4.4-5,4.9C139.3,19.6,136.2,17.5,135.9,13.3z"/>
		<path class="st0" d="M52.5,18.7v-5.5c2,0,4-0.4,5.9,0.1c2,0.5,0.5,2.6,0.9,3.8c0.2,0.6,0.3,1.6-1,1.6
			C56.4,18.7,54.5,18.7,52.5,18.7z"/>
	</g>
</g>
</svg>
