<?xml version="1.0" encoding="utf-8"?>
<!-- Generator: Adobe Illustrator 22.1.0, SVG Export Plug-In . SVG Version: 6.00 Build 0)  -->
<svg version="1.1" id="Capa_1" xmlns="http://www.w3.org/2000/svg" xmlns:xlink="http://www.w3.org/1999/xlink" x="0px" y="0px"
	 viewBox="0 0 982 624.2" style="enable-background:new 0 0 982 624.2;" xml:space="preserve">
<title>logonuevo</title>
<g>
	<g>
		<path d="M245.7,343.1c0,67.5-55.3,122.9-122.9,122.9c-47.5,0-89.6-26.4-110.6-69c-5.9-11.8-1.1-26.2,10.8-32.1
			c0.2-0.1,0.3-0.2,0.5-0.2c11.9-5.8,26.3-1,32.3,10.8c12.7,26,38.2,42.1,67.1,42.1c40.6,0,73.4-32.8,74.4-72.9v-26.9
			c-21,15.7-46.5,25.5-74.4,25.5C55,343.2,0,288.1,0,220.3C0,152.4,55,97.4,122.9,97.4c67.9,0,122.9,55,122.9,122.9c0,0,0,0,0,0
			V343.1z M197.3,220.3c0-41.1-33.8-74.4-74.4-74.4c-41.1,0-74.4,33.2-74.4,74.3c0,0,0,0.1,0,0.1c0,40.6,33.3,74.4,74.4,74.4
			C163.5,294.7,197.3,260.9,197.3,220.3z"/>
		<path d="M471.9,121.9v123.4c-0.5,54.5-44.8,98.5-99.4,98.4c-54.3,0-98.4-44.1-98.9-98.4V121.9c0-13.4,10.9-24.2,24.2-24.2
			c13.4,0,24.2,10.8,24.2,24.2v122.4c0,27.9,22.5,50.9,50.4,50.9c28.1,0,50.9-22.7,50.9-50.8c0,0,0-0.1,0-0.1V121.9
			c0-13.4,10.8-24.2,24.2-24.2C461.1,97.7,471.9,108.5,471.9,121.9z M306.9,41.1c-4.4-4.6-6.9-10.7-6.9-17.1
			c0.1-6.4,2.5-12.5,6.9-17.1c4.6-4.4,10.8-6.8,17.1-6.9c6.4,0,12.5,2.4,17.1,6.9c4.7,4.5,7.3,10.7,7.3,17.1
			c0.1,6.5-2.6,12.7-7.3,17.1c-4.4,4.8-10.6,7.4-17.1,7.3C317.6,48.5,311.4,45.8,306.9,41.1z M403.9,41.1
			c-4.4-4.6-6.9-10.7-6.9-17.1c0.1-6.4,2.5-12.5,6.9-17.1C408.5,2.5,414.6,0,421,0c6.4,0,12.5,2.4,17.1,6.9
			c4.7,4.5,7.3,10.7,7.3,17.1c0.1,6.5-2.6,12.7-7.4,17.1c-4.4,4.7-10.6,7.4-17.1,7.3C414.5,48.5,408.3,45.8,403.9,41.1z"/>
		<path d="M509.6,42.1c-4.6-4.6-7.2-10.7-7.3-17.1c-0.1-13.4,10.6-24.3,24-24.5c6.6-0.1,13,2.6,17.6,7.3c9.4,9.5,9.2,24.9-0.3,34.3
			C534.1,51.4,519,51.4,509.6,42.1z M502.3,319.1V121.9c0-13.4,10.8-24.2,24.2-24.2c13.4,0,24.2,10.8,24.2,24.2v197.2
			c0,13.4-10.8,24.2-24.2,24.2C513.1,343.4,502.3,332.5,502.3,319.1z"/>
	</g>
	<g>
		<path d="M471.5,624.3c-16,0-29.1-13.3-29.1-29.6v-98.4c0.5-38.3-30.2-69.7-68.5-70.1s-69.7,30.2-70.1,68.5c0,0.6,0,1.1,0,1.7v98.4
			c0.2,16.2-12.8,29.4-29,29.6c-0.2,0-0.4,0-0.6,0c-16,0-29.1-13.3-29.1-29.6v-98.4c0-70.7,57.4-128,128.1-127.9
			c70.6,0,127.9,57.3,127.9,127.9v98.4c0.2,16.2-12.8,29.4-29,29.6C472,624.3,471.7,624.3,471.5,624.3z M373.1,416.8
			c43.9,0,79.5,35.6,79.5,79.5v98.4c0,10.9,8.3,19.4,18.9,19.4c10.6,0.1,19.3-8.4,19.4-19c0-0.1,0-0.3,0-0.4v-98.4
			c0-65-52.7-117.8-117.8-117.8s-117.8,52.7-117.8,117.8v98.4c0,10.9,8.3,19.4,18.9,19.4c10.6,0.1,19.3-8.4,19.4-18.9
			c0-0.1,0-0.3,0-0.4v-98.4C293.6,452.4,329.2,416.8,373.1,416.8z"/>
		<path d="M650.2,624.3h-2.4c-70.7,0-128-57.3-128-128s57.3-128,128-128c31.9,0,63.6,12,87,32.8c18.7,16.6,40.9,46.6,40.9,95.2
			c0,16-13.3,29.1-29.6,29.1H584.8c11.4,24.4,35.9,40.1,62.9,40.2c13.2,0,31-1.8,52.1-15.3c5.9-3.8,13.2-4.9,20-2.9
			c8.5,2.4,15.6,8.3,19.6,16.2c6.6,13.7,1.1,29.3-13.5,38.9C693.8,623.8,668.7,624.3,650.2,624.3z M647.7,378.5
			c-65,0-117.8,52.7-117.8,117.8S582.7,614,647.7,614h1.2c17.3,0,41.1,0,71.4-20.2c8.5-5.5,14.9-15.7,10-25.8
			c-2.7-5.3-7.5-9.2-13.1-10.8c-4-1.2-8.3-0.6-11.8,1.6c-23.6,15.2-44.2,17-57.6,17c-34-0.2-64.2-21.7-75.3-53.8l-2.4-6.8h176.1
			c10.9,0,19.4-8.3,19.4-18.9C765.5,419.8,704.8,378.5,647.7,378.5L647.7,378.5z M725.6,476.9H570l2.4-6.8
			c11.3-31.9,41.5-53.2,75.3-53.3c27.6,0,64,14,75.9,53.6L725.6,476.9z M584.9,466.7h126.6c-12.1-29.2-41.3-39.7-63.7-39.7
			C620.9,427.1,596.5,442.5,584.9,466.7z"/>
		<path d="M878.8,624.3c-12.6,0-23.8-7.8-28.3-19.5L777.1,409c-2.9-7.4-2.6-15.8,0.7-23c3.2-7.1,9.2-12.5,16.6-15
			c7.3-2.8,15.3-2.6,22.4,0.7c7.1,3.3,12.6,9.2,15.4,16.5L878.8,512l46.1-123.8c6-15.5,22.6-23.1,37.9-17.2
			c7.3,2.5,13.2,7.9,16.4,14.9c3.4,7.2,3.7,15.6,0.7,23l-73.4,195.8C901.9,616.5,890.8,624.3,878.8,624.3z M804.8,379.3
			c-2.4,0-4.8,0.4-7,1.3c-4.8,1.6-8.7,5.1-10.8,9.7c-2.2,4.7-2.4,10.1-0.5,15L860,601.2c2.9,7.6,10.1,12.7,18.2,12.8
			c8.3,0,15.8-5.1,18.8-12.9l73.4-195.7c1.9-4.9,1.7-10.3-0.5-15c-2.1-4.5-5.9-8-10.6-9.6c-9.8-3.9-20.8,0.9-24.7,10.6
			c-0.1,0.2-0.1,0.4-0.2,0.6l-55.7,149.3l-56.2-149.3c-1.8-4.8-5.4-8.7-10.1-10.9C810.1,379.9,807.5,379.3,804.8,379.3z"/>
	</g>
</g>
</svg>
