<?xml version="1.0" encoding="utf-8"?>
<!-- Generator: Adobe Illustrator 22.1.0, SVG Export Plug-In . SVG Version: 6.00 Build 0)  -->
<svg version="1.1" id="Capa_1" xmlns="http://www.w3.org/2000/svg" xmlns:xlink="http://www.w3.org/1999/xlink" x="0px" y="0px"
	 viewBox="0 0 103.4 65.9" style="enable-background:new 0 0 103.4 65.9;" xml:space="preserve">
<style type="text/css">
	.st0{fill:#FFFFFF;}
</style>
<title>Recurso 1</title>
<g id="Capa_2_1_">
	<g id="Capa_2-2">
		<path class="st0" d="M4,0h95.4c2.2,0,4,1.8,4,4l0,0c0,2.2-1.8,4-4,4H4C1.8,8,0,6.2,0,4l0,0C0,1.8,1.8,0,4,0z"/>
		<path class="st0" d="M4,29h95.4c2.2,0,4,1.8,4,4l0,0c0,2.2-1.8,4-4,4H4c-2.2,0-4-1.8-4-4l0,0C0,30.8,1.8,29,4,29z"/>
		<path class="st0" d="M4,58h95.4c2.2,0,4,1.8,4,4v0c0,2.2-1.8,4-4,4H4c-2.2,0-4-1.8-4-4v0C0,59.7,1.8,58,4,58z"/>
	</g>
</g>
</svg>
