<svg xmlns="http://www.w3.org/2000/svg" viewBox="0 0 273.17 580.96"><title>Recurso 5</title><g id="Capa_2" data-name="Capa 2"><g id="Capa_1-2" data-name="Capa 1"><path d="M111.25,210c1-35.09,2-68.88,2.88-102.68.53-20.94.68-41.9,1.24-62.85.34-12.38,4.6-23.58,11.68-33.64C131.59,4.41,137.5-.75,145.86.09,155,1,160.43,8,163.75,15.45c2.69,6.06,3.76,13.24,3.91,20,1.09,49.94,1.71,99.89,2.6,149.84a60.18,60.18,0,0,0,13.47,37.55c2.47-11.07,5.3-21.24,7-31.6,5-31.28,12.59-61.93,21.22-92.39,2.09-7.36,1.65-15.44,2.37-23.2C215.7,60.27,221,46.38,231.7,35.26A55.74,55.74,0,0,1,248,24c8.7-4.05,15-1.43,19.31,7.31,6.72,13.5,6.26,28.11,5.4,42.59-2,33.82-11.8,66.18-18.93,99a785.81,785.81,0,0,0-16.3,119.83c-1.36,22.67-1.74,45.39-2.16,68.1a181.85,181.85,0,0,0,1.38,26.5c2.23,17.36-3.16,33.6-6.37,50.17a89.4,89.4,0,0,1-3.5,14.28c-6.41,17.22-2.89,33.7,2.54,50.33,3.44,10.56,7,21.31,8.49,32.24,3.72,26.63-17.76,47.85-44.25,43.63-12.94-2.06-25.26.75-37.72,2.12a146.51,146.51,0,0,1-62-6.64c-5.1-1.66-10.09-7.61-12.46-12.8-3.74-8.2-5.26-17.42-7.67-26.22-5.3-19.32-9.5-39.09-21.69-55.69C48.65,474.08,44.4,470,41,465.37c-8.66-11.92-11.8-26-13.66-40.12a372.67,372.67,0,0,1-2.79-41.32c-.28-14.72-4.31-28.51-8.29-42.45-9-31.3-16-62.93-16.26-95.76,0-6.95,2.26-12.13,8-15.78,9.78-6.18,19.65-12.23,29.37-18.5,4.62-3,8.65-7.06,13.53-9.44,25-12.17,32.83-13.15,54.92,3.9C107.24,207,108.63,208,111.25,210Zm-82,139.84c.67,9.22,1.19,17.34,1.85,25.45,1.32,16.2,2,32.5,4.28,48.57,2,13.91,5.2,28.25,15,38.82,10.51,11.34,17.21,24.39,21.85,38.61,5.25,16.08,9.87,32.39,14,48.8,4.86,19.53,16.34,19.53,30.19,14.29,1.46-.55,2.84-1.3,4.27-1.93,16.41-7.32,32.63-7.5,49,.48a95.19,95.19,0,0,0,19.5,6.83c9.41,2.25,17.5,3.06,26.13-5.88,10.29-10.65,14.09-21.06,10.61-34.82-1.26-5-2.55-9.93-4-14.85-3.48-11.74-7.14-23.44-10.58-35.2-.67-2.3-1.39-4.94-.92-7.17,4-18.49,8.14-36.94,12.36-55.38,3.8-16.57,1.69-32.89-2.8-48.86-6.18-22-21.36-38.24-36.82-54.13-6.23-6.42-13.84-9.2-22.63-10-7-.67-13.91-2.67-20.93-3.5-4-.47-8.94-1.14-12.08.66-7.46,4.28-14,10.11-21.14,15-1.44,1-3.78.66-5.71.94.27-1.8-.06-4.12,1-5.3,2.57-3,5.73-5.53,9.76-9.26l-9.11,4,8-13c-10-9.52-20-8.52-29.71-2.83-8.06,4.7-10.55,15.75-7.41,28.4,2.18,8.79,4.88,11.24,13.06,12.36l3.44-5.21a32.84,32.84,0,0,1,4.49,3.56c3.85,4.32,7.73,8.63,11.16,13.28,2.15,2.93,4.4,6.27,5.07,9.72a307.32,307.32,0,0,0,16.25,56c-.77-.58-1.64-.91-2-1.53-7-12.78-13.86-25.59-20.25-37.45-1.39,4.18-3.4,10.21-5.4,16.24l-1.75-.4q-.48-6.63-1-13.24l-1.77-.56-24,28.62c.09-3.43.69-6.68,2.49-9,7.69-9.73,15.74-19.19,23.67-28.74,2.41-2.92,6.65-5.05,3.45-10.05s-5.35-11.43-13.29-10.8C85.13,363.2,70,370.69,51.5,359.79,44.92,355.92,37.5,353.49,29.23,349.87Zm197.28,2.41c0-13.73-.73-25.61.15-37.38,2-26.68,3.21-53.57,7.61-79.89,6.59-39.54,15.68-78.67,23.64-118,4.78-23.62,10-47.3,5.92-71.55C262.9,40,259.9,31.9,256,30.63c-4.52-1.47-11.1,3.12-16.67,5.37-1.3.53-2.21,2.15-3.17,3.36-7.06,8.9-12,18.89-13.69,30.12-1.67,11-1.11,22.53-4.16,33.07-9.13,31.54-15.51,63.6-21.49,95.82-2.15,11.56-5.6,22.9-8.84,34.22-1.31,4.59-4.44,7.55-10.89,6.16l3.1-8.29c-3.5-3.83-6.85-7.33-10-11-8.29-9.58-7.5-21.54-7.87-32.91-.45-14.26.36-28.55.39-42.83.07-36.81.27-73.62-.24-110.42a34.1,34.1,0,0,0-5.71-17.41c-6.89-10.33-18.68-9.34-25.14,1-6.83,11-9.45,23.08-9.49,35.73q-.24,76,0,151.93c0,3.81,1.86,7.6,2.09,11.44.41,6.62.22,13.28.26,19.92,0,3.52,0,7,0,10.56l-2.3.52c-1.37-1.81-3.33-3.43-4-5.48-1.6-4.83-2.45-9.91-3.89-14.8-.64-2.19-1.39-5-3-6.13A274.36,274.36,0,0,0,87.39,206c-10.69-5.67-21.12-2.39-31,2.69-2.19,1.13-3.51,3.94-5.23,6,7-2.48,12.94-6.3,20.46-3.61-6.82,3.7-12,11.07-21.61,9.07-.19,1.91-.5,4.08-.62,6.27a274.09,274.09,0,0,0,7,79.69c1.24,5.17,5,9.74,7.63,14.58l1.7-.93V296.19h-5c-.21-.61-.43-1.21-.64-1.82L94.65,276.5c-1.28-7.89-2.91-17.68-4.44-27.5a125.51,125.51,0,0,1-1.68-13.9c-.07-1.59,1.55-3.25,2.4-4.87,1.24,1.51,3.19,2.85,3.6,4.56,1.92,8,3.38,16.12,5.06,24.19,1.87,9,3.09,9.75,12,7.62,3-.72,6-1.84,9-2.49,1.93-.41,4-.29,7.34-.49-6.71,11.45-17.65,11-27.32,14.17,3.9,3.49,7.65,6.7,12,8.3,6.53,2.4,13.94,2.71,20.15,5.65,10.87,5.13,22.69,3.49,33.74,6.4,5.85,1.54,12.68,2.83,16.86,6.66,12.27,11.23,23.53,23.58,35,35.71C221.17,343.49,223.11,347.29,226.51,352.28ZM41.71,220.75l-2-.92-27.45,18.1,1.07,1.62,5.1.41c-3.41,4.1-6.18,7.44-9,10.77l.92.7,11-6.57,1.17,1.51c-3,2.75-5.65,6.27-9.16,8s-4.18,4-3.6,7.27c3.94,22.16,7.74,44.34,12,66.44.83,4.26,3.54,8.16,5.72,13,6.15-6.11,10.83-11.69,19.33-10.88L34.68,341.31l10.41,6.63c3.33-12.71,10.86-16.65,18.61-10-2.86,1-5.73,1.64-8.25,3-1.58.83-3.49,2.53-3.77,4.1-1,5.47,5.89,12.41,12.7,13.37,5.51.78,14.06-4.66,15-9.54,1.7-8.82-1.26-13.32-9.63-17-11-4.89-19.77-12.28-22.15-24.89-2.19-11.59-5-23.21-5.65-34.93C41,254.94,41.71,237.83,41.71,220.75Zm77.56,351.87h48.64C154.66,561.61,136,561.83,119.27,572.62Z"/><path d="M166.18,495.14c-20.44,15.23-83,9.89-87.45-7.93,14.42,3.51,28.72,8.77,43.38,10.07S152,496,166.18,495.14Z"/><path d="M82.75,468.91c20.62,13.48,43.77,13.34,67.67,14C131.26,492.71,82.37,482.92,82.75,468.91Z"/><path d="M197.21,465.34c-3.37,13.79-15.5,23.4-24.65,19.74Z"/><path d="M158.34,319.24c-7,4.63-13.91,9.34-21,13.8-.95.6-2.7-.07-4.08-.16.24-1.2.06-2.89.79-3.54,6.85-6.09,14.44-10.71,23.68-11.67Z"/><path d="M99.1,298.51C93.23,304.2,83,305.17,78.24,301c-1-.87-1.9-2.77-1.61-3.88.24-1,2.23-1.48,3.51-2.08.32-.16.85.15,1.29.23Z"/><path d="M148.51,315.14l-20.86,12C127.34,318.29,137.28,312.74,148.51,315.14Z"/><path d="M190.37,254.06c-21.68-7.26-42-5.8-64-2.51C136.29,240.28,176.14,242.23,190.37,254.06Z"/><path d="M148.25,165.27l-17,3.47-1.15-1.62c1-1.52,1.76-3.88,3.16-4.4C137.84,161,142.53,160.62,148.25,165.27Z"/><path d="M138.54,90.26c-4.19,2.08-7.61,3.95-11.21,5.41a3.48,3.48,0,0,1-3.22-1.28A3.62,3.62,0,0,1,125,91C128.81,88.1,133,86.47,138.54,90.26Z"/><path d="M195.57,244.71a16.45,16.45,0,0,1,14,7.47l-1,2.12-14.36-6.58Z"/><path d="M126.65,235.93c3.78-7.23,10.13-7.84,17.07-2.51Z"/><path d="M125.39,162.52c2.66-7.24,8.18-8.78,15.53-5.61Z"/><path d="M236.52,113.13c-4.16.6-8.1,1.24-12.05,1.7a12,12,0,0,1-3.23-.53C223.6,108.51,231.42,107.88,236.52,113.13Z"/><path d="M208,193.31c3.88-4.18,7.87-2.27,11.86,0l.12,2.2-11.88.71Z"/><path d="M207.68,185l14.77-1.18.36,2.71-14.6,2.34C208,187.61,207.86,186.32,207.68,185Z"/><path d="M56.24,227.33c1.65-5.17,5.82-5.57,10.49-5l1,1.83-10.24,5.5Z"/><path d="M225.58,101.17c4.64-2.42,8.24.3,11.94,2.51-.14.71-.29,1.43-.43,2.14l-12-2.33C225.28,102.71,225.43,101.94,225.58,101.17Z"/><path d="M139.25,78.46l-13.19,3.4C129.51,75,132.23,74.34,139.25,78.46Z"/><path d="M25.21,332.67l10.28-9.8L38,325.53,27.44,335Z"/></g></g></svg>
