<svg xmlns="http://www.w3.org/2000/svg" viewBox="0 0 231.87 64.34"><defs><style>.cls-1{fill:#1d1d1b;}</style></defs><title>angular</title><g id="Capa_2" data-name="Capa 2"><g id="Capa_1-2" data-name="Capa 1"><path class="cls-1" d="M2.61,44.23a3.58,3.58,0,0,1,3.52,2.39A4.18,4.18,0,0,1,6.35,48a4.24,4.24,0,0,1-.22,1.35,3.67,3.67,0,0,1-.7,1.19,3.56,3.56,0,0,1-2.82,1.2H.48a.42.42,0,0,1-.34-.14A.46.46,0,0,1,0,51.22v-6.5a.5.5,0,0,1,.14-.35.42.42,0,0,1,.34-.14Zm-.12,6.56A2.9,2.9,0,0,0,4.61,50a3,3,0,0,0,0-4.09,2.9,2.9,0,0,0-2.12-.78H1v5.65Z"/><path class="cls-1" d="M12.38,44.17a.51.51,0,0,1,.49.49v6.61a.47.47,0,0,1-.15.35.48.48,0,0,1-.68,0,.5.5,0,0,1-.14-.35V44.66a.48.48,0,0,1,.14-.34A.45.45,0,0,1,12.38,44.17Z"/><path class="cls-1" d="M21.11,50.89q1.86,0,1.86-1.23c0-.35-.24-.62-.71-.83a6.84,6.84,0,0,0-.72-.23l-.83-.22c-.28-.08-.55-.17-.82-.27a2.65,2.65,0,0,1-.73-.38,1.69,1.69,0,0,1-.7-1.42,1.94,1.94,0,0,1,.7-1.54,3.07,3.07,0,0,1,2.05-.65,6.18,6.18,0,0,1,2.11.35.41.41,0,0,1,.29.43.47.47,0,0,1-.11.31.31.31,0,0,1-.24.14,1.14,1.14,0,0,1-.37-.09A4.77,4.77,0,0,0,21.31,45a2.64,2.64,0,0,0-1.35.31,1,1,0,0,0,.16,1.83,4.45,4.45,0,0,0,.73.25l.82.2c.29.07.56.16.83.25a3.07,3.07,0,0,1,.72.38,1.73,1.73,0,0,1,.7,1.48,1.8,1.8,0,0,1-.73,1.5,3.13,3.13,0,0,1-2,.59,6.32,6.32,0,0,1-2.53-.51.6.6,0,0,1-.21-.18.43.43,0,0,1-.09-.28.44.44,0,0,1,.12-.3.35.35,0,0,1,.27-.13.93.93,0,0,1,.38.1,5.16,5.16,0,0,0,.75.24A4.85,4.85,0,0,0,21.11,50.89Z"/><path class="cls-1" d="M34.41,50.93a.42.42,0,0,1,.13.32.41.41,0,0,1-.13.32.44.44,0,0,1-.32.13H29.83a.44.44,0,0,1-.34-.14.46.46,0,0,1-.14-.34v-6.5a.5.5,0,0,1,.14-.35.44.44,0,0,1,.34-.14h4.26a.44.44,0,0,1,.32.13.44.44,0,0,1,.13.33.44.44,0,0,1-.13.32.48.48,0,0,1-.32.13H30.32V47.5H33.7a.45.45,0,0,1,.33.14.48.48,0,0,1,.13.32.49.49,0,0,1-.13.33.48.48,0,0,1-.33.12H30.32v2.38h3.77A.45.45,0,0,1,34.41,50.93Z"/><path class="cls-1" d="M46,44.17a.47.47,0,0,1,.35.15.48.48,0,0,1,.14.34v6.4a.65.65,0,0,1-.21.49.67.67,0,0,1-.49.21H45.7a.67.67,0,0,1-.56-.29l-4.11-6v5.79a.46.46,0,0,1-.14.35.48.48,0,0,1-.34.14.48.48,0,0,1-.48-.49V44.88a.72.72,0,0,1,.2-.5.65.65,0,0,1,.49-.21h.14a.75.75,0,0,1,.58.32l4.08,6V44.66a.48.48,0,0,1,.14-.34A.45.45,0,0,1,46,44.17Zm-1.22-1.7a.23.23,0,0,1,.25.23,1.12,1.12,0,0,1-.25.69.82.82,0,0,1-.65.33,1.7,1.7,0,0,1-.68-.17,5.88,5.88,0,0,0-.55-.26.9.9,0,0,0-.38-.08.46.46,0,0,0-.43.34.24.24,0,0,1-.25.19.23.23,0,0,1-.17-.07.24.24,0,0,1-.07-.2,1,1,0,0,1,.06-.31,1.32,1.32,0,0,1,.18-.33.77.77,0,0,1,.65-.35,1.27,1.27,0,0,1,.44.08l.39.17.39.17a.94.94,0,0,0,.39.08.43.43,0,0,0,.28-.07.46.46,0,0,0,.13-.18C44.61,42.55,44.7,42.47,44.82,42.47Z"/><path class="cls-1" d="M55.81,44.12a3.54,3.54,0,0,1,2.7,1.08,4.23,4.23,0,0,1,0,5.53,3.54,3.54,0,0,1-2.7,1.08,3.5,3.5,0,0,1-2.69-1.08,4.23,4.23,0,0,1,0-5.53A3.5,3.5,0,0,1,55.81,44.12Zm0,6.78a2.57,2.57,0,0,0,2-.85,3.39,3.39,0,0,0,0-4.18,2.6,2.6,0,0,0-2-.84,2.56,2.56,0,0,0-2,.84,3.36,3.36,0,0,0,0,4.18A2.54,2.54,0,0,0,55.81,50.9Z"/><path class="cls-1" d="M105.79,44.21a.49.49,0,0,1,.34.14.47.47,0,0,1,.14.35v6.61a.42.42,0,0,1-.14.34.45.45,0,0,1-.34.14.48.48,0,0,1-.48-.48V44.7a.47.47,0,0,1,.14-.35A.46.46,0,0,1,105.79,44.21Z"/><path class="cls-1" d="M119.69,44.21a.5.5,0,0,1,.35.14.52.52,0,0,1,.14.35v6.4a.67.67,0,0,1-.21.49.64.64,0,0,1-.49.2h-.13a.65.65,0,0,1-.56-.29l-4.1-6v5.79a.43.43,0,0,1-.15.34.44.44,0,0,1-.34.14.42.42,0,0,1-.34-.14.46.46,0,0,1-.14-.34V44.92a.7.7,0,0,1,.2-.5.67.67,0,0,1,.49-.21h.14a.74.74,0,0,1,.58.32l4.09,6V44.7a.51.51,0,0,1,.13-.35A.49.49,0,0,1,119.69,44.21Z"/><path class="cls-1" d="M132.8,44.4a.42.42,0,0,1,.13.32.41.41,0,0,1-.13.32.44.44,0,0,1-.32.13h-2.16v6.14a.42.42,0,0,1-.14.34.46.46,0,0,1-.35.14.42.42,0,0,1-.33-.14.42.42,0,0,1-.14-.34V45.17h-2.17a.43.43,0,0,1-.44-.45.45.45,0,0,1,.12-.32.45.45,0,0,1,.32-.14h5.29A.45.45,0,0,1,132.8,44.4Z"/><path class="cls-1" d="M144.55,51a.45.45,0,0,1,.14.33.42.42,0,0,1-.14.32.41.41,0,0,1-.32.13H140a.46.46,0,0,1-.34-.14.48.48,0,0,1-.14-.34v-6.5a.48.48,0,0,1,.14-.35.43.43,0,0,1,.34-.15h4.25a.42.42,0,0,1,.32.14.43.43,0,0,1,.14.32.42.42,0,0,1-.14.32.41.41,0,0,1-.32.13h-3.77v2.37h3.39a.46.46,0,0,1,.32.13.44.44,0,0,1,.13.33.41.41,0,0,1-.13.32.42.42,0,0,1-.32.13h-3.39v2.38h3.77A.41.41,0,0,1,144.55,51Z"/><path class="cls-1" d="M157.43,51.31a.46.46,0,0,1-.14.34.45.45,0,0,1-.35.14.44.44,0,0,1-.34-.13.48.48,0,0,1-.14-.35V51a3.1,3.1,0,0,0-.19-1.27,1.62,1.62,0,0,0-.52-.65,1.56,1.56,0,0,0-.93-.24h-2.2v2.48a.46.46,0,0,1-.14.34.45.45,0,0,1-.34.14.48.48,0,0,1-.48-.48V44.76a.45.45,0,0,1,.14-.35.43.43,0,0,1,.34-.15h2.47a3.36,3.36,0,0,1,2.19.62,2,2,0,0,1,.69,1.56,2.06,2.06,0,0,1-.34,1.15,2,2,0,0,1-1.05.79,1.62,1.62,0,0,1,1.11,1.11,4.08,4.08,0,0,1,.22,1.33Zm-2.89-3.4a2.58,2.58,0,0,0,1.44-.36,1.16,1.16,0,0,0,.55-1,1.1,1.1,0,0,0-.43-1,2.83,2.83,0,0,0-1.61-.37h-1.87v2.73Z"/><path class="cls-1" d="M170.65,51.1a.76.76,0,0,1,0,.27.38.38,0,0,1-.13.28.49.49,0,0,1-.4.14.42.42,0,0,1-.4-.3l-.69-1.67h-3.61l-.69,1.67a.42.42,0,0,1-.4.3.51.51,0,0,1-.41-.14.41.41,0,0,1-.12-.28.59.59,0,0,1,.05-.27l2.71-6.45a.63.63,0,0,1,.61-.44h.11a.64.64,0,0,1,.61.44Zm-1.94-2.17-1.44-3.48-1.43,3.48Z"/><path class="cls-1" d="M182.7,50.41a.49.49,0,0,1,.24,0,.34.34,0,0,1,.26.12.39.39,0,0,1,.11.29.4.4,0,0,1-.23.4,5.42,5.42,0,0,1-1.07.47,4.13,4.13,0,0,1-1.35.2,3.92,3.92,0,0,1-1.47-.27,3.24,3.24,0,0,1-1.18-.76,4.28,4.28,0,0,1,0-5.64,3.6,3.6,0,0,1,2.65-1,4.15,4.15,0,0,1,1.35.19,5.77,5.77,0,0,1,.87.36,1.12,1.12,0,0,1,.37.26.53.53,0,0,1,.06.26.37.37,0,0,1-.11.28.34.34,0,0,1-.26.12.49.49,0,0,1-.24,0,5,5,0,0,0-.87-.36,3.57,3.57,0,0,0-1.11-.14,3.09,3.09,0,0,0-1.2.22,2.54,2.54,0,0,0-.9.62,3.37,3.37,0,0,0,0,4.14,2.78,2.78,0,0,0,2.14.85,3.75,3.75,0,0,0,1.07-.14A6,6,0,0,0,182.7,50.41Z"/><path class="cls-1" d="M195.4,50.41a.49.49,0,0,1,.24,0,.34.34,0,0,1,.26.12.39.39,0,0,1,.11.29.42.42,0,0,1-.23.4,5.42,5.42,0,0,1-1.07.47,4.19,4.19,0,0,1-1.36.2,3.91,3.91,0,0,1-1.46-.27,3.24,3.24,0,0,1-1.18-.76,4.28,4.28,0,0,1,0-5.64,3.6,3.6,0,0,1,2.65-1,4.19,4.19,0,0,1,1.35.19,5.77,5.77,0,0,1,.87.36A1.25,1.25,0,0,1,196,45a.53.53,0,0,1,.06.26.37.37,0,0,1-.11.28.34.34,0,0,1-.26.12.49.49,0,0,1-.24,0,5.34,5.34,0,0,0-.87-.36,3.57,3.57,0,0,0-1.11-.14,3.09,3.09,0,0,0-1.2.22,2.54,2.54,0,0,0-.9.62,3.37,3.37,0,0,0,0,4.14,2.78,2.78,0,0,0,2.14.85,3.75,3.75,0,0,0,1.07-.14A6.48,6.48,0,0,0,195.4,50.41Z"/><path class="cls-1" d="M203.35,44.21a.5.5,0,0,1,.35.14.52.52,0,0,1,.14.35v6.61a.48.48,0,0,1-.49.48.46.46,0,0,1-.47-.48V44.7a.51.51,0,0,1,.13-.35A.49.49,0,0,1,203.35,44.21Z"/><path class="cls-1" d="M214.57,44.16a3.53,3.53,0,0,1,2.69,1.08,4.23,4.23,0,0,1,0,5.53,3.9,3.9,0,0,1-5.39,0,4,4,0,0,1-1-2.77,4,4,0,0,1,1-2.76A3.51,3.51,0,0,1,214.57,44.16Zm0,6.78a2.57,2.57,0,0,0,2-.85,3.36,3.36,0,0,0,0-4.18,2.89,2.89,0,0,0-4.07,0,3.39,3.39,0,0,0,0,4.18A2.59,2.59,0,0,0,214.57,50.94Zm.15-8.57a.33.33,0,0,1,.31-.21c.29,0,.43.14.43.4a.4.4,0,0,1-.11.27l-.73.88a.3.3,0,0,1-.23.11.25.25,0,0,1-.21-.08.25.25,0,0,1-.08-.17.38.38,0,0,1,.07-.24Z"/><path class="cls-1" d="M231.26,44.21a.49.49,0,0,1,.34.14.47.47,0,0,1,.14.35v6.4a.7.7,0,0,1-.2.49.68.68,0,0,1-.5.2h-.12a.65.65,0,0,1-.57-.29l-4.1-6v5.79a.43.43,0,0,1-.15.34.44.44,0,0,1-.34.14.42.42,0,0,1-.34-.14.46.46,0,0,1-.14-.34V44.92a.7.7,0,0,1,.2-.5.67.67,0,0,1,.49-.21h.14a.74.74,0,0,1,.58.32l4.09,6V44.7a.47.47,0,0,1,.14-.35A.46.46,0,0,1,231.26,44.21Z"/><path class="cls-1" d="M98.35,16.08a15.93,15.93,0,1,1-31.85,0,15.93,15.93,0,1,1,31.85,0Z"/><path class="cls-1" d="M82.42,32.17A16.09,16.09,0,1,0,98.35,48.25,16,16,0,0,0,82.42,32.17Zm4.94,17h-4v4.09a.89.89,0,1,1-1.77,0V49.15H77.48a.89.89,0,0,1,0-1.78h4.06v-4.1a.89.89,0,1,1,1.77,0v4.1h4a.89.89,0,1,1,0,1.78Z"/><path class="cls-1" d="M31.27,13.48V31.54a.63.63,0,0,1-.63.63H15.94A15.87,15.87,0,0,1,3.19,25.74a16.23,16.23,0,0,1,0-19.3,15.83,15.83,0,0,1,25.49,0A15.16,15.16,0,0,1,31.27,13.48Z"/><path class="cls-1" d="M198.35,13.48V31.54a.63.63,0,0,1-.62.63H183a15.85,15.85,0,0,1-12.74-6.43,16.19,16.19,0,0,1,0-19.3,15.82,15.82,0,0,1,25.48,0A15.16,15.16,0,0,1,198.35,13.48Z"/><path class="cls-1" d="M64.2,13.48V31.54a.63.63,0,0,1-.63.63H34.17a.62.62,0,0,1-.62-.63V13.48a15.3,15.3,0,0,1,2.58-7,15.83,15.83,0,0,1,25.49,0A15.3,15.3,0,0,1,64.2,13.48Z"/><path class="cls-1" d="M231.87,15.45a.64.64,0,0,1-.63.64H216V31.54a.63.63,0,0,1-.63.63H201.26a.62.62,0,0,1-.62-.63V13.46a15.29,15.29,0,0,1,2.57-7A15.87,15.87,0,0,1,216,0h0A15.84,15.84,0,0,1,228.7,6.44a16.06,16.06,0,0,1,3.16,8.89S231.87,15.41,231.87,15.45Z"/><path class="cls-1" d="M131.27.63V18.68a15.34,15.34,0,0,1-2.58,7.06,15.84,15.84,0,0,1-25.48,0,15.35,15.35,0,0,1-2.59-7V.63a.62.62,0,0,1,.62-.62h29.41A.63.63,0,0,1,131.27.63Z"/><path class="cls-1" d="M164.8,16.71s0,.1,0,.13a17,17,0,0,1-.59,3.65.16.16,0,0,1,0,.08c0,.21-.12.43-.19.64s-.16.46-.25.7-.17.43-.27.64c-.21.49-.45,1-.7,1.44-.11.18-.22.36-.32.54-.26.41-.52.81-.81,1.21l-.57.71-.61.69-.58.59c-.24.23-.5.46-.76.68s-.45.37-.69.55l-.14.1a11.37,11.37,0,0,1-1.14.77c-.25.16-.52.32-.78.46s-.38.2-.57.28a7.09,7.09,0,0,1-.69.32c-.49.21-1,.39-1.48.55a14.26,14.26,0,0,1-1.53.39c-.25.06-.52.11-.77.15s-.53.08-.81.1l-.8.07h-1.65l-.8-.07c-.28,0-.54-.06-.81-.1a15.9,15.9,0,0,1-3-.79,20.06,20.06,0,0,1-2.11-1,16.31,16.31,0,0,1-2.54-1.74c-.39-.33-.77-.66-1.13-1l-.53-.56c-.21-.24-.42-.48-.62-.74a3.65,3.65,0,0,1-.24-.31,4,4,0,0,1-.24-.33.76.76,0,0,1-.08-.11h0l-.08-.13a7.91,7.91,0,0,1-.44-.68h0c-.17-.27-.33-.55-.48-.83s-.24-.46-.35-.69-.22-.48-.32-.72a10.27,10.27,0,0,1-.65-3.67V.63a.62.62,0,0,1,.61-.63h14.08a.64.64,0,0,1,.63.63V16.09h15.29A.63.63,0,0,1,164.8,16.71Z"/></g></g></svg>
